<svg width="51" height="58" viewBox="0 0 51 58" fill="none" xmlns="http://www.w3.org/2000/svg">
<path d="M17.5 29.5L33.5 37.5M33.5 13.5L17.5 21.5M41.5 49.5C37.0817 49.5 33.5 45.9183 33.5 41.5C33.5 37.0817 37.0817 33.5 41.5 33.5C45.9183 33.5 49.5 37.0817 49.5 41.5C49.5 45.9183 45.9183 49.5 41.5 49.5ZM9.5 33.5C5.08172 33.5 1.5 29.9183 1.5 25.5C1.5 21.0817 5.08172 17.5 9.5 17.5C13.9183 17.5 17.5 21.0817 17.5 25.5C17.5 29.9183 13.9183 33.5 9.5 33.5ZM41.5 17.5C37.0817 17.5 33.5 13.9183 33.5 9.5C33.5 5.08172 37.0817 1.5 41.5 1.5C45.9183 1.5 49.5 5.08172 49.5 9.5C49.5 13.9183 45.9183 17.5 41.5 17.5Z" stroke="#F2552C" stroke-width="3" stroke-linecap="round" stroke-linejoin="round"/>
</svg>
