<svg width="51" height="56" viewBox="0 0 51 56" fill="none" xmlns="http://www.w3.org/2000/svg">
<path d="M1.89452 20.2593C1.12946 19.5483 1.54504 18.2629 2.57985 18.1396L17.2426 16.3918C17.6643 16.3415 18.0307 16.0754 18.2086 15.6878L24.3931 2.2133C24.8296 1.26235 26.1748 1.26217 26.6113 2.21312L32.7958 15.6875C32.9737 16.0751 33.3376 16.342 33.7594 16.3922L48.4229 18.1396C49.4578 18.2629 49.8722 19.5487 49.1071 20.2597L38.2678 30.3352C37.956 30.625 37.8171 31.0563 37.8999 31.475L40.7766 46.0292C40.9797 47.0563 39.892 47.8522 38.9827 47.3407L26.0985 40.091C25.7279 39.8825 25.2777 39.8835 24.9071 40.092L12.0216 47.3388C11.1123 47.8503 10.0226 47.0563 10.2257 46.0291L13.1028 31.4759C13.1856 31.0572 13.0471 30.6249 12.7353 30.3351L1.89452 20.2593Z" stroke="#F2552C" stroke-width="3" stroke-linecap="round" stroke-linejoin="round"/>
</svg>
