<svg width="51" height="58" viewBox="0 0 51 58" fill="none" xmlns="http://www.w3.org/2000/svg">
<path d="M17.8906 17.6964C18.3461 16.293 19.1804 15.044 20.3021 14.0854C21.4238 13.1268 22.7901 12.4969 24.2474 12.2657C25.7047 12.0345 27.1966 12.2105 28.5599 12.7749C29.9232 13.3392 31.1039 14.2701 31.9714 15.4637C32.8388 16.6572 33.3584 18.0669 33.4743 19.5379C33.5903 21.0088 33.2969 22.4836 32.6272 23.7983C31.9574 25.113 30.9383 26.2161 29.6803 26.9871C28.4223 27.7581 26.9755 28.1662 25.5 28.1662V30.8341M25.6328 38.8335V39.1001L25.3672 39.1006V38.8335H25.6328ZM13.0513 4.00012L4 13.0514L3.99178 13.0591C3.07485 13.9761 2.6153 14.4356 2.28646 14.9722C1.99404 15.4494 1.77801 15.9703 1.64736 16.5144C1.5 17.1282 1.5 17.7803 1.5 19.0848V31.9155C1.5 33.22 1.5 33.8722 1.64736 34.486C1.77801 35.0302 1.99404 35.5503 2.28646 36.0275C2.61617 36.5655 3.07819 37.0275 4 37.9493L13.0513 47.0006C13.9737 47.923 14.4339 48.3832 14.9721 48.713C15.4493 49.0055 15.9688 49.2223 16.513 49.353C17.1259 49.5001 17.7769 49.5001 19.0774 49.5001H31.92C33.2205 49.5001 33.8743 49.5001 34.4872 49.353C35.0313 49.2223 35.5515 49.0055 36.0286 48.7131C36.5669 48.3833 37.0281 47.923 37.9505 47.0006L47.0018 37.9493C47.9242 37.0269 48.3844 36.5657 48.7143 36.0275C49.0067 35.5503 49.2209 35.0302 49.3516 34.486C49.4989 33.8722 49.5 33.22 49.5 31.9155V19.0848C49.5 17.7803 49.4989 17.1282 49.3516 16.5144C49.2209 15.9703 49.0067 15.4494 48.7143 14.9722C48.3844 14.434 47.9241 13.9737 47.0018 13.0514L37.9505 4.00012C37.0287 3.07829 36.5667 2.6163 36.0286 2.28658C35.5515 1.99416 35.0314 1.77813 34.4872 1.64748C33.8734 1.50012 33.2186 1.50012 31.9141 1.50012H19.0833C17.7788 1.50012 17.1268 1.50012 16.513 1.64748C15.9688 1.77813 15.4493 1.99416 14.9721 2.28658C14.4388 2.61341 13.9828 3.06937 13.0771 3.97514L13.0513 4.00012Z" stroke="#E6380B" stroke-width="3" stroke-linecap="round" stroke-linejoin="round"/>
</svg>
