<svg width="321" height="203" viewBox="0 0 321 203" fill="none" xmlns="http://www.w3.org/2000/svg">
<path d="M59.3804 93.6341C58.9434 93.4701 58.6824 93.257 58.5974 92.9947C58.5348 92.729 58.6215 92.2348 58.8574 91.512C59.0932 90.7893 59.4645 89.6682 59.971 88.1488C60.3585 87.0596 60.6449 86.2147 60.8302 85.6141C61.0346 84.9877 61.1633 84.5446 61.2161 84.2846C61.2914 84.0212 61.324 83.8559 61.314 83.7887C61.239 83.5936 61.238 83.4333 61.311 83.3079C61.3806 83.16 61.5096 83.0261 61.6979 82.9063C61.7933 82.7775 61.9425 82.549 62.1456 82.2207C62.3711 81.8891 62.5659 81.5048 62.7298 81.0678C62.8613 80.5669 63.0247 80.0498 63.2201 79.5164C63.4155 78.9831 63.6822 78.313 64.0201 77.5063C64.3547 76.6772 64.7903 75.6037 65.327 74.2861C65.6582 73.4345 66.0326 72.565 66.4502 71.6776C66.8644 70.7679 67.3139 69.8643 67.7988 68.9668C67.9985 68.6162 68.1859 68.3361 68.3609 68.1266C68.5325 67.8948 68.7209 67.775 68.926 67.7673C69.195 67.7271 69.5111 67.7716 69.8741 67.9007C70.2596 68.0265 70.6198 68.2134 70.9547 68.4613C71.2897 68.7093 71.5495 68.9913 71.7342 69.3075C71.873 69.4702 71.9748 69.8446 72.0394 70.4308C72.104 71.017 72.1645 71.7299 72.2211 72.5694C72.2777 73.4089 72.3314 74.3061 72.3823 75.2611C72.4522 76.1903 72.5137 77.2926 72.5666 78.5681C72.6194 79.8436 72.6807 81.1752 72.7503 82.5628C72.8424 83.947 72.9502 85.2831 73.0737 86.571C73.1938 87.8364 73.3578 88.9349 73.5656 89.8665C73.6181 90.0649 73.6466 90.2554 73.6509 90.4381C73.6553 90.6208 73.6658 90.7682 73.6826 90.8803C73.5681 91.0349 73.3523 91.1244 73.0351 91.1488C72.7437 91.1923 72.4422 91.1686 72.1307 91.0776C71.8416 90.9832 71.6596 90.8385 71.5846 90.6434C71.5073 90.5862 71.4491 90.5033 71.4099 90.3945C71.3899 90.26 71.3609 89.9893 71.3231 89.5824C71.2853 89.1756 71.2123 88.5333 71.1042 87.6556L70.4591 82.1829L70.027 82.2818C69.8252 82.3119 69.4475 82.3912 68.8937 82.5197C68.34 82.6482 67.7447 82.8058 67.108 82.9925C66.4679 83.1568 65.8743 83.3257 65.3272 83.499C64.7992 83.6466 64.4394 83.769 64.2476 83.8664C64.0459 83.8965 63.8193 84.0679 63.5681 84.3804C63.3392 84.6896 63.1333 85.0755 62.9502 85.5383C62.9074 85.8655 62.7895 86.2269 62.5964 86.6224C62.4224 86.9921 62.3438 87.2331 62.3606 87.3451C62.2204 87.4807 62.1059 87.6353 62.0173 87.8089C61.951 87.9792 61.9179 88.0644 61.9179 88.0644C61.938 88.1989 61.8761 88.5519 61.7322 89.1234C61.6074 89.6691 61.4366 90.2905 61.2198 90.9875C60.9997 91.662 60.7678 92.2581 60.5242 92.7758L59.9787 93.9573L59.3804 93.6341ZM64.7249 81.7669C64.7249 81.7669 64.8336 81.7278 65.0511 81.6495C65.291 81.5678 65.5646 81.4812 65.8717 81.3895C66.198 81.272 66.4956 81.1932 66.7646 81.1531C67.6727 80.7883 68.3347 80.5405 68.7506 80.4097C69.1632 80.2564 69.4479 80.1681 69.6049 80.1447C69.7842 80.1179 69.9462 80.1281 70.0907 80.1753C70.1971 80.274 70.2856 80.3295 70.3562 80.3419C70.4492 80.3509 70.4957 80.3555 70.4957 80.3555C70.5115 80.3073 70.5066 80.0444 70.4812 79.567C70.4557 79.0895 70.4248 78.4983 70.3883 77.7932C70.3742 77.0849 70.3456 76.3558 70.3024 75.606C70.2783 74.8303 70.2418 74.1253 70.1929 73.4909C70.1407 72.8341 70.1007 72.3359 70.0729 71.9963C70.0318 71.567 69.9973 71.1825 69.9695 70.8429C69.9384 70.4809 69.9228 70.2998 69.9228 70.2998C69.7883 70.3199 69.5337 70.61 69.159 71.1702C68.8066 71.7269 68.4217 72.449 68.0041 73.3364C67.5866 74.2238 67.211 75.1622 66.8774 76.1516C66.7168 76.611 66.5607 77.0239 66.4092 77.3903C66.2576 77.7567 66.1258 77.9483 66.0137 77.965C65.9755 78.0165 65.8712 78.2384 65.7005 78.6305C65.549 78.9969 65.3833 79.4227 65.2037 79.9079C65.0206 80.3706 64.8774 80.7931 64.7741 81.1752C64.6673 81.5349 64.6509 81.7321 64.7249 81.7669ZM91.0234 86.5729C90.6129 87.0467 90.0988 87.3641 89.4811 87.525C88.8858 87.6826 88.2784 87.6816 87.6587 87.522C87.0357 87.34 86.4934 87.0085 86.032 86.5273C85.5773 86.091 85.247 85.5674 85.0412 84.9564C84.8321 84.323 84.6954 83.484 84.6311 82.4393C84.5678 81.555 84.7176 80.6388 85.0802 79.6909C85.4396 78.7206 85.9149 77.836 86.5061 77.0373C87.1197 76.2353 87.754 75.6478 88.4088 75.2751C88.7116 75.0007 88.9767 74.858 89.2043 74.8469C89.4509 74.8101 89.8241 74.7773 90.324 74.7485C90.8497 74.7388 91.2458 74.7828 91.5125 74.8805C91.8016 74.9749 92.0414 75.1224 92.2318 75.3232C92.6182 75.6093 92.8926 75.9121 93.0549 76.2316C93.2138 76.5287 93.3167 76.8342 93.3636 77.1481C93.3475 77.6547 93.1016 78.3102 92.6258 79.1146C92.1691 79.8932 91.5147 80.5753 90.6624 81.1609C90.1927 81.3914 89.6647 81.539 89.0784 81.6036C88.4922 81.6682 87.9885 81.5944 87.5672 81.3823C87.1145 81.2665 86.8393 81.342 86.7416 81.6086C86.6405 81.8529 86.6009 82.4318 86.6227 83.3452C86.6602 84.2105 86.8211 84.8282 87.1055 85.1982C87.3866 85.5459 87.7227 85.7249 88.1139 85.7353C88.5756 85.758 88.9332 85.7734 89.1864 85.7814C89.4588 85.7637 89.7688 85.6143 90.1165 85.3332C90.4417 85.0555 90.6475 84.8987 90.7338 84.8629C90.8168 84.8047 90.8773 84.7498 90.9155 84.6983C90.9727 84.621 91.0967 84.4535 91.2874 84.1958C91.4209 84.0155 91.5274 83.885 91.6071 83.8044C91.6834 83.7013 91.7776 83.6414 91.8896 83.6247C92.0017 83.6079 92.111 83.6489 92.2174 83.7476C92.3205 83.8239 92.4202 83.8778 92.5165 83.9092C92.7407 83.8758 92.8056 84.0036 92.7113 84.2927C92.6393 84.5784 92.4525 84.9386 92.1507 85.3733C91.8455 85.7855 91.4698 86.1854 91.0234 86.5729ZM89.9256 79.4489C90.1555 79.3 90.3899 79.1046 90.6288 78.8626C90.8643 78.5983 91.0534 78.3294 91.1959 78.0561C91.3575 77.7569 91.4249 77.5177 91.3981 77.3383C91.3513 77.0245 91.1671 76.7884 90.8455 76.6302C90.5206 76.4495 90.0785 76.4811 89.519 76.7251C89.2824 76.8291 89.0273 77.0391 88.7536 77.355C88.4766 77.6484 88.2158 77.9738 87.9712 78.3312C87.749 78.6852 87.5667 78.9989 87.4241 79.2723C87.304 79.5423 87.2697 79.6964 87.3212 79.7345C87.4052 79.8366 87.6092 79.8978 87.9331 79.9182C88.2536 79.9162 88.6028 79.8755 88.9805 79.7962C89.3807 79.7136 89.6957 79.5978 89.9256 79.4489ZM108.169 88.3106C107.972 88.2253 107.807 88.1125 107.671 87.9723C107.561 87.8512 107.509 87.6528 107.514 87.3771C107.742 87.0679 107.951 86.6242 108.14 86.046C108.329 85.4678 108.45 84.8997 108.504 84.3415C108.558 83.7834 108.5 83.3911 108.329 83.1646C108.14 83.2844 107.841 83.4321 107.432 83.6078C107.023 83.7835 106.58 83.9641 106.104 84.1499C105.627 84.3356 105.203 84.4905 104.832 84.6147C104.461 84.7388 104.207 84.7997 104.069 84.7974C104.091 84.794 103.9 84.8914 103.494 85.0895C103.107 85.2618 102.771 85.3921 102.486 85.4805C102.227 85.5879 101.765 85.7142 101.099 85.8595C100.43 85.9823 99.6196 86.0803 98.6679 86.1536C98.3765 86.1971 98.0667 86.1173 97.7384 85.9142C97.4326 85.7078 97.1442 85.4644 96.8731 85.184C96.5987 84.8812 96.3664 84.6294 96.176 84.4286C96.1268 84.2526 96.0776 84.0766 96.0284 83.9006C95.9983 83.6989 95.9474 83.5117 95.8758 83.339C95.84 83.2527 95.8206 82.9691 95.8176 82.4883C95.837 82.0041 95.8799 81.4477 95.9465 80.819C96.0131 80.1902 96.0863 79.6064 96.1663 79.0673C96.2429 78.5059 96.3093 78.1063 96.3655 77.8688C96.479 77.5539 96.5571 77.2328 96.5999 76.9056C96.6651 76.575 96.7545 76.2523 96.8679 75.9374C96.9656 75.6708 97.0409 75.4074 97.0937 75.1474C97.1657 74.8617 97.2281 74.5888 97.2809 74.3288C97.3863 74.2673 97.49 74.1945 97.5921 74.1105C97.6941 74.0265 97.7917 73.989 97.8847 73.9981C98.5258 73.994 98.9449 74.1148 99.142 74.3604C99.3615 74.6026 99.5097 74.9816 99.5867 75.4972C99.2387 76.2367 98.9282 77.0737 98.6552 78.0082C98.3789 78.9204 98.2313 79.9279 98.2126 81.0307C98.1373 81.294 98.0743 81.716 98.0234 82.2965C97.9916 82.8513 97.9863 83.2761 98.0074 83.5708C98.7154 84.0152 99.2729 84.2184 99.6797 84.1806C100.109 84.1395 100.573 83.9442 101.071 83.5949C101.096 82.9953 101.182 82.4209 101.329 81.8718C101.476 81.3227 101.62 80.7512 101.761 80.1573C101.801 79.9679 101.831 79.7113 101.852 79.3874C101.872 79.0635 101.916 78.8164 101.982 78.6461C102.076 78.357 102.159 77.9894 102.23 77.5434C102.297 77.075 102.289 76.7096 102.204 76.4472C102.079 76.0762 102.121 75.8179 102.329 75.6723C102.533 75.5043 102.81 75.4401 103.159 75.4796C103.531 75.5157 103.861 75.6498 104.147 75.8821C104.262 76.1859 104.333 76.5076 104.36 76.8472C104.411 77.1835 104.371 77.5331 104.242 77.8962C104.233 77.9892 104.174 78.2845 104.065 78.7821C103.975 79.2538 103.872 79.7962 103.758 80.4092C103.64 80.9998 103.524 81.5327 103.412 82.0078C103.318 82.4572 103.266 82.7172 103.253 82.7878C103.331 82.845 103.524 82.8389 103.835 82.7697C104.165 82.6746 104.526 82.5634 104.92 82.4359C105.335 82.3051 105.707 82.1809 106.033 82.0635C106.119 82.0276 106.209 81.7851 106.302 81.3357C106.396 80.8863 106.488 80.3568 106.581 79.7472C106.673 79.1375 106.748 78.5648 106.806 78.0291C106.86 77.471 106.894 77.0877 106.909 76.8793C106.924 76.6708 106.969 76.2859 107.046 75.7244C107.142 75.1372 107.233 74.6766 107.321 74.3426C107.44 73.9123 107.644 73.6642 107.932 73.5983C108.044 73.5816 108.146 73.5777 108.239 73.5868C108.355 73.5924 108.555 73.6313 108.841 73.7032C109.13 73.7975 109.364 73.9804 109.542 74.2518C109.717 74.5007 109.766 74.7568 109.691 75.0202C109.64 75.1423 109.568 75.3479 109.474 75.637C109.379 75.9261 109.295 76.2023 109.219 76.4657C109.166 76.7256 109.135 76.9021 109.126 76.9952C109.096 77.2518 109.039 77.6384 108.956 78.1551C108.869 78.6493 108.787 79.1771 108.711 79.7386C108.631 80.2776 108.581 80.7892 108.562 81.2734C108.671 81.2342 108.834 81.1755 109.051 81.0972C109.269 81.0189 109.482 80.9871 109.69 81.0018C109.918 80.9908 110.072 81.1052 110.154 81.3451C110.177 81.5021 110.241 81.6187 110.344 81.695C110.447 81.7712 110.529 81.8621 110.591 81.9675C110.787 82.6715 110.841 83.2594 110.751 83.7312C110.657 84.1805 110.632 84.5509 110.676 84.8424C110.732 85.0632 110.719 85.2829 110.637 85.5014C110.577 85.7165 110.518 85.9317 110.458 86.1468C110.248 86.8887 109.971 87.4113 109.627 87.7148C109.282 88.0183 108.796 88.2169 108.169 88.3106ZM116.602 84.061C115.615 84.2082 114.753 83.9588 114.015 83.3127C113.273 82.6442 112.83 81.7478 112.685 80.6235C112.609 79.8098 112.638 78.9232 112.769 77.9639C112.92 76.9789 113.168 76.0252 113.511 75.1031C113.851 74.1585 114.253 73.3193 114.717 72.5855C115.18 71.8517 115.694 71.3051 116.259 70.9457C116.467 70.8002 116.689 70.6754 116.925 70.5713C117.184 70.4639 117.448 70.3901 117.717 70.3499C117.964 70.3131 118.229 70.3195 118.511 70.369C118.79 70.3961 119.026 70.4411 119.219 70.504C119.623 70.604 119.943 70.7511 120.178 70.9451C120.414 71.1392 120.645 71.4599 120.872 71.9073C121.003 72.3232 121.082 72.6208 121.108 72.8002C121.135 72.9795 121.119 73.2569 121.061 73.6323C120.912 74.4795 120.668 75.2264 120.33 75.8728C119.991 76.5193 119.493 77.0978 118.835 77.6084C118.673 77.7473 118.473 77.8688 118.237 77.9728C118.019 78.0511 117.787 78.1087 117.54 78.1455C117.092 78.2124 116.643 78.1992 116.194 78.1059C115.764 77.9868 115.4 77.7775 115.103 77.478L114.828 77.2442L114.767 77.5282C114.633 78.167 114.537 78.7542 114.48 79.2899C114.445 79.8223 114.459 80.3014 114.523 80.7274C114.563 80.9964 114.624 81.2508 114.705 81.4908C114.809 81.7273 114.931 81.9269 115.07 82.0895C115.179 82.2106 115.34 82.2898 115.552 82.3269C115.783 82.3383 116.022 82.3256 116.268 82.2887C116.425 82.2653 116.582 82.2419 116.739 82.2185C116.915 82.1693 117.076 82.0993 117.223 82.0087C117.584 81.8173 117.865 81.6264 118.066 81.436C118.289 81.2422 118.511 81.0373 118.731 80.8211L118.855 80.7338L118.821 80.7388C119.07 80.5641 119.286 80.3945 119.467 80.2299C119.671 80.0619 119.773 79.9779 119.773 79.9779C119.863 79.9645 119.944 79.8951 120.017 79.7696C120.183 79.6532 120.413 79.6533 120.705 79.7701C121.02 79.8835 121.196 80.0635 121.233 80.3101C121.227 80.4256 121.153 80.62 121.01 80.8933C120.864 81.1443 120.694 81.3874 120.5 81.6226C120.329 81.8545 120.177 81.9917 120.046 82.0342C120.027 82.06 119.955 82.1165 119.831 82.2038C119.703 82.2688 119.62 82.327 119.582 82.3785L119.615 82.3735C119.454 82.6726 119.272 82.8373 119.07 82.8674L118.801 82.9075C118.735 83.0778 118.47 83.3007 118.007 83.5761C117.541 83.8291 117.072 83.9907 116.602 84.061ZM117.01 76.437C117.414 76.3768 117.745 76.2128 118.003 75.9452C118.28 75.6517 118.509 75.3425 118.689 75.0176C119.047 74.3454 119.218 73.724 119.202 73.1535C119.204 72.5573 119.077 72.1638 118.819 71.9731C118.675 71.9259 118.546 71.9107 118.434 71.9274C118.341 71.9184 118.156 71.9804 117.878 72.1136C117.683 72.1886 117.427 72.3986 117.112 72.7435C116.797 73.0885 116.487 73.4671 116.182 73.8794C115.899 74.2883 115.686 74.6294 115.544 74.9028L115.212 75.6742C115.381 75.5802 115.545 75.5214 115.701 75.498C115.877 75.4488 115.98 75.445 116.009 75.4865C116.039 75.6882 116.101 75.8738 116.195 76.0431C116.308 76.1866 116.428 76.2948 116.553 76.3678C116.701 76.4374 116.854 76.4605 117.01 76.437ZM135.946 88.9767C135.931 89.0249 135.823 88.9952 135.624 88.8874C135.447 88.7763 135.265 88.6316 135.078 88.4533C134.894 88.2974 134.803 88.1505 134.805 88.0126C134.669 87.7121 134.622 87.3182 134.663 86.8306C134.731 86.3622 134.911 85.6478 135.203 84.6875C135.374 84.2953 135.512 83.8393 135.617 83.3193C135.746 82.796 135.896 82.2693 136.069 81.7393C136.151 81.5208 136.332 81.0468 136.613 80.3174C136.894 79.588 137.184 78.7655 137.482 77.85C137.804 76.9312 138.053 76.0689 138.231 75.2632C137.738 75.9555 137.292 76.6523 136.893 77.3537C136.49 78.0326 136.104 78.5944 135.735 79.0391C135.388 79.4804 135.034 79.7167 134.672 79.7478C134.37 79.724 134.041 79.67 133.685 79.5857C133.348 79.4756 133.095 79.2384 132.926 78.874C132.762 78.3942 132.635 77.7715 132.544 77.0059C132.475 76.237 132.448 75.0607 132.464 73.4771C132.529 72.6881 132.543 72.0901 132.505 71.6832C132.487 71.2506 132.429 70.9384 132.331 70.7467C132.234 70.555 132.084 70.394 131.881 70.2639C131.549 70.0384 131.357 69.8264 131.305 69.628C131.271 69.4038 131.4 69.1898 131.69 68.986C132.144 68.8037 132.476 68.7198 132.684 68.7346C132.889 68.7269 133.162 68.8694 133.504 69.1622C133.727 69.4268 133.926 69.6836 134.1 69.9326C134.294 70.1557 134.438 70.5812 134.532 71.2089C134.572 71.4779 134.58 71.8433 134.558 72.3051C134.557 72.7635 134.554 73.1995 134.547 73.613C134.559 74.0008 134.565 74.2749 134.566 74.4351C134.466 75.2981 134.427 76.0372 134.45 76.6525C134.496 77.2645 134.575 77.5622 134.687 77.5454C135.082 77.1198 135.447 76.6527 135.784 76.1441C136.14 75.6097 136.498 75.0176 136.859 74.3678C137.24 73.6923 137.653 72.9315 138.1 72.0856C138.245 71.6744 138.392 71.2744 138.54 70.8856C138.688 70.4968 138.801 70.1018 138.879 69.7006C138.97 69.3891 139.069 69.1336 139.177 68.9342C139.284 68.7347 139.381 68.6171 139.468 68.5813C139.573 68.5198 139.709 68.5109 139.876 68.5547C140.066 68.5952 140.234 68.6502 140.382 68.7198C140.549 68.7637 140.636 68.808 140.643 68.8528C140.668 68.8719 140.728 68.886 140.821 68.895C140.914 68.904 141.007 68.9131 141.1 68.9221C141.212 68.9054 141.273 68.9306 141.283 68.9979C141.29 69.0427 141.256 69.1968 141.18 69.4601C141.127 69.7201 141.057 70.0171 140.969 70.351C140.901 70.6592 140.84 70.9433 140.787 71.2032C140.731 71.4408 140.718 71.5803 140.747 71.6218C140.798 71.66 140.79 71.8331 140.721 72.1413C140.649 72.4271 140.56 72.7498 140.453 73.1095C140.369 73.4658 140.291 73.7869 140.219 74.0726C140.105 74.8459 139.958 75.6242 139.777 76.4075C139.592 77.1684 139.352 77.9376 139.055 78.7153C138.961 79.0044 138.821 79.4492 138.636 80.0498C138.473 80.6471 138.308 81.2332 138.142 81.808C138.001 82.4019 137.886 82.8547 137.795 83.1662C137.732 83.3589 137.639 83.6592 137.517 84.0671C137.42 84.494 137.306 84.958 137.174 85.4589C137.065 85.9564 136.951 86.4204 136.832 86.8507C136.716 87.3034 136.63 87.6485 136.574 87.8861C136.593 88.3187 136.539 88.6477 136.412 88.8728C136.322 88.8862 136.222 88.9013 136.109 88.918C136.001 88.9572 135.946 88.9767 135.946 88.9767ZM160.193 77.0725C160.052 77.0478 159.912 77.0342 159.774 77.0319C159.633 77.0071 159.492 76.9824 159.351 76.9576C159.232 76.9295 159.092 76.9159 158.932 76.917C158.661 76.6366 158.514 76.2688 158.492 75.8138C158.467 75.3363 158.496 74.8393 158.579 74.3226C158.685 73.8027 158.781 73.2956 158.868 72.8014C158.977 72.3038 159.017 71.8852 158.99 71.5456C158.954 71.4593 158.917 71.4419 158.879 71.4934C158.837 71.5225 158.82 71.5595 158.826 71.6043C158.696 71.8071 158.491 71.9639 158.209 72.0746C157.928 72.1854 157.667 72.2816 157.427 72.3632C157.011 72.4941 156.597 72.6361 156.184 72.7894C155.772 72.9426 155.372 73.1054 154.985 73.2777C154.911 73.2429 154.825 73.1986 154.725 73.1447C154.648 73.0875 154.572 73.0415 154.498 73.0067C154.341 73.0302 154.228 73.196 154.16 73.5041C154.091 73.8123 154.044 74.186 154.018 74.6254C153.988 75.0423 153.957 75.448 153.924 75.8425C153.911 76.2112 153.882 76.4791 153.838 76.646C153.486 76.7444 153.23 76.7941 153.07 76.7951C152.932 76.7928 152.664 76.764 152.266 76.7088C152.05 76.489 151.914 76.2687 151.858 76.0478C151.825 75.8236 151.821 75.572 151.849 75.293C151.884 74.7606 151.911 74.3325 151.932 74.0086C151.975 73.6813 152.06 73.2561 152.188 72.7327C152.264 72.4694 152.329 72.219 152.386 71.9814C152.461 71.7181 152.477 71.4407 152.433 71.1492C152.579 70.8983 152.666 70.6333 152.693 70.3542C152.72 70.0752 152.758 69.7944 152.808 69.512C153.029 68.5393 153.204 67.7913 153.332 67.268C153.479 66.7189 153.576 66.292 153.622 65.9871C153.668 65.6823 153.684 65.4049 153.67 65.155C153.645 64.8378 153.812 64.6524 154.171 64.5989C154.395 64.5654 154.644 64.6199 154.917 64.7625C155.188 64.8826 155.408 65.0559 155.58 65.2824C155.751 65.5089 155.801 65.7651 155.729 66.0508C155.688 66.2402 155.62 66.5484 155.523 66.9753C155.445 67.3765 155.352 67.8259 155.243 68.3235C155.153 68.7952 155.059 69.2446 154.963 69.6716C154.885 70.0728 154.815 70.3697 154.752 70.5625C154.743 70.6555 154.71 70.7406 154.653 70.8179C154.592 70.8728 154.57 70.9563 154.587 71.0684C154.761 71.157 155.025 71.1634 155.38 71.0874C155.755 70.9857 156.014 70.8783 156.157 70.7652C156.494 70.715 156.819 70.6665 157.133 70.6196C157.469 70.5694 157.805 70.5192 158.141 70.469C158.508 70.6206 158.811 70.8848 159.05 71.2615C159.144 70.8121 159.273 70.2199 159.438 69.4848C159.6 68.7272 159.753 67.9826 159.895 67.2508C160.038 66.519 160.105 65.9704 160.097 65.605C160.111 65.3966 160.174 65.2038 160.285 65.0268C160.396 64.8498 160.524 64.7048 160.667 64.5917C161.005 64.7018 161.327 64.7911 161.635 64.8597C161.963 64.9025 162.203 65.1302 162.356 65.5427C162.364 65.7479 162.349 65.9563 162.312 66.1681C162.272 66.3575 162.231 66.5469 162.191 66.7363C162.063 67.4199 161.89 68.1791 161.671 69.0139C161.449 69.8263 161.252 70.6578 161.081 71.5084C160.929 72.3332 160.849 73.1014 160.841 73.8131C160.851 73.8804 160.828 74.1129 160.773 74.5108C160.74 74.9053 160.694 75.2902 160.636 75.6657C160.6 76.0378 160.572 76.2367 160.553 76.2624C160.577 76.4194 160.553 76.5718 160.484 76.7197C160.411 76.8452 160.314 76.9628 160.193 77.0725ZM165.595 75.4067C165.478 75.2408 165.346 75.123 165.198 75.0534C165.047 74.9614 164.964 74.8706 164.951 74.7809C164.938 74.6912 164.913 74.6032 164.877 74.5169C164.861 74.4048 164.801 74.3106 164.698 74.2343C164.565 74.1165 164.531 73.8122 164.596 73.3214C164.657 72.8081 164.792 72.1805 165.002 71.4387C165.209 70.6745 165.467 69.8682 165.776 69.02C165.928 68.8139 166.072 68.5517 166.208 68.2335C166.344 67.9153 166.45 67.7047 166.526 67.6016C166.513 67.512 166.535 67.4285 166.592 67.3512C166.646 67.2515 166.718 67.1949 166.807 67.1815L166.777 66.9798C166.761 66.8677 166.833 66.6621 166.995 66.3629C167.179 66.0604 167.404 65.7288 167.671 65.3681C167.935 64.985 168.213 64.6226 168.506 64.281C168.795 63.9169 169.042 63.6509 169.246 63.4829C169.67 63.0988 170.124 62.8363 170.607 62.6954C171.112 62.5512 171.566 62.598 171.968 62.8359C172.046 62.8931 172.175 62.9885 172.355 63.122C172.535 63.2555 172.741 63.4081 172.973 63.5797C173.224 63.7256 173.477 63.8827 173.731 64.051L175.141 64.975L174.787 66.7467C174.629 67.6869 174.668 68.4833 174.903 69.1358C175.16 69.7849 175.471 70.3343 175.836 70.784C175.985 71.0139 176.244 71.2158 176.614 71.3898C177.006 71.5604 177.363 71.6447 177.683 71.6427C177.866 71.6383 178.044 71.6805 178.218 71.7692C178.391 71.8578 178.497 72.0255 178.534 72.2721C178.567 72.4962 178.549 72.6823 178.479 72.8302C178.41 72.9781 178.266 73.0912 178.049 73.1695C177.322 73.3696 176.601 73.294 175.883 72.9427C175.189 72.588 174.496 71.9352 173.804 70.9843C173.694 70.8632 173.534 70.635 173.323 70.2997C173.132 69.9387 173.017 69.7038 172.977 69.595C172.904 69.7205 172.768 69.9586 172.568 70.3093C172.365 70.6375 172.206 70.8789 172.092 71.0335C170.741 72.8852 169.525 74.1783 168.443 74.9128C167.38 75.6215 166.43 75.7862 165.595 75.4067ZM166.524 73.3429C166.547 73.4998 166.783 73.4647 167.23 73.2375C167.697 72.9845 168.177 72.592 168.67 72.06C169.335 71.2961 169.99 70.4649 170.635 69.5665C171.303 68.6647 171.822 67.8424 172.192 67.0996L172.751 65.7786C172.45 65.2964 172.152 64.9857 171.856 64.8466C171.579 64.6816 171.351 64.6125 171.172 64.6393C170.88 64.6828 170.483 65.0171 169.981 65.6421C169.501 66.2638 169.003 67.0716 168.486 68.0653C167.97 69.0591 167.501 70.1376 167.079 71.3006C166.921 71.7825 166.785 72.2497 166.669 72.7025C166.572 73.1294 166.524 73.3429 166.524 73.3429ZM184.931 72.864C184.659 73.0421 184.332 73.1483 183.947 73.1828C183.563 73.2172 183.029 73.1709 182.345 73.0438C182.3 73.0505 182.193 73.0207 182.022 72.9545C181.874 72.8849 181.712 72.7945 181.535 72.6834C181.377 72.5466 181.24 72.3952 181.123 72.2292C180.688 71.7671 180.428 71.0267 180.345 70.0078C180.262 68.989 180.395 67.7315 180.744 66.2355C180.851 65.8758 181.023 65.4147 181.26 64.8522C181.519 64.2864 181.774 63.7671 182.024 63.2943C182.293 62.7958 182.49 62.5028 182.615 62.4155C182.615 62.4155 182.731 62.3522 182.965 62.2258C183.198 62.0993 183.49 61.9067 183.841 61.648C183.946 61.5865 184.063 61.5232 184.191 61.4583C184.341 61.3901 184.493 61.333 184.646 61.2872C184.8 61.2413 184.935 61.2212 185.05 61.2269C185.502 61.1824 185.986 61.2819 186.504 61.5255C187.041 61.7433 187.496 62.0306 187.87 62.3873C188.241 62.7215 188.392 63.0427 188.323 63.3509C188.33 63.3957 188.276 63.4954 188.162 63.65C188.066 63.7789 187.95 63.9222 187.814 64.0802C187.696 64.2123 187.6 64.3412 187.527 64.4666C187.435 64.6179 187.287 64.6974 187.082 64.7051C186.899 64.7094 186.718 64.6448 186.537 64.5113C186.376 64.3521 186.264 64.1396 186.201 63.8739C186.13 63.7013 185.937 63.5582 185.622 63.4448C185.329 63.328 185.183 63.2697 185.183 63.2697C185.004 63.2964 184.771 63.5031 184.485 63.8895C184.218 64.2502 183.961 64.6782 183.714 65.1734C183.371 65.6372 183.095 66.171 182.887 66.775C182.676 67.3565 182.518 67.9073 182.412 68.4273C182.326 68.9215 182.264 69.2745 182.226 69.4863C182.17 69.7239 182.206 70.0394 182.333 70.4329C182.461 70.8264 182.576 71.0613 182.679 71.1376C182.776 71.169 183.001 71.1467 183.357 71.0708C183.735 70.9915 184.176 70.8797 184.682 70.7355C185.184 70.5688 185.673 70.3927 186.15 70.2069C186.626 70.0212 187.011 69.8377 187.305 69.6563C187.691 69.3237 188.038 69.1116 188.345 69.0199C188.652 68.9282 188.887 68.8931 189.051 68.9145C189.311 68.9673 189.475 69.0689 189.543 69.2191C189.611 69.3694 189.582 69.5571 189.455 69.7823C189.325 69.985 189.085 70.2157 188.734 70.4744C188.402 70.7073 188.107 70.9576 187.849 71.2253C187.61 71.4672 187.499 71.6442 187.516 71.7563C187.426 71.7697 187.33 71.8184 187.228 71.9023C187.145 71.9606 187.068 71.9835 186.998 71.9711C186.953 71.9778 186.778 72.0382 186.475 72.1523C186.171 72.2664 185.857 72.3934 185.535 72.5333C185.234 72.6698 185.033 72.7801 184.931 72.864ZM44.7808 128.54C44.4894 128.584 44.2456 128.563 44.0495 128.477C43.8759 128.389 43.6507 128.262 43.374 128.097C42.8811 127.712 42.5148 127.331 42.2753 126.955C42.0323 126.555 41.916 126.16 41.9264 125.769C41.9669 125.58 41.9642 125.408 41.9184 125.255C41.8916 125.075 41.8782 124.986 41.8782 124.986C41.7494 124.89 41.7057 124.828 41.7472 124.799C41.7854 124.747 41.8201 124.674 41.8516 124.577C41.9861 124.557 42.0125 124.427 41.9309 124.187C41.8593 124.015 41.8904 123.609 42.0242 122.97C42.158 122.331 42.3529 121.718 42.6089 121.13C42.7099 120.885 42.8682 120.564 43.0837 120.165C43.2958 119.744 43.532 119.33 43.7923 118.925C44.0717 118.493 44.3292 118.146 44.5647 117.881C45.0549 117.327 45.4962 116.906 45.8887 116.618C46.2812 116.33 46.7157 116.093 47.1922 115.908C47.6686 115.722 47.9965 115.616 48.1759 115.589C48.3776 115.559 48.6734 115.698 49.0633 116.006C49.6123 116.154 50.0224 116.367 50.2934 116.648C50.5869 116.925 50.8124 117.361 50.97 117.956C51.1377 118.619 51.1971 119.401 51.1483 120.302C51.1185 121.177 50.7506 122.321 50.0446 123.732C49.6047 124.623 49.1794 125.305 48.7689 125.779C48.355 126.23 47.8514 126.695 47.2582 127.173C46.8342 127.557 46.4434 127.856 46.0857 128.07C45.7247 128.262 45.2897 128.418 44.7808 128.54ZM47.4769 124.494C47.9246 123.808 48.2652 123.173 48.4988 122.588C48.7547 122 48.9665 121.269 49.1341 120.396C49.187 120.136 49.1978 119.825 49.1667 119.463C49.1322 119.079 49.0692 118.733 48.9775 118.426C48.9049 118.093 48.798 117.914 48.6568 117.889C48.3643 117.772 48.0325 117.776 47.6615 117.9C47.2871 118.002 46.9041 118.277 46.5126 118.725C45.9047 119.411 45.4082 120.23 45.023 121.182C44.6346 122.111 44.2758 123.161 43.9465 124.333C43.7307 125.19 43.7493 125.852 44.0023 126.319C44.2743 126.759 44.7142 126.866 45.3218 126.637C45.9485 126.383 46.6669 125.669 47.4769 124.494ZM54.5489 127.529C54.4682 127.449 54.3909 127.392 54.317 127.357C54.2397 127.3 54.1512 127.244 54.0515 127.191C53.9708 127.111 53.842 127.016 53.665 126.905C53.6024 126.639 53.5808 126.264 53.6002 125.78C53.642 125.292 53.6951 124.803 53.7593 124.312C53.8235 123.821 53.8838 123.457 53.94 123.22C53.94 123.22 53.9676 123.021 54.0228 122.623C54.1004 122.222 54.1887 121.739 54.2877 121.174C54.3834 120.587 54.4808 120.011 54.5798 119.446C54.6979 118.855 54.7862 118.372 54.8448 117.997C54.9224 117.596 54.9612 117.395 54.9612 117.395C54.9927 117.299 55.0017 117.206 54.9883 117.116C54.9716 117.004 54.9515 116.869 54.9281 116.712C54.8006 116.319 54.789 116.011 54.8934 115.789C55.0202 115.564 55.1117 115.333 55.1679 115.095C55.4179 115.081 55.586 115.056 55.6723 115.02C55.7811 114.981 55.9077 114.985 56.0523 115.032C56.2126 115.031 56.5119 114.963 56.9502 114.829C57.3885 114.695 57.8235 114.538 58.2551 114.359C58.7092 114.177 59.0096 114.04 59.1565 113.95C59.4704 113.903 59.7714 113.847 60.0595 113.781C60.37 113.711 60.6743 113.677 60.9724 113.679C61.3535 113.622 61.7099 113.706 62.0415 113.932C62.3731 114.157 62.6066 114.34 62.7421 114.48C62.7107 114.577 62.668 114.675 62.6142 114.774C62.5794 114.848 62.5446 114.922 62.5098 114.996C62.475 115.07 62.429 115.146 62.3718 115.223C62.2372 115.243 61.957 115.285 61.5311 115.349C61.1051 115.412 60.6489 115.503 60.1624 115.622C59.6983 115.737 59.3177 115.874 59.0206 116.033C58.7425 116.166 58.437 116.269 58.1041 116.341C57.7902 116.388 57.5072 116.488 57.2549 116.64C57.1595 116.769 57.0809 117.01 57.019 117.363C56.9571 117.716 56.9081 118.078 56.872 118.45C56.8358 118.822 56.7975 119.103 56.7571 119.293C56.7537 119.27 56.7099 119.437 56.6256 119.793C56.5637 120.146 56.4861 120.548 56.3927 120.997C56.3218 121.443 56.2616 121.807 56.2121 122.09C56.1425 122.238 56.0689 122.512 55.9912 122.913C55.9136 123.315 55.8472 123.714 55.792 124.112C55.7368 124.51 55.7002 124.802 55.6821 124.988C55.6527 125.405 55.6008 125.825 55.5265 126.248C55.4489 126.65 55.3377 127.056 55.1928 127.467C55.1031 127.48 55.0023 127.496 54.8902 127.512C54.7747 127.507 54.661 127.512 54.5489 127.529ZM64.8286 132.079C64.5864 132.299 64.3045 132.329 63.9829 132.171C63.6838 132.009 63.4368 131.737 63.2421 131.353C63.0473 130.97 62.995 130.542 63.085 130.07C63.1097 129.929 63.1435 129.695 63.1863 129.368C63.2325 129.063 63.2501 128.797 63.239 128.569C63.238 128.409 63.2651 128.13 63.3203 127.732C63.3788 127.357 63.4486 126.98 63.5296 126.601C63.6329 126.219 63.7178 125.942 63.784 125.772C63.8851 125.528 63.9362 125.257 63.9376 124.959C63.9613 124.657 63.9615 124.428 63.9381 124.271C63.9595 124.107 63.9887 123.92 64.0259 123.708C64.0854 123.493 64.1517 123.322 64.2246 123.197C64.2427 123.011 64.2815 122.81 64.3411 122.595C64.3973 122.357 64.4697 122.152 64.5584 121.978C64.5798 121.815 64.585 121.619 64.5739 121.391C64.5853 121.161 64.6341 121.027 64.7205 120.991C64.7295 120.898 64.7273 120.807 64.7139 120.717C64.723 120.624 64.7494 120.494 64.7932 120.327C64.8012 120.074 64.8486 119.7 64.9352 119.206C65.0219 118.712 65.1355 118.168 65.276 117.574C65.4255 116.887 65.4456 116.254 65.3362 115.674C65.2458 115.069 65.0225 114.724 64.6661 114.64C64.4734 114.577 64.3429 114.47 64.2746 114.32C64.203 114.148 64.1986 113.965 64.2615 113.772C64.3244 113.579 64.4406 113.436 64.6099 113.342C64.7982 113.222 65.0062 113.157 65.2337 113.146C65.4837 113.131 65.7033 113.144 65.8927 113.185C66.0788 113.203 66.1639 113.236 66.1482 113.284C66.1649 113.396 66.231 113.455 66.3464 113.461C66.3812 113.387 66.4826 113.452 66.6506 113.656C66.8377 113.834 67.0185 114.048 67.1932 114.297C67.3678 114.546 67.4635 114.726 67.4803 114.839C67.4488 114.935 67.4348 114.994 67.4381 115.017C67.4381 115.017 67.483 115.01 67.5726 114.997C67.5726 114.997 67.6876 114.922 67.9174 114.773C68.144 114.602 68.38 114.418 68.6256 114.221C68.8903 113.998 69.0607 113.835 69.137 113.732C69.137 113.732 69.1897 113.701 69.2951 113.639C69.4196 113.552 69.52 113.457 69.5963 113.354C70.0179 113.108 70.4948 113.002 71.0272 113.037C71.582 113.069 72.038 113.207 72.3954 113.452C72.9274 113.945 73.2319 114.45 73.3089 114.965C73.4083 115.478 73.3596 116.15 73.1629 116.981C73.1348 117.1 73.0623 117.305 72.9456 117.598C72.8479 117.865 72.7485 118.12 72.6475 118.364C72.5431 118.586 72.4909 118.697 72.4909 118.697C72.0957 119.581 71.5908 120.344 70.9762 120.986C70.3615 121.628 69.7256 122.204 69.0685 122.714C68.8677 122.905 68.6507 123.063 68.4175 123.19C68.2034 123.29 68.0083 123.365 67.8323 123.415C67.653 123.441 67.5263 123.437 67.4524 123.403C67.179 123.26 66.8979 122.912 66.6091 122.36C66.5406 122.668 66.472 122.976 66.4034 123.284C66.3539 123.567 66.3246 123.754 66.3156 123.847C66.3166 124.008 66.3142 124.145 66.3085 124.261C66.2995 124.354 66.2552 124.441 66.1755 124.521C66.1755 124.521 66.171 124.568 66.162 124.661C66.153 124.754 66.0946 124.9 65.9868 125.1C65.8597 125.783 65.7416 126.374 65.6325 126.871C65.5268 127.391 65.443 127.828 65.3811 128.181C65.3226 128.556 65.2798 128.883 65.2527 129.162C65.2982 129.774 65.2636 130.387 65.1488 131C65.0374 131.635 64.9307 131.995 64.8286 132.079ZM67.3996 121.898C67.4826 121.84 67.6548 121.688 67.9161 121.443C68.1965 121.172 68.5055 120.862 68.8431 120.514C69.1773 120.143 69.4813 119.8 69.755 119.484C70.0511 119.164 70.2452 118.929 70.3372 118.778C70.4864 118.549 70.6228 118.311 70.7462 118.064C70.8664 117.794 70.9495 117.506 70.9957 117.201C71.0361 117.012 71.0845 116.799 71.1407 116.561C71.1969 116.323 71.2436 116.099 71.2807 115.887C71.3436 115.694 71.3505 115.51 71.3013 115.334C71.2712 115.132 71.1788 114.974 71.0242 114.86C70.9312 114.851 70.6722 114.958 70.2473 115.182C69.819 115.383 69.3609 115.692 68.8731 116.109C68.3819 116.503 67.973 116.988 67.6465 117.564C67.266 118.239 67.0123 118.919 66.8851 119.603C66.7804 120.283 66.7727 120.846 66.8621 121.291C66.9738 121.732 67.153 121.935 67.3996 121.898ZM79.8646 122.512C79.4072 122.672 79.1095 122.751 78.9717 122.749C78.8529 122.721 78.6535 122.613 78.3734 122.425C77.9879 122.3 77.6518 122.121 77.3651 121.888C77.1007 121.653 76.8908 121.398 76.7352 121.123C76.5986 120.823 76.5265 120.57 76.5188 120.365C76.4689 119.57 76.534 118.701 76.714 117.757C76.894 116.814 77.1463 115.894 77.4708 114.997C77.7954 114.101 78.1719 113.323 78.6005 112.663C79.0482 111.977 79.5053 111.508 79.9717 111.255C80.3933 111.009 80.8092 110.878 81.2194 110.863C81.6297 110.847 81.9529 111.017 82.1891 111.371C82.6224 111.971 82.6059 112.397 82.1395 112.65C82.0722 112.66 81.9988 112.706 81.9191 112.786C81.8361 112.845 81.8013 112.918 81.8147 113.008C81.9111 113.04 82.1594 113.014 82.5596 112.931C82.9564 112.826 83.3499 112.699 83.74 112.549C84.1492 112.373 84.4127 112.219 84.5305 112.087C84.655 112 84.7508 111.951 84.8181 111.941C84.8854 111.931 85.0568 111.928 85.3325 111.933C85.7304 111.988 85.941 112.094 85.9645 112.251C85.9778 112.341 86.0249 112.426 86.1055 112.505C86.1828 112.562 86.2663 112.584 86.3559 112.571C86.5162 112.57 86.5089 112.674 86.3339 112.884C86.1813 113.09 85.9042 113.383 85.5027 113.764C85.1169 114.097 84.8747 114.316 84.776 114.422C84.6964 114.503 84.7086 114.662 84.8126 114.898C85.0556 115.297 85.1404 115.789 85.0671 116.373C84.9939 116.957 84.799 117.57 84.4825 118.213C84.1659 118.856 83.7547 119.479 83.2488 120.082C82.762 120.659 82.2203 121.175 81.6237 121.631C81.0462 122.061 80.4598 122.355 79.8646 122.512ZM79.072 121.118C79.1617 121.105 79.3119 121.036 79.5227 120.913C79.7302 120.768 79.8961 120.651 80.0206 120.564C80.0969 120.461 80.1939 120.343 80.3117 120.211C80.4485 120.053 80.5601 119.956 80.6465 119.92C80.7361 119.907 80.8432 119.857 80.9677 119.769C81.0888 119.66 81.2543 119.463 81.464 119.18C81.6705 118.874 81.937 118.433 82.2635 117.857C82.6383 117.297 82.9188 116.797 83.1052 116.356C83.2882 115.894 83.2969 115.491 83.1313 115.149C83.0955 115.063 83.0198 115.017 82.9044 115.011C82.8114 115.002 82.6797 114.965 82.5094 114.898C82.2852 114.932 82.0639 114.908 81.8454 114.826C81.646 114.718 81.4079 114.581 81.1312 114.417L80.4927 113.824L80.0064 114.481C79.7013 114.894 79.4005 115.488 79.104 116.266C78.8267 117.018 78.6087 117.784 78.4501 118.564C78.2882 119.321 78.2166 119.916 78.2353 120.349C78.2631 120.689 78.3526 120.905 78.5039 120.997C78.6551 121.089 78.8445 121.129 79.072 121.118ZM101.599 119.68C101.525 119.646 101.369 119.6 101.132 119.544C100.913 119.462 100.78 119.413 100.732 119.397C100.555 119.286 100.44 119.131 100.387 118.933C100.335 118.735 100.29 118.512 100.253 118.265C100.239 118.016 100.178 117.761 100.071 117.502C100.091 117.178 100.105 116.809 100.112 116.396C100.119 115.982 100.182 115.641 100.302 115.37C100.335 114.976 100.403 114.508 100.505 113.965C100.627 113.397 100.727 112.843 100.807 112.304C100.906 111.74 100.95 111.263 100.938 110.875C100.613 111.153 100.335 111.447 100.107 111.756C99.8778 112.065 99.6937 112.367 99.5546 112.663C99.485 112.811 99.4008 112.938 99.3021 113.045C99.2001 113.129 99.1013 113.235 99.006 113.364C98.7805 113.696 98.5678 114.037 98.3681 114.387C98.1683 114.738 97.9703 115.1 97.7739 115.473C97.454 116.094 97.0714 116.678 96.626 117.226C96.1807 117.773 95.7578 118.318 95.3573 118.859C95.208 119.087 95.0264 119.252 94.8122 119.353C94.6171 119.428 94.412 119.435 94.1969 119.376C93.9111 119.304 93.6669 119.203 93.4641 119.073C93.2837 118.939 93.0821 118.74 92.8593 118.475C92.7699 118.03 92.7602 117.505 92.8301 116.898C92.9225 116.289 93.0356 115.665 93.1694 115.026C93.3256 114.384 93.4549 113.791 93.5573 113.249C93.6564 112.684 93.6824 112.245 93.6356 111.931C93.6098 111.912 93.5745 111.906 93.5297 111.913C93.5073 111.916 93.477 111.943 93.4388 111.995C92.5987 112.968 91.8997 113.966 91.342 114.989C90.8066 116.009 90.2756 117.211 89.749 118.596C89.6199 118.959 89.5041 119.412 89.4017 119.954C89.3184 120.471 89.1382 120.876 88.8612 121.169C88.8388 121.173 88.8164 121.176 88.7939 121.179C88.7906 121.157 88.7777 121.147 88.7553 121.151C88.7262 121.109 88.6926 121.114 88.6544 121.166C88.6163 121.217 88.554 121.261 88.4677 121.297C88.3556 121.313 88.2352 121.274 88.1063 121.179C87.926 121.045 87.7344 120.913 87.5316 120.783C87.3513 120.65 87.2108 120.476 87.11 120.262C87.1281 120.076 87.1607 119.911 87.2079 119.766C87.2517 119.599 87.3483 119.401 87.4975 119.173C87.5313 118.938 87.5908 118.723 87.6761 118.527C87.7839 118.328 87.8659 118.109 87.9221 117.872C88.0592 117.255 88.3175 116.529 88.6969 115.693C89.0764 114.858 89.5359 114.021 90.0756 113.184C90.6153 112.348 91.1908 111.597 91.8021 110.933C92.4134 110.269 93.0067 109.791 93.5818 109.498C93.6043 109.495 93.6155 109.493 93.6155 109.493C93.6379 109.49 93.6603 109.487 93.6827 109.483C93.9169 109.517 94.1304 109.565 94.3231 109.628C94.5125 109.669 94.7148 109.719 94.9299 109.778C95.0364 109.877 95.159 110.008 95.2979 110.17C95.4334 110.311 95.5369 110.467 95.6085 110.64C95.7384 110.895 95.7841 111.278 95.7456 111.788C95.7071 112.298 95.6462 112.811 95.5629 113.328C95.4796 113.844 95.4037 114.257 95.3351 114.565C95.3261 114.658 95.276 114.86 95.185 115.172C95.094 115.483 95.049 115.719 95.05 115.88C95.0534 115.902 95.0567 115.924 95.0601 115.947C95.0634 115.969 95.078 115.99 95.1037 116.009C95.4122 115.619 95.7079 115.22 95.9906 114.811C96.2957 114.399 96.5673 113.992 96.8051 113.589C97.3796 112.679 97.9637 111.755 98.5572 110.818C99.1699 109.856 99.8956 109.037 100.734 108.362C100.942 108.216 101.203 108.2 101.518 108.314C101.855 108.424 102.116 108.557 102.299 108.713C102.576 108.878 102.751 109.127 102.823 109.46C102.935 109.901 102.971 110.526 102.931 111.334C102.888 112.12 102.8 112.912 102.667 113.711C102.557 114.507 102.434 115.144 102.3 115.622C102.271 115.741 102.251 115.836 102.239 115.906C102.226 115.977 102.219 116.081 102.217 116.219C102.218 116.379 102.196 116.543 102.152 116.71C102.131 116.874 102.108 117.026 102.083 117.167C102.059 117.469 102.092 117.762 102.18 118.047C102.291 118.328 102.379 118.613 102.445 118.901C102.449 118.923 102.42 118.962 102.359 119.017C102.238 119.127 102.117 119.236 101.996 119.346C101.894 119.43 101.784 119.538 101.666 119.67C101.644 119.674 101.633 119.675 101.633 119.675C101.633 119.675 101.621 119.677 101.599 119.68ZM114.154 106.496C114.442 106.27 114.758 106.165 115.105 106.182C115.448 106.177 115.727 106.284 115.943 106.504C116.179 106.698 116.256 106.985 116.175 107.363C116.199 107.222 116.157 107.32 116.047 107.657C115.956 107.969 115.833 108.377 115.679 108.881C115.548 109.382 115.424 109.859 115.308 110.312C115.212 110.739 115.146 110.989 115.111 111.063L115.126 111.164C115.485 111.11 115.715 111.191 115.815 111.405C115.935 111.593 116.004 111.823 116.022 112.096C115.759 112.181 115.581 112.288 115.485 112.417C115.386 112.523 115.249 112.601 115.073 112.65C115.006 112.66 114.932 112.705 114.853 112.786C114.773 112.867 114.729 112.953 114.72 113.046C114.707 113.117 114.68 113.396 114.639 113.884C114.616 114.345 114.577 114.855 114.523 115.413C114.488 115.946 114.446 116.353 114.396 116.636C114.378 116.822 114.31 116.981 114.192 117.113C114.071 117.223 113.99 117.292 113.948 117.321C113.473 117.209 113.154 117.142 112.99 117.12C112.846 117.073 112.698 117.004 112.547 116.912C112.504 116.78 112.481 116.624 112.476 116.441C112.469 116.236 112.49 115.992 112.539 115.71C112.601 115.357 112.644 115.029 112.668 114.728C112.71 114.401 112.735 113.95 112.741 113.376C112.644 113.345 112.454 113.373 112.169 113.462C111.903 113.524 111.617 113.601 111.31 113.693C111.003 113.785 110.74 113.87 110.523 113.948C110.328 114.023 110.24 114.047 110.259 114.022C110.153 114.083 109.946 114.149 109.635 114.218C109.344 114.261 109.039 114.295 108.722 114.32C108.424 114.319 108.204 114.306 108.063 114.281L107.876 114.412C107.887 114.639 107.837 114.991 107.724 115.466C107.609 115.918 107.579 116.335 107.636 116.717C107.657 117.011 107.656 117.309 107.632 117.611C107.608 117.912 107.609 118.222 107.633 118.539C107.684 119.035 107.595 119.358 107.365 119.507C107.158 119.653 106.798 119.626 106.287 119.427C106.165 119.377 106.042 119.315 105.916 119.242C105.813 119.166 105.697 119.08 105.568 118.985L105.72 116.315C105.763 115.988 105.798 115.685 105.825 115.406C105.848 115.104 105.885 114.812 105.935 114.53C106.04 114.01 106.133 113.48 106.213 112.941C106.315 112.399 106.445 111.887 106.602 111.405C106.602 111.405 106.619 111.288 106.653 111.054C106.706 110.794 106.767 110.509 106.835 110.201C106.901 109.871 106.953 109.611 106.994 109.421C107.034 109.232 107.041 109.197 107.012 109.315C107.06 109.171 107.122 108.898 107.2 108.497C107.274 108.073 107.34 107.674 107.399 107.298C107.477 106.897 107.514 106.685 107.51 106.663C107.535 106.522 107.589 106.422 107.672 106.364C107.752 106.283 107.859 106.233 107.993 106.213C108.371 106.133 108.698 106.176 108.975 106.341C109.248 106.484 109.416 106.688 109.479 106.953C109.476 107.091 109.484 107.216 109.5 107.328C109.517 107.44 109.508 107.533 109.473 107.607L108.362 112.139L108.402 112.408C108.647 112.509 108.975 112.483 109.388 112.33C109.819 112.151 110.147 112.045 110.371 112.011C110.48 111.972 110.734 111.911 111.135 111.828C111.557 111.742 111.959 111.671 112.34 111.614C112.744 111.554 112.958 111.533 112.984 111.552C113.13 110.843 113.261 110.182 113.376 109.569C113.487 108.933 113.675 108.275 113.94 107.594C113.956 107.546 113.979 107.393 114.009 107.137C114.062 106.877 114.111 106.663 114.154 106.496ZM125.627 116.54C124.895 116.856 124.372 117.037 124.058 117.084C123.744 117.131 123.384 117.024 122.979 116.764C122.85 116.668 122.766 116.566 122.727 116.458C122.684 116.326 122.617 116.256 122.524 116.247C122.478 116.094 122.471 115.969 122.502 115.872C122.553 115.75 122.683 115.628 122.894 115.505C123.26 115.656 123.695 115.649 124.197 115.482C124.699 115.315 125.175 115.049 125.625 114.684C126.094 114.294 126.442 113.863 126.67 113.394C127.038 112.789 127.31 112.233 127.486 111.725C127.659 111.195 127.729 110.738 127.694 110.353C127.661 110.129 127.604 109.977 127.523 109.898C127.461 109.792 127.324 109.641 127.111 109.443C126.728 109.638 126.381 109.85 126.072 110.08C125.785 110.306 125.555 110.535 125.384 110.767C124.795 111.428 124.337 111.966 124.009 112.382C123.704 112.794 123.444 113.199 123.228 113.598C123.035 113.994 122.793 114.523 122.503 115.185C122.357 115.436 122.214 115.629 122.073 115.765C121.956 115.897 121.818 115.974 121.661 115.998C121.796 116.436 121.679 116.729 121.311 116.875C120.801 116.837 120.421 116.745 120.17 116.599C119.915 116.43 119.791 116.059 119.797 115.486C119.84 115.158 119.875 114.775 119.901 114.336C119.923 113.874 119.969 113.489 120.038 113.181C120.361 111.666 120.642 110.318 120.878 109.136C121.136 107.952 121.387 107.101 121.631 106.583L122.085 104.556C122.469 104.522 122.772 104.557 122.994 104.661C123.213 104.743 123.49 104.988 123.826 105.396C123.843 105.508 123.779 105.85 123.635 106.422C123.51 106.967 123.352 107.598 123.161 108.314C122.993 109.027 122.829 109.693 122.669 110.313C122.529 110.907 122.43 111.323 122.374 111.56C122.321 111.82 122.382 111.765 122.556 111.395C122.752 111.022 123.114 110.533 123.643 109.927C123.891 109.592 124.209 109.269 124.598 108.959C124.984 108.627 125.313 108.371 125.584 108.193C125.878 108.012 126.124 107.895 126.322 107.842C126.521 107.79 126.663 107.746 126.749 107.71C127.31 107.626 127.78 107.705 128.16 107.946C128.536 108.165 128.818 108.444 129.007 108.782C129.217 109.118 129.339 109.397 129.372 109.622C129.493 109.97 129.59 110.311 129.663 110.644C129.754 110.951 129.782 111.291 129.746 111.663C129.705 111.852 129.619 112.117 129.486 112.458C129.354 112.798 129.189 113.155 128.993 113.528C128.816 113.876 128.585 114.174 128.301 114.422C128.13 114.654 127.893 114.907 127.59 115.182C127.287 115.456 126.96 115.723 126.609 115.981C126.277 116.214 125.95 116.401 125.627 116.54ZM132.702 116.034C132.291 116.05 131.937 115.977 131.638 115.815C131.358 115.628 131.13 115.329 130.954 114.92C130.897 114.539 130.89 114.185 130.933 113.858C130.995 113.505 131.036 113.166 131.056 112.842C131.092 112.31 131.171 111.771 131.296 111.225C131.421 110.679 131.523 110.137 131.603 109.598C131.691 109.264 131.758 108.945 131.804 108.64C131.85 108.335 131.896 108.03 131.943 107.725C132.001 107.35 132.061 106.986 132.123 106.633C132.185 106.28 132.247 105.927 132.309 105.574C132.355 105.269 132.377 104.956 132.375 104.636C132.396 104.312 132.405 103.989 132.403 103.669C132.609 103.363 132.862 103.211 133.16 103.212C133.48 103.21 133.9 103.411 134.418 103.815C134.571 104.067 134.664 104.305 134.697 104.53C134.727 104.731 134.703 104.953 134.624 105.194C134.565 105.409 134.487 105.73 134.39 106.157C134.316 106.58 134.23 107.006 134.133 107.433C134.056 107.834 133.998 108.14 133.961 108.352C133.953 108.605 133.89 109.027 133.772 109.618C133.676 110.205 133.573 110.817 133.461 111.452C133.347 112.065 133.271 112.557 133.235 112.93C133.151 113.286 133.098 113.626 133.078 113.95C133.058 114.274 133.049 114.676 133.052 115.157C133.127 115.352 133.118 115.525 133.026 115.676C132.953 115.802 132.845 115.921 132.702 116.034ZM145.567 113.942C145.423 114.055 145.205 114.053 144.913 113.936C144.643 113.816 144.361 113.618 144.067 113.341C143.87 113.095 143.715 112.82 143.601 112.517C143.509 112.209 143.421 111.776 143.338 111.215C143.293 110.763 143.227 110.475 143.14 110.351C143.075 110.223 142.955 110.264 142.78 110.473C142.602 110.66 142.303 111.037 141.883 111.604C141.406 112.248 140.934 112.766 140.465 113.157C140.018 113.544 139.637 113.75 139.319 113.774C139.163 113.798 138.971 113.746 138.746 113.619C138.54 113.467 138.34 113.279 138.147 113.056C137.949 112.81 137.775 112.561 137.623 112.309C137.414 111.836 137.298 111.211 137.274 110.436C137.269 109.635 137.326 108.789 137.446 107.901C137.565 107.012 137.725 106.163 137.925 105.354C138.147 104.542 138.392 103.875 138.658 103.354C138.946 102.83 139.225 102.547 139.494 102.507C139.673 102.48 139.844 102.547 140.005 102.706C140.189 102.862 140.387 103.119 140.601 103.476C140.714 103.62 140.768 103.749 140.762 103.865C140.779 103.977 140.709 104.125 140.553 104.309C140.392 104.608 140.217 105.046 140.028 105.625C139.862 106.199 139.702 106.819 139.549 107.484C139.419 108.145 139.307 108.78 139.215 109.39C139.123 110 139.071 110.5 139.061 110.891C139.047 111.26 139.085 111.437 139.175 111.424C139.489 111.377 139.84 111.199 140.229 110.889C140.638 110.553 141.015 110.164 141.362 109.723C141.762 109.182 142.1 108.604 142.375 107.99C142.672 107.373 142.965 106.722 143.252 106.037C143.477 105.545 143.706 105.007 143.939 104.422C144.195 103.834 144.351 103.421 144.408 103.183C144.634 102.553 144.811 102.126 144.938 101.901C145.061 101.653 145.23 101.479 145.444 101.378C145.557 101.362 145.657 101.347 145.747 101.333C145.859 101.316 145.915 101.308 145.915 101.308C146.053 101.31 146.225 101.388 146.431 101.54C146.624 101.603 146.738 101.678 146.774 101.764C146.806 101.828 146.831 101.916 146.848 102.028C146.792 102.266 146.696 102.624 146.561 103.102C146.445 103.555 146.358 103.889 146.298 104.104C146.016 105.132 145.732 106.148 145.447 107.153C145.181 108.133 145.03 109.118 144.994 110.108C144.996 110.429 145.04 110.801 145.126 111.223C145.232 111.62 145.342 111.901 145.459 112.067C145.546 112.192 145.648 112.337 145.764 112.503C145.9 112.643 146.043 112.759 146.195 112.851C146.416 112.956 146.472 113.096 146.361 113.273C146.272 113.447 146.135 113.605 145.95 113.747C145.762 113.867 145.634 113.932 145.567 113.942ZM143.046 100.052C142.365 100.245 141.752 100.131 141.207 99.7076C140.663 99.2847 140.195 98.6096 139.805 97.6825C139.733 97.5098 139.688 97.3562 139.667 97.2217C139.666 97.0614 139.691 96.9202 139.742 96.7981C139.773 96.7017 139.853 96.6211 139.981 96.5562C140.105 96.4689 140.215 96.4409 140.312 96.4724C140.642 96.5376 140.888 96.6499 141.05 96.8091C141.23 96.9426 141.361 97.1293 141.443 97.3692C141.504 97.4746 141.543 97.5834 141.56 97.6955C141.599 97.8042 141.617 97.8474 141.614 97.825C141.779 98.1669 141.962 98.3918 142.161 98.4995C142.361 98.6072 142.628 98.5559 142.963 98.3454C143.321 98.1316 143.664 97.897 143.993 97.6417C144.344 97.3831 144.643 97.0863 144.891 96.7513C145.101 96.4679 145.303 96.2086 145.497 95.9734C145.713 95.7348 145.917 95.4867 146.108 95.229L146.136 95.1904C146.216 95.1097 146.325 95.0706 146.463 95.0729C146.6 95.0753 146.684 95.0972 146.713 95.1387C146.893 95.2722 146.995 95.4174 147.019 95.5743C147.042 95.7312 147.067 95.8994 147.094 96.0787L147.07 96.151C147.135 96.2788 147.062 96.5533 146.85 96.9746C146.66 97.3925 146.406 97.7628 146.087 98.0853C145.81 98.3788 145.507 98.6532 145.179 98.9085C144.85 99.1638 144.509 99.4096 144.154 99.6458C144.011 99.7589 143.851 99.84 143.675 99.8892C143.518 99.9127 143.309 99.9669 143.046 100.052ZM162.617 111.362C162.281 111.413 161.851 111.454 161.329 111.486C160.829 111.515 160.356 111.264 159.911 110.735C159.629 110.387 159.396 109.975 159.21 109.499C159.047 109.019 158.995 108.672 159.055 108.456C159.111 106.683 159.18 105.458 159.262 104.782C159.345 104.105 159.39 103.72 159.399 103.627C159.431 103.53 159.489 103.304 159.573 102.948C159.676 102.565 159.733 102.328 159.742 102.235C159.8 101.859 159.774 101.451 159.662 101.009C159.613 100.833 159.6 100.675 159.625 100.533C159.669 100.366 159.75 100.217 159.868 100.085C160.205 99.7364 160.451 99.3101 160.605 98.8059C160.649 98.6389 160.732 98.3515 160.854 97.9436C160.996 97.5099 161.139 97.0875 161.284 96.6763C161.448 96.2393 161.574 95.9339 161.663 95.7603C161.955 95.2584 162.209 94.7391 162.427 94.2024C162.664 93.6399 162.978 93.1346 163.37 92.6866C163.588 92.1499 163.89 91.6463 164.279 91.1758C164.663 90.683 165.053 90.2237 165.448 89.7981C165.843 89.3725 166.155 89.0051 166.384 88.6959C166.479 88.5671 166.766 88.421 167.246 88.2577C167.745 88.0686 168.145 87.9058 168.445 87.7693C168.57 87.682 168.836 87.6995 169.244 87.822C169.648 87.922 169.944 88.0612 170.131 88.2396C170.496 88.6893 170.725 89.0677 170.816 89.3749C170.93 89.6787 170.941 90.0553 170.848 90.5046C170.773 90.9282 170.598 91.5961 170.322 92.5083C170.007 93.4719 169.495 94.4192 168.786 95.3501C168.096 96.2552 167.369 97.0628 166.604 97.7728C166.235 98.2175 165.839 98.6319 165.415 99.016C165.013 99.3968 164.595 99.7457 164.161 100.063C163.893 100.263 163.612 100.454 163.319 100.635C163.047 100.813 162.763 100.982 162.466 101.141C162.316 101.209 162.183 101.32 162.069 101.475C161.951 101.607 161.864 101.792 161.808 102.03C161.72 102.363 161.682 102.644 161.693 102.872C161.723 103.074 161.681 103.252 161.567 103.406C161.509 103.484 161.449 103.768 161.384 104.259C161.339 104.724 161.285 105.282 161.222 105.933C161.178 106.558 161.151 107.147 161.142 107.698C161.129 108.227 161.147 108.58 161.196 108.756C161.235 108.864 161.276 108.984 161.319 109.115C161.38 109.221 161.495 109.295 161.662 109.339C161.988 109.222 162.24 109.07 162.418 108.883C162.593 108.673 162.783 108.404 162.986 108.076C163.204 107.7 163.397 107.304 163.565 106.889C163.754 106.472 163.898 106.049 163.994 105.622C164.047 105.362 164.076 105.094 164.081 104.819C164.082 104.52 164.122 104.251 164.201 104.01C164.124 103.494 164.056 103.115 163.996 102.872C163.956 102.603 163.902 102.393 163.834 102.243C163.784 102.067 163.698 101.873 163.575 101.663C163.738 101.524 163.825 101.419 163.838 101.348C163.872 101.274 163.972 101.248 164.135 101.27C164.437 101.293 164.723 101.365 164.993 101.485C165.285 101.602 165.573 101.765 165.856 101.975C165.959 102.052 166.029 102.133 166.065 102.219C166.1 102.305 166.104 102.408 166.076 102.527C166.094 102.799 166.1 103.073 166.096 103.349C166.11 103.599 166.136 103.847 166.173 104.094C166.059 104.409 166.005 104.738 166.011 105.081C166.013 105.401 165.981 105.727 165.916 106.057C165.825 106.369 165.734 106.68 165.643 106.992C165.552 107.303 165.435 107.596 165.292 107.869C165.097 108.402 164.848 108.886 164.547 109.321C164.267 109.752 163.96 110.153 163.626 110.524L162.617 111.362ZM162.311 98.723C162.587 98.7277 162.779 98.7104 162.888 98.6713C163.016 98.6064 163.134 98.4742 163.241 98.2748C164.191 97.4225 165.053 96.5949 165.827 95.7918C166.598 94.9663 167.228 94.1962 167.717 93.4815C168.225 92.741 168.532 92.1108 168.638 91.5908C168.713 91.3275 168.801 91.0737 168.902 90.8294C169.026 90.5818 169.088 90.3089 169.089 90.0108L168.814 89.0893C168.23 89.4745 167.766 89.8188 167.422 90.1223C167.1 90.4224 166.691 90.9074 166.195 91.5773C166.004 91.835 165.725 92.2663 165.357 92.8712C165.008 93.4504 164.624 94.1036 164.205 94.8307C163.787 95.5578 163.4 96.2687 163.046 96.9633C162.713 97.6546 162.469 98.2412 162.311 98.723ZM173.704 109.364C172.971 109.679 172.448 109.86 172.135 109.907C171.821 109.954 171.461 109.847 171.056 109.587C170.927 109.492 170.843 109.39 170.804 109.281C170.761 109.15 170.693 109.08 170.6 109.071C170.554 108.917 170.547 108.792 170.579 108.696C170.629 108.574 170.76 108.451 170.971 108.328C171.337 108.479 171.771 108.472 172.274 108.305C172.776 108.139 173.252 107.873 173.702 107.508C174.17 107.117 174.519 106.687 174.746 106.217C175.114 105.612 175.387 105.056 175.563 104.548C175.736 104.018 175.805 103.561 175.771 103.177C175.737 102.952 175.68 102.801 175.6 102.721C175.538 102.616 175.401 102.464 175.188 102.267C174.805 102.461 174.458 102.674 174.149 102.903C173.862 103.129 173.632 103.358 173.461 103.59C172.872 104.251 172.413 104.789 172.086 105.205C171.781 105.617 171.52 106.023 171.305 106.422C171.112 106.817 170.87 107.346 170.579 108.008C170.433 108.259 170.29 108.452 170.15 108.588C170.032 108.72 169.895 108.798 169.738 108.821C169.872 109.26 169.755 109.552 169.388 109.699C168.878 109.66 168.497 109.568 168.246 109.422C167.992 109.254 167.868 108.883 167.874 108.309C167.917 107.982 167.951 107.598 167.977 107.159C168 106.697 168.046 106.312 168.114 106.004C168.438 104.489 168.718 103.141 168.954 101.96C169.213 100.775 169.464 99.9241 169.708 99.4065L170.161 97.3793C170.546 97.3448 170.849 97.3798 171.071 97.4842C171.289 97.5661 171.567 97.8112 171.902 98.2194C171.919 98.3315 171.856 98.6733 171.712 99.2448C171.587 99.7906 171.429 100.421 171.238 101.138C171.069 101.85 170.905 102.516 170.746 103.136C170.605 103.73 170.507 104.146 170.451 104.383C170.398 104.643 170.458 104.588 170.632 104.219C170.829 103.846 171.191 103.356 171.719 102.75C171.967 102.415 172.286 102.093 172.675 101.782C173.061 101.45 173.389 101.195 173.661 101.016C173.954 100.835 174.201 100.718 174.399 100.666C174.597 100.613 174.74 100.569 174.826 100.533C175.387 100.449 175.857 100.528 176.236 100.77C176.613 100.988 176.895 101.267 177.083 101.606C177.294 101.941 177.416 102.221 177.449 102.445C177.57 102.793 177.667 103.134 177.739 103.467C177.831 103.774 177.859 104.114 177.823 104.486C177.782 104.675 177.696 104.94 177.563 105.281C177.431 105.622 177.266 105.979 177.07 106.352C176.892 106.699 176.662 106.997 176.378 107.246C176.207 107.477 175.969 107.731 175.666 108.005C175.364 108.279 175.037 108.546 174.686 108.805C174.354 109.037 174.026 109.224 173.704 109.364ZM180.778 108.858C180.368 108.873 180.013 108.8 179.714 108.638C179.434 108.451 179.206 108.153 179.031 107.743C178.974 107.362 178.967 107.008 179.01 106.681C179.072 106.328 179.113 105.989 179.133 105.666C179.168 105.133 179.248 104.594 179.373 104.048C179.498 103.503 179.6 102.96 179.68 102.421C179.768 102.087 179.835 101.768 179.881 101.463C179.927 101.158 179.973 100.853 180.019 100.549C180.078 100.173 180.138 99.8089 180.2 99.4559C180.262 99.1029 180.324 98.7499 180.386 98.3969C180.432 98.0921 180.454 97.7794 180.452 97.4589C180.472 97.135 180.481 96.8127 180.479 96.4922C180.686 96.1864 180.938 96.0341 181.236 96.0354C181.557 96.0334 181.976 96.2343 182.495 96.6382C182.647 96.8905 182.74 97.1287 182.774 97.3529C182.804 97.5547 182.78 97.776 182.701 98.0169C182.641 98.2321 182.563 98.5531 182.467 98.9801C182.392 99.4037 182.307 99.829 182.21 100.256C182.132 100.657 182.075 100.964 182.038 101.175C182.03 101.429 181.967 101.851 181.849 102.441C181.753 103.028 181.65 103.64 181.538 104.275C181.423 104.888 181.348 105.381 181.312 105.753C181.228 106.109 181.175 106.449 181.155 106.773C181.134 107.097 181.126 107.499 181.129 107.98C181.204 108.175 181.195 108.348 181.103 108.5C181.03 108.625 180.922 108.744 180.778 108.858ZM187.878 107.523C187.708 107.456 187.526 107.392 187.333 107.329C187.163 107.263 186.993 107.197 186.822 107.13C186.675 107.061 186.538 106.989 186.412 106.916C185.878 106.561 185.496 106.148 185.265 105.678C185.054 105.183 184.935 104.696 184.91 104.219C184.884 103.741 184.891 103.328 184.931 102.978C184.967 102.606 184.975 102.353 184.955 102.218C184.906 102.042 184.914 101.869 184.98 101.699C185.043 101.506 185.106 101.313 185.169 101.121C185.455 100.276 185.725 99.5479 185.978 98.9372C186.249 98.3008 186.664 97.5513 187.223 96.6887C187.341 96.5565 187.449 96.4372 187.548 96.3308C187.666 96.1986 187.789 96.1001 187.916 96.0352L188.775 96.4914C188.878 96.5677 188.951 96.6714 188.993 96.8026C189.033 96.9113 189.034 97.0716 188.997 97.2834C188.975 97.447 188.942 97.6123 188.899 97.7793C188.874 97.9205 188.825 98.0538 188.752 98.1793C188.425 98.5949 188.182 99.0436 188.025 99.5254C187.864 99.9848 187.694 100.457 187.514 100.942C187.545 101.144 187.491 101.324 187.354 101.482C187.214 101.617 187.15 101.799 187.161 102.026C187.184 102.183 187.185 102.344 187.164 102.507C187.142 102.671 187.123 102.846 187.104 103.032C187.001 103.414 186.986 103.771 187.058 104.104C187.131 104.437 187.194 104.783 187.248 105.142C187.44 105.205 187.606 105.237 187.743 105.24C187.878 105.22 188.041 105.081 188.231 104.823C188.623 104.375 188.886 103.992 189.022 103.674C189.181 103.352 189.294 103.037 189.363 102.729C189.431 102.421 189.538 102.061 189.683 101.65C189.85 101.235 189.969 100.725 190.039 100.119C190.108 99.5123 190.139 98.9463 190.129 98.4207C190.116 97.8726 190.062 97.5139 189.968 97.3446C189.929 97.2359 189.92 97.0997 189.942 96.9361C189.963 96.7724 189.872 96.6255 189.67 96.4954C189.746 96.3923 189.766 96.2175 189.729 95.9709C189.692 95.7243 189.631 95.4698 189.546 95.2075C189.461 94.9452 189.365 94.7647 189.259 94.666C189.08 93.7759 188.935 93.0299 188.822 92.428C188.728 91.8003 188.659 91.2606 188.614 90.8089C188.589 90.3314 188.58 89.8859 188.587 89.4723C188.599 89.4017 188.7 89.1574 188.89 88.7395C189.099 88.2958 189.298 87.9451 189.489 87.6875C189.82 87.2943 190.297 86.9596 190.921 86.6832C191.563 86.381 192.123 86.2172 192.6 86.1918C192.581 86.2175 192.718 86.2086 193.009 86.1651C193.323 86.1183 193.669 86.0552 194.046 85.9759C194.424 85.8966 194.701 85.8323 194.877 85.7832C195.05 85.7115 195.222 85.6399 195.395 85.5683C195.568 85.4967 195.849 85.3058 196.238 84.9956C196.4 84.8568 196.541 84.8014 196.66 84.8295L197.683 85.4674C197.754 86.0985 197.668 86.5927 197.423 86.95C197.175 87.285 196.643 87.5592 195.827 87.7727C195.693 87.7928 195.547 87.8145 195.39 87.8379C195.23 87.8389 195.075 87.8736 194.924 87.9418C194.796 88.0068 194.673 88.0252 194.554 87.9971C194.458 87.9656 194.32 87.9633 194.141 87.99C193.894 88.0269 193.641 88.099 193.382 88.2064C193.12 88.2914 192.838 88.322 192.537 88.2982C191.763 88.6429 191.181 89.0393 190.789 89.4873C190.398 89.9353 190.267 90.5965 190.398 91.4708C190.611 92.2869 190.834 93.01 191.065 93.64C191.319 94.2667 191.505 94.9724 191.622 95.757C191.697 95.9521 191.778 96.1119 191.865 96.2364C191.953 96.3608 191.941 96.5116 191.83 96.6886C192.019 97.1875 192.15 97.6835 192.224 98.1767C192.294 98.6475 192.28 99.0162 192.183 99.2829C192.161 99.4465 192.171 99.743 192.212 100.172C192.272 100.576 192.224 101.018 192.067 101.5C191.708 102.631 191.322 103.651 190.908 104.561C190.49 105.448 189.909 106.234 189.163 106.918C189.019 107.032 188.839 107.127 188.621 107.206C188.426 107.28 188.178 107.386 187.878 107.523ZM198.206 105.637C197.914 105.681 197.671 105.66 197.475 105.575C197.301 105.486 197.076 105.359 196.799 105.194C196.306 104.809 195.94 104.429 195.7 104.052C195.457 103.653 195.341 103.257 195.351 102.866C195.392 102.677 195.389 102.505 195.343 102.352C195.317 102.173 195.303 102.083 195.303 102.083C195.174 101.988 195.131 101.925 195.172 101.896C195.21 101.845 195.245 101.771 195.277 101.674C195.411 101.654 195.438 101.524 195.356 101.284C195.284 101.112 195.315 100.706 195.449 100.067C195.583 99.4285 195.778 98.815 196.034 98.2267C196.135 97.9825 196.293 97.6609 196.509 97.2621C196.721 96.8408 196.957 96.4274 197.217 96.0218C197.497 95.5905 197.754 95.2427 197.99 94.9784C198.48 94.4239 198.921 94.0028 199.314 93.715C199.706 93.4273 200.141 93.1905 200.617 93.0048C201.094 92.8191 201.422 92.7129 201.601 92.6861C201.803 92.656 202.098 92.7952 202.488 93.1037C203.037 93.2509 203.447 93.4647 203.718 93.7451C204.012 94.0221 204.237 94.4583 204.395 95.0535C204.563 95.716 204.622 96.4978 204.573 97.3989C204.543 98.2742 204.176 99.4177 203.47 100.829C203.03 101.72 202.604 102.402 202.194 102.876C201.78 103.328 201.276 103.792 200.683 104.271C200.259 104.655 199.868 104.954 199.511 105.167C199.15 105.359 198.715 105.515 198.206 105.637ZM200.902 101.591C201.35 100.905 201.69 100.27 201.924 99.6851C202.18 99.0969 202.391 98.3663 202.559 97.4933C202.612 97.2333 202.623 96.9223 202.592 96.5603C202.557 96.1758 202.494 95.83 202.402 95.5228C202.33 95.1899 202.223 95.0111 202.082 94.9863C201.789 94.8695 201.458 94.8732 201.086 94.9974C200.712 95.0991 200.329 95.374 199.938 95.822C199.33 96.5086 198.833 97.3276 198.448 98.2789C198.06 99.2077 197.701 100.258 197.372 101.43C197.156 102.288 197.174 102.949 197.427 103.416C197.699 103.857 198.139 103.963 198.747 103.735C199.373 103.481 200.092 102.766 200.902 101.591ZM208.829 110.583C208.586 110.803 208.305 110.833 207.983 110.675C207.684 110.513 207.437 110.241 207.242 109.857C207.047 109.474 206.995 109.046 207.085 108.575C207.11 108.433 207.144 108.199 207.186 107.872C207.233 107.567 207.25 107.301 207.239 107.073C207.238 106.913 207.265 106.634 207.32 106.236C207.379 105.861 207.449 105.484 207.53 105.105C207.633 104.723 207.718 104.447 207.784 104.276C207.885 104.032 207.936 103.761 207.938 103.463C207.961 103.161 207.962 102.932 207.938 102.775C207.96 102.611 207.989 102.424 208.026 102.212C208.086 101.997 208.152 101.826 208.225 101.701C208.243 101.515 208.282 101.314 208.341 101.099C208.397 100.862 208.47 100.656 208.558 100.482C208.58 100.319 208.585 100.123 208.574 99.8956C208.585 99.6647 208.634 99.5314 208.721 99.4956C208.73 99.4025 208.727 99.3112 208.714 99.2215C208.723 99.1285 208.75 98.9985 208.793 98.8315C208.801 98.5782 208.849 98.2045 208.935 97.7103C209.022 97.2161 209.136 96.672 209.276 96.0781C209.426 95.3911 209.446 94.7579 209.336 94.1784C209.246 93.5731 209.023 93.2283 208.666 93.144C208.473 93.0811 208.343 92.9745 208.275 92.8243C208.203 92.6516 208.199 92.4689 208.262 92.2762C208.325 92.0835 208.441 91.9401 208.61 91.8461C208.798 91.7263 209.006 91.6608 209.234 91.6498C209.484 91.6354 209.703 91.6484 209.893 91.6889C210.079 91.707 210.164 91.7401 210.148 91.7883C210.165 91.9004 210.231 91.9593 210.347 91.965C210.381 91.891 210.483 91.9561 210.651 92.1602C210.838 92.3385 211.019 92.5522 211.193 92.8011C211.368 93.0501 211.464 93.2306 211.48 93.3427C211.449 93.439 211.435 93.4984 211.438 93.5208C211.438 93.5208 211.483 93.5141 211.573 93.5008C211.573 93.5008 211.688 93.4263 211.918 93.2774C212.144 93.1061 212.38 92.9219 212.626 92.7248C212.89 92.5019 213.061 92.339 213.137 92.2359C213.137 92.2359 213.19 92.2051 213.295 92.1436C213.42 92.0562 213.52 91.961 213.596 91.858C214.018 91.6117 214.495 91.5061 215.027 91.5412C215.582 91.573 216.038 91.7112 216.396 91.9558C216.928 92.4493 217.232 92.9539 217.309 93.4695C217.408 93.9818 217.36 94.6537 217.163 95.4852C217.135 95.6039 217.062 95.8096 216.946 96.102C216.848 96.3687 216.749 96.6242 216.648 96.8684C216.543 97.0903 216.491 97.2012 216.491 97.2012C216.096 98.0852 215.591 98.8481 214.976 99.4899C214.362 100.132 213.726 100.708 213.069 101.218C212.868 101.409 212.651 101.567 212.418 101.694C212.204 101.795 212.008 101.869 211.832 101.919C211.653 101.945 211.526 101.941 211.452 101.907C211.179 101.764 210.898 101.416 210.609 100.864C210.541 101.172 210.472 101.48 210.404 101.788C210.354 102.071 210.325 102.258 210.316 102.351C210.317 102.512 210.314 102.649 210.309 102.765C210.3 102.858 210.255 102.945 210.176 103.025C210.176 103.025 210.171 103.072 210.162 103.165C210.153 103.258 210.095 103.404 209.987 103.604C209.86 104.287 209.742 104.878 209.633 105.375C209.527 105.895 209.443 106.332 209.381 106.685C209.323 107.06 209.28 107.387 209.253 107.667C209.298 108.279 209.264 108.891 209.149 109.504C209.038 110.139 208.931 110.499 208.829 110.583ZM211.4 100.402C211.483 100.344 211.655 100.192 211.916 99.9467C212.197 99.6757 212.506 99.366 212.843 99.0176C213.177 98.6469 213.481 98.3036 213.755 97.9877C214.051 97.6685 214.245 97.4333 214.337 97.282C214.487 97.0535 214.623 96.8154 214.746 96.5678C214.866 96.2978 214.95 96.0104 214.996 95.7055C215.036 95.5162 215.085 95.3027 215.141 95.0651C215.197 94.8275 215.244 94.6029 215.281 94.3911C215.344 94.1983 215.351 94.014 215.301 93.838C215.271 93.6362 215.179 93.4781 215.024 93.3637C214.931 93.3546 214.672 93.462 214.247 93.6859C213.819 93.8873 213.361 94.1964 212.873 94.6129C212.382 95.0071 211.973 95.4921 211.647 96.068C211.266 96.7436 211.012 97.4231 210.885 98.1067C210.781 98.787 210.773 99.3496 210.862 99.7946C210.974 100.236 211.153 100.439 211.4 100.402ZM85.3679 156.755C84.9925 156.696 84.6535 156.575 84.3511 156.391C84.0452 156.185 83.7473 155.954 83.4571 155.7C83.325 155.582 83.0943 155.341 82.765 154.978C82.4357 154.614 82.0774 154.21 81.6899 153.763C81.3248 153.314 80.976 152.896 80.6434 152.51C80.3075 152.102 80.0555 151.796 79.8875 151.592C79.8256 151.945 79.7442 152.243 79.6431 152.487C79.5611 152.706 79.5536 153.039 79.6205 153.488C79.4432 153.835 79.3286 154.219 79.2768 154.639C79.244 155.034 79.2 155.43 79.1448 155.828C79.1144 156.084 79.0357 156.325 78.9089 156.55C78.8045 156.772 78.652 156.978 78.4512 157.169C78.1788 157.186 77.9301 157.132 77.7049 157.005C77.5021 156.875 77.3217 156.741 77.1638 156.605C76.9891 156.356 76.8946 156.106 76.8802 155.856C76.8658 155.606 76.8867 155.363 76.9429 155.125C76.9577 154.917 77.0224 154.506 77.1371 153.893C77.2743 153.276 77.416 152.614 77.5622 151.904C77.7051 151.172 77.8372 150.523 77.9587 149.954C78.0768 149.364 78.137 149 78.1393 148.862C78.2069 148.393 78.3703 147.876 78.6297 147.31C78.908 146.719 79.0676 146.099 79.1084 145.451C79.1298 145.288 79.2202 145.125 79.3794 144.964C79.5354 144.78 79.7254 144.672 79.9496 144.638C80.1929 144.579 80.413 144.672 80.6101 144.918C80.6583 144.933 80.7306 144.957 80.8269 144.988C80.92 144.997 80.9939 145.032 81.0488 145.093C81.2582 145.268 81.3909 145.466 81.4468 145.687C81.5251 145.904 81.5154 146.146 81.4177 146.413C81.2032 146.972 81.0202 147.435 80.8687 147.801C80.7362 148.142 80.6087 148.516 80.4862 148.924C80.3638 149.332 80.2407 149.889 80.1169 150.595C80.4846 150.448 80.7548 150.339 80.9274 150.267C81.0967 150.173 81.2498 150.047 81.3867 149.89C81.5426 149.706 81.7428 149.435 81.9874 149.078C82.0828 148.949 82.2752 148.703 82.5646 148.339C82.8731 147.949 83.1894 147.535 83.5137 147.097C83.8603 146.656 84.1576 146.267 84.4055 145.932C84.6759 145.594 84.8189 145.401 84.8346 145.353C84.939 145.131 85.0468 144.931 85.1578 144.754C85.288 144.552 85.4697 144.387 85.7029 144.261C86.0459 144.255 86.2913 144.287 86.4392 144.357C86.5837 144.404 86.87 144.556 87.298 144.813C87.4234 144.886 87.5001 145.092 87.5278 145.432C87.5523 145.749 87.4658 146.014 87.2684 146.227C86.9117 146.601 86.4675 147.08 85.9359 147.663C85.4042 148.247 84.831 148.86 84.2164 149.502C83.6242 150.14 83.0269 150.745 82.4246 151.316C82.8155 151.785 83.1693 152.236 83.4862 152.67C83.7997 153.082 84.0584 153.433 84.2622 153.723C84.3907 154.277 84.6493 154.628 85.0381 154.776C85.446 154.898 85.919 154.92 86.457 154.839C86.6497 154.902 86.7786 154.997 86.8435 155.125C86.9275 155.227 86.9812 155.357 87.0046 155.514C87.0471 155.645 87.0896 155.776 87.1321 155.907C86.8483 156.156 86.6509 156.369 86.5399 156.546C86.4478 156.697 86.325 156.795 86.1715 156.841C86.037 156.861 85.7691 156.833 85.3679 156.755ZM89.9565 155.451C89.8401 155.285 89.7079 155.167 89.56 155.098C89.4087 155.006 89.3264 154.915 89.313 154.825C89.2997 154.736 89.2751 154.648 89.2393 154.561C89.2225 154.449 89.1626 154.355 89.0596 154.279C88.9274 154.161 88.8934 153.857 88.9577 153.366C89.0185 152.853 89.154 152.225 89.3642 151.483C89.5709 150.719 89.8287 149.913 90.1375 149.065C90.2901 148.858 90.4343 148.596 90.5702 148.278C90.706 147.96 90.8121 147.749 90.8884 147.646C90.875 147.556 90.8969 147.473 90.9541 147.396C91.008 147.296 91.0797 147.239 91.1694 147.226L91.1393 147.024C91.1226 146.912 91.195 146.707 91.3566 146.407C91.5406 146.105 91.7661 145.773 92.0331 145.413C92.2968 145.029 92.575 144.667 92.8678 144.325C93.1572 143.961 93.404 143.695 93.6081 143.527C94.032 143.143 94.4856 142.881 94.9687 142.74C95.4743 142.596 95.9282 142.643 96.3304 142.88C96.4077 142.938 96.5365 143.033 96.7169 143.166C96.8972 143.3 97.1033 143.453 97.3352 143.624C97.5862 143.77 97.8388 143.927 98.0931 144.095L99.503 145.019L99.1487 146.791C98.9911 147.731 99.0297 148.528 99.2646 149.18C99.522 149.829 99.8332 150.379 100.198 150.828C100.347 151.058 100.606 151.26 100.976 151.434C101.368 151.605 101.725 151.689 102.045 151.687C102.228 151.683 102.406 151.725 102.58 151.814C102.753 151.902 102.859 152.07 102.895 152.317C102.929 152.541 102.911 152.727 102.841 152.875C102.772 153.023 102.628 153.136 102.411 153.214C101.684 153.414 100.963 153.338 100.245 152.987C99.5508 152.632 98.8575 151.98 98.1655 151.029C98.0558 150.908 97.8957 150.679 97.6852 150.344C97.4938 149.983 97.3785 149.748 97.3394 149.64C97.2664 149.765 97.1301 150.003 96.9303 150.354C96.7272 150.682 96.5685 150.923 96.454 151.078C95.1033 152.93 93.8869 154.223 92.8048 154.957C91.7418 155.666 90.7923 155.831 89.9565 155.451ZM90.886 153.387C90.9094 153.544 91.1448 153.509 91.5921 153.282C92.0586 153.029 92.5386 152.636 93.0321 152.104C93.6973 151.341 94.3524 150.509 94.9975 149.611C95.665 148.709 96.1839 147.887 96.5543 147.144L97.1134 145.823C96.8123 145.341 96.5138 145.03 96.218 144.891C95.9413 144.726 95.7132 144.657 95.5339 144.684C95.2425 144.727 94.8455 145.062 94.3429 145.687C93.8628 146.308 93.3646 147.116 92.8483 148.11C92.332 149.104 91.8628 150.182 91.4405 151.345C91.2833 151.827 91.1468 152.294 91.031 152.747C90.9343 153.174 90.886 153.387 90.886 153.387ZM105.337 153.121C105.256 153.041 105.172 152.939 105.085 152.815C105.02 152.687 104.981 152.578 104.967 152.489C104.961 152.444 104.941 152.389 104.909 152.325C104.899 152.258 104.849 152.231 104.759 152.245C104.682 152.187 104.688 151.923 104.778 151.451C104.887 150.954 105.031 150.382 105.21 149.737C105.411 149.088 105.615 148.461 105.823 147.857C106.05 147.228 106.239 146.73 106.391 146.363C106.493 146.279 106.547 146.18 106.552 146.064C106.577 145.923 106.567 145.856 106.522 145.862C106.522 145.862 106.563 145.753 106.645 145.535C106.746 145.29 106.825 145.13 106.882 145.052C107.015 144.712 107.103 144.378 107.145 144.05C107.185 143.701 107.166 143.417 107.087 143.2C106.981 143.101 106.875 143.082 106.77 143.144C106.664 143.206 106.611 143.236 106.611 143.236C106.525 143.272 106.397 143.337 106.228 143.431C106.078 143.499 105.942 143.588 105.821 143.698C105.359 144.134 105.036 144.354 104.854 144.358C104.668 144.34 104.422 144.079 104.118 143.574C103.991 143.341 103.931 143.167 103.937 143.051C103.942 142.936 104.014 142.799 104.151 142.641C104.306 142.458 104.46 142.332 104.61 142.263C104.757 142.173 104.87 142.087 104.95 142.006C105.173 141.813 105.358 141.67 105.505 141.58C105.674 141.486 105.802 141.421 105.888 141.385C106.444 141.119 106.932 141.011 107.353 141.063C107.773 141.115 108.119 141.361 108.391 141.802C108.762 142.136 108.984 142.55 109.058 143.043C109.128 143.514 109.053 144.087 108.833 144.761L108.572 145.316C108.493 145.557 108.488 145.672 108.555 145.662C108.645 145.649 108.734 145.555 108.822 145.382C108.876 145.282 108.991 145.127 109.166 144.918C109.341 144.708 109.462 144.599 109.529 144.588C109.529 144.588 109.55 144.574 109.591 144.545C109.655 144.512 109.675 144.418 109.652 144.261C109.709 144.183 109.766 144.106 109.824 144.029C109.903 143.948 109.943 143.908 109.943 143.908C110.033 143.895 110.186 143.769 110.402 143.53C110.638 143.266 110.913 142.961 111.228 142.616C111.448 142.4 111.659 142.277 111.861 142.247C112.353 142.013 112.793 142.119 113.18 142.565C113.59 143.008 113.854 143.622 113.971 144.407L113.536 146.328L114.525 144.668C114.633 144.468 114.744 144.291 114.859 144.137C114.996 143.979 115.113 143.847 115.212 143.74C115.233 143.577 115.287 143.477 115.374 143.441C115.46 143.405 115.503 143.387 115.503 143.387C115.503 143.387 115.526 143.384 115.57 143.377C115.612 143.348 115.628 143.3 115.618 143.233C115.716 143.126 115.828 143.029 115.952 142.942C116.073 142.832 116.15 142.729 116.181 142.633C116.539 142.419 116.883 142.345 117.214 142.41C117.541 142.453 117.852 142.693 118.146 143.13C118.343 143.376 118.468 143.598 118.521 143.796C118.573 143.995 118.63 144.296 118.69 144.699C118.695 145.042 118.69 145.318 118.676 145.526C118.68 145.709 118.686 145.903 118.694 146.108C118.701 146.313 118.71 146.598 118.718 146.964C118.655 147.157 118.628 147.355 118.636 147.561C118.666 147.762 118.694 147.953 118.721 148.132C118.764 148.424 118.806 148.624 118.845 148.732C118.881 148.819 118.977 148.85 119.134 148.827C119.438 148.713 119.84 148.492 120.342 148.165C120.862 147.813 121.238 147.493 121.47 147.206C121.76 146.842 122.028 146.642 122.274 146.605C122.54 146.542 122.727 146.64 122.834 146.899C122.892 146.982 122.844 147.196 122.689 147.54C122.556 147.88 122.389 148.215 122.186 148.543C122.005 148.868 121.859 149.039 121.746 149.056C121.679 149.066 121.611 149.145 121.541 149.293C121.468 149.418 121.381 149.523 121.279 149.607C121.145 149.787 121.01 149.956 120.873 150.114C120.759 150.269 120.612 150.359 120.432 150.386C120.343 150.4 120.236 150.45 120.111 150.537C120.006 150.599 119.875 150.641 119.718 150.665C119.504 150.766 119.151 150.784 118.66 150.72C118.192 150.652 117.854 150.382 117.645 149.908C117.519 149.675 117.382 149.295 117.234 148.767C117.083 148.216 117.011 147.654 117.017 147.08C117.046 146.663 117.047 146.285 117.019 145.945C116.992 145.606 117.001 145.364 117.049 145.219C117.038 145.152 117.015 144.995 116.978 144.748C116.938 144.479 116.884 144.35 116.817 144.36C116.727 144.373 116.54 144.573 116.254 144.96C115.987 145.32 115.666 145.781 115.291 146.341C114.939 146.898 114.59 147.477 114.244 148.079C113.898 148.68 113.623 149.214 113.417 149.68C113.252 149.957 113.118 150.286 113.015 150.668C112.911 151.051 112.83 151.269 112.769 151.324C112.639 151.527 112.452 151.578 112.207 151.477C111.985 151.372 111.763 151.188 111.54 150.923C111.453 150.798 111.391 150.693 111.356 150.607C111.316 150.498 111.295 150.352 111.29 150.17C111.305 149.961 111.34 149.658 111.395 149.26C111.473 148.859 111.572 148.294 111.692 147.566C111.825 146.767 111.936 146.051 112.025 145.419C112.133 144.761 112.187 144.432 112.187 144.432C112.174 144.343 112.019 144.457 111.723 144.777C111.423 145.073 111.078 145.446 110.686 145.894C110.521 146.171 110.24 146.591 109.843 147.154C109.446 147.718 109.014 148.355 108.547 149.066C108.081 149.778 107.641 150.52 107.229 151.291C106.717 152.308 106.341 152.937 106.102 153.179C105.885 153.417 105.63 153.398 105.337 153.121ZM128.414 151.051C127.428 151.198 126.566 150.949 125.828 150.303C125.086 149.634 124.643 148.738 124.498 147.614C124.422 146.8 124.45 145.913 124.582 144.954C124.733 143.969 124.98 143.015 125.324 142.093C125.664 141.149 126.066 140.309 126.53 139.576C126.993 138.842 127.507 138.295 128.072 137.936C128.28 137.79 128.502 137.665 128.738 137.561C128.997 137.454 129.261 137.38 129.53 137.34C129.777 137.303 130.041 137.31 130.324 137.359C130.603 137.386 130.839 137.431 131.032 137.494C131.436 137.594 131.756 137.741 131.991 137.935C132.226 138.129 132.458 138.45 132.685 138.897C132.816 139.313 132.895 139.611 132.921 139.79C132.948 139.97 132.932 140.247 132.874 140.622C132.725 141.47 132.481 142.216 132.142 142.863C131.803 143.509 131.305 144.088 130.648 144.599C130.486 144.737 130.286 144.859 130.05 144.963C129.832 145.041 129.6 145.099 129.353 145.136C128.905 145.203 128.456 145.189 128.007 145.096C127.576 144.977 127.213 144.768 126.916 144.468L126.641 144.234L126.58 144.518C126.446 145.157 126.35 145.744 126.293 146.28C126.258 146.812 126.272 147.291 126.336 147.717C126.376 147.986 126.437 148.241 126.518 148.481C126.622 148.717 126.744 148.917 126.883 149.08C126.992 149.201 127.153 149.28 127.365 149.317C127.596 149.328 127.835 149.316 128.081 149.279C128.238 149.255 128.395 149.232 128.552 149.209C128.728 149.159 128.889 149.089 129.036 148.999C129.397 148.807 129.678 148.616 129.879 148.426C130.102 148.232 130.324 148.027 130.543 147.811L130.668 147.724L130.634 147.729C130.883 147.554 131.099 147.385 131.28 147.22C131.484 147.052 131.586 146.968 131.586 146.968C131.676 146.955 131.757 146.885 131.83 146.76C131.996 146.643 132.225 146.643 132.518 146.76C132.833 146.874 133.009 147.054 133.045 147.3C133.04 147.416 132.966 147.61 132.823 147.883C132.677 148.134 132.507 148.377 132.313 148.613C132.142 148.845 131.99 148.982 131.859 149.024C131.84 149.05 131.768 149.107 131.644 149.194C131.516 149.259 131.433 149.317 131.395 149.369L131.428 149.364C131.267 149.663 131.085 149.827 130.883 149.857L130.614 149.898C130.548 150.068 130.283 150.291 129.82 150.566C129.354 150.819 128.885 150.981 128.414 151.051ZM128.823 143.427C129.227 143.367 129.558 143.203 129.816 142.935C130.093 142.642 130.321 142.333 130.502 142.008C130.86 141.335 131.031 140.714 131.015 140.144C131.017 139.547 130.89 139.154 130.632 138.963C130.488 138.916 130.359 138.901 130.247 138.917C130.154 138.908 129.969 138.971 129.691 139.104C129.495 139.179 129.24 139.389 128.925 139.734C128.61 140.079 128.3 140.457 127.995 140.869C127.712 141.278 127.499 141.619 127.357 141.893L127.025 142.664C127.194 142.57 127.357 142.512 127.514 142.488C127.69 142.439 127.793 142.435 127.822 142.477C127.852 142.678 127.914 142.864 128.008 143.033C128.121 143.177 128.241 143.285 128.366 143.358C128.514 143.427 128.666 143.451 128.823 143.427ZM137.885 148.125C137.712 148.196 137.536 148.246 137.357 148.272C137.197 148.273 137.022 148.254 136.832 148.213C136.547 148.141 136.336 148.035 136.2 147.895C136.087 147.751 136.016 147.579 135.986 147.377C135.951 146.992 135.981 146.576 136.074 146.126C136.164 145.654 136.158 145.231 136.056 144.857C136.073 144.511 136.119 144.126 136.193 143.702C136.287 143.253 136.38 142.803 136.473 142.354C136.563 141.882 136.634 141.436 136.686 141.016C136.735 140.573 136.747 140.193 136.722 139.876C136.715 139.671 136.654 139.497 136.541 139.353C136.447 139.184 136.377 139.022 136.331 138.869C136.308 138.712 136.382 138.517 136.554 138.285C136.687 138.105 136.811 137.938 136.925 137.783C137.04 137.628 137.153 137.463 137.264 137.286C137.414 137.217 137.556 137.173 137.691 137.153C137.825 137.133 137.974 137.134 138.138 137.155C138.183 137.148 138.217 137.143 138.239 137.14C138.28 137.111 138.312 137.095 138.335 137.091C138.644 136.862 139.093 136.646 139.682 136.443C140.267 136.219 140.862 136.061 141.468 135.971C142.095 135.877 142.591 135.895 142.954 136.024C143.269 136.137 143.497 136.286 143.639 136.471C143.778 136.634 143.828 136.89 143.788 137.24C143.728 137.295 143.658 137.362 143.578 137.443C143.521 137.52 143.462 137.586 143.402 137.641C143.257 137.594 143.11 137.605 142.959 137.673C142.828 137.715 142.682 137.737 142.522 137.738C142.266 137.708 141.904 137.739 141.436 137.832C140.991 137.921 140.562 138.042 140.15 138.196C139.734 138.326 139.427 138.498 139.23 138.711C139.221 138.804 139.179 139.062 139.105 139.486C139.05 139.884 138.979 140.33 138.892 140.824C138.805 141.318 138.723 141.766 138.646 142.167C138.59 142.565 138.555 142.788 138.539 142.836C138.308 143.742 138.164 144.622 138.109 145.479C138.05 146.313 137.975 147.195 137.885 148.125ZM148.274 147.777C147.986 147.843 147.747 147.856 147.558 147.815C147.365 147.752 147.122 147.663 146.83 147.546C146.28 147.238 145.853 146.912 145.549 146.568C145.265 146.198 145.106 145.821 145.071 145.436C145.086 145.228 145.059 145.048 144.991 144.898C144.945 144.745 144.922 144.668 144.922 144.668C144.771 144.576 144.716 144.515 144.757 144.486C144.796 144.435 144.819 144.362 144.828 144.269C145.001 144.198 145.005 144.071 144.84 143.889C144.746 143.72 144.72 143.312 144.76 142.664C144.82 141.99 144.932 141.355 145.095 140.758C145.17 140.494 145.278 140.146 145.42 139.712C145.584 139.275 145.77 138.835 145.979 138.391C146.184 137.925 146.381 137.552 146.568 137.272C146.978 136.638 147.353 136.158 147.694 135.832C148.054 135.48 148.467 135.178 148.934 134.925C149.355 134.679 149.665 134.529 149.864 134.477C150.062 134.424 150.362 134.517 150.764 134.755C151.326 134.831 151.763 134.995 152.075 135.246C152.407 135.472 152.695 135.864 152.939 136.424C153.215 137.047 153.387 137.812 153.453 138.719C153.539 139.6 153.327 140.789 152.817 142.286C152.521 143.224 152.194 143.949 151.835 144.461C151.499 144.97 151.076 145.514 150.566 146.094C150.194 146.516 149.844 146.855 149.515 147.111C149.186 147.366 148.773 147.588 148.274 147.777ZM150.367 143.374C150.715 142.634 150.97 141.966 151.133 141.369C151.315 140.746 151.419 139.985 151.446 139.088C151.454 138.834 151.42 138.53 151.344 138.175C151.264 137.797 151.157 137.458 151.02 137.157C150.906 136.853 150.78 136.7 150.642 136.698C150.334 136.629 150.009 136.678 149.667 136.844C149.322 136.987 148.969 137.314 148.61 137.826C148.296 138.332 148.024 138.888 147.794 139.495C147.586 140.099 147.409 140.756 147.263 141.465C147.117 142.175 146.988 142.927 146.878 143.723C146.781 144.608 146.889 145.257 147.203 145.668C147.539 146.076 147.993 146.123 148.564 145.809C149.133 145.472 149.734 144.66 150.367 143.374ZM156.576 154.444C156.486 154.458 156.374 154.475 156.239 154.495C156.108 154.537 155.971 154.466 155.829 154.281C155.723 154.182 155.642 154.022 155.586 153.802C155.552 153.577 155.548 153.166 155.573 152.566C155.628 152.168 155.661 151.774 155.672 151.382C155.685 151.014 155.679 150.74 155.652 150.56C155.639 150.471 155.634 150.288 155.639 150.012C155.669 149.756 155.676 149.571 155.659 149.459C155.745 149.263 155.798 149.003 155.818 148.679C155.838 148.355 155.83 148.07 155.793 147.823C155.753 147.554 155.851 147.288 156.086 147.023C156.06 146.844 156.06 146.615 156.087 146.336C156.136 146.053 156.155 145.867 156.141 145.778C156.162 145.454 156.225 144.883 156.332 144.065C156.458 143.221 156.614 142.269 156.8 141.21C157.008 140.148 157.208 139.11 157.401 138.095C157.593 137.081 157.774 136.218 157.942 135.505C158.118 134.837 158.217 134.272 158.239 133.811C158.281 133.323 158.285 132.967 158.252 132.743C158.238 132.653 158.251 132.583 158.289 132.531C158.324 132.457 158.406 132.319 158.536 132.116C158.727 131.859 158.908 131.763 159.078 131.829C159.271 131.892 159.504 131.995 159.777 132.137C160 132.402 160.16 132.63 160.257 132.822C160.377 133.01 160.429 133.358 160.413 133.864C160.463 134.201 160.451 134.5 160.375 134.764C160.3 135.027 160.228 135.233 160.158 135.381C160.085 135.506 160.069 135.554 160.111 135.525C160.967 134.962 161.74 134.617 162.432 134.491C163.142 134.339 163.755 134.374 164.269 134.595C164.803 134.79 165.229 135.116 165.55 135.573C165.87 136.029 166.078 136.582 166.176 137.233C166.216 137.502 166.208 137.835 166.153 138.233C166.094 138.608 165.999 138.966 165.866 139.307C165.753 139.622 165.639 139.856 165.525 140.011C165.435 140.024 165.357 140.116 165.291 140.287C165.221 140.435 165.155 140.605 165.092 140.798C164.946 141.049 164.693 141.35 164.333 141.702C163.992 142.027 163.645 142.308 163.29 142.545C162.933 142.759 162.659 142.845 162.47 142.805C162.47 142.805 162.438 142.821 162.374 142.853C162.329 142.86 162.315 142.919 162.332 143.032C162.338 143.076 162.174 143.204 161.839 143.415C161.5 143.603 161.105 143.799 160.655 144.004C160.201 144.186 159.794 144.304 159.436 144.358C158.965 144.428 158.615 144.388 158.387 144.239C158.348 144.291 158.302 144.366 158.249 144.466C158.217 144.562 158.206 144.644 158.217 144.712C158.237 144.846 158.219 145.112 158.164 145.51C158.128 145.882 158.067 146.246 157.983 146.603C157.899 146.959 157.801 147.146 157.689 147.162C157.689 147.162 157.671 147.199 157.636 147.273C157.602 147.347 157.637 147.434 157.744 147.532C157.744 147.532 157.751 147.657 157.765 147.907C157.806 148.176 157.783 148.409 157.698 148.605C157.724 148.784 157.731 149.058 157.717 149.427C157.704 149.796 157.665 150.076 157.602 150.269C157.642 150.538 157.636 150.803 157.583 151.063C157.556 151.342 157.498 151.488 157.408 151.501C157.322 151.537 157.286 151.68 157.3 151.93C157.318 152.202 157.335 152.395 157.352 152.507C157.413 153.07 157.366 153.524 157.211 153.868C157.056 154.212 156.845 154.404 156.576 154.444ZM158.968 142.606C159.147 142.579 159.505 142.445 160.042 142.205C160.579 141.964 161.123 141.688 161.672 141.377C162.241 141.04 162.652 140.726 162.907 140.436C163.413 139.834 163.774 139.184 163.991 138.487C164.227 137.764 164.109 137.128 163.637 136.58C163.411 136.293 163.068 136.218 162.607 136.356C162.143 136.471 161.654 136.727 161.14 137.125C160.627 137.522 160.159 137.993 159.736 138.538C159.51 138.869 159.317 139.265 159.156 139.724C158.996 140.184 158.869 140.638 158.776 141.087C158.705 141.533 158.68 141.904 158.701 142.199C158.722 142.493 158.811 142.629 158.968 142.606ZM177.17 143.601C176.912 143.41 176.643 143.141 176.362 142.794C176.077 142.423 175.829 141.991 175.618 141.495C175.546 141.322 175.487 141.079 175.44 140.765C175.416 140.448 175.382 140.224 175.34 140.093C175.296 140.26 175.209 140.445 175.079 140.647C174.968 140.824 174.853 140.979 174.736 141.111C174.659 141.214 174.484 141.424 174.211 141.74C173.934 142.033 173.65 142.282 173.359 142.485C172.69 143.067 172.112 143.417 171.625 143.535C171.161 143.65 170.676 143.47 170.17 142.996C169.768 142.758 169.461 142.471 169.251 142.136C169.063 141.798 168.989 141.304 169.03 140.657C168.958 139.865 168.956 139.086 169.025 138.32C169.09 137.531 169.31 136.467 169.683 135.128C170.016 134.138 170.275 133.412 170.458 132.949C170.637 132.464 170.754 132.172 170.808 132.072C171.127 131.91 171.409 131.879 171.654 131.98C171.895 132.059 172.061 132.252 172.153 132.559C172.321 132.763 172.355 133.147 172.256 133.712C172.179 134.274 171.998 134.977 171.711 135.822C171.511 136.631 171.334 137.437 171.179 138.239C171.046 139.038 170.997 139.71 171.032 140.255C171.068 140.799 171.251 141.104 171.582 141.169C171.8 141.251 172.143 141.166 172.609 140.913C173.098 140.657 173.603 140.123 174.123 139.312C174.666 138.497 175.132 137.316 175.519 135.769C175.632 135.294 175.708 134.881 175.747 134.532C175.783 134.16 175.781 133.759 175.74 133.33C175.655 133.067 175.631 132.83 175.668 132.618C175.724 132.381 175.875 132.164 176.121 131.966C176.194 131.841 176.302 131.722 176.445 131.609C176.586 131.473 176.686 131.458 176.748 131.563L177.281 131.45C177.367 131.414 177.432 131.461 177.474 131.593C177.536 131.698 177.629 131.787 177.755 131.86C178.032 132.025 178.164 132.452 178.152 133.141C178.141 133.831 177.967 134.819 177.632 136.107C177.344 137.089 177.156 137.828 177.069 138.322C177.005 138.813 176.995 139.284 177.04 139.736C177.1 140.139 177.235 140.509 177.446 140.844C177.656 141.179 177.951 141.468 178.331 141.709C178.601 141.829 178.763 141.988 178.815 142.187C178.89 142.382 178.936 142.615 178.954 142.888C178.939 143.096 178.83 143.285 178.626 143.452C178.441 143.595 178.214 143.686 177.945 143.726C177.676 143.766 177.417 143.725 177.17 143.601ZM189.616 141.743C189.472 141.856 189.254 141.854 188.962 141.738C188.692 141.618 188.41 141.419 188.117 141.142C187.92 140.896 187.764 140.622 187.65 140.318C187.558 140.011 187.471 139.577 187.387 139.016C187.342 138.565 187.276 138.277 187.189 138.152C187.124 138.024 187.004 138.065 186.829 138.275C186.651 138.462 186.352 138.839 185.932 139.405C185.456 140.05 184.983 140.567 184.514 140.958C184.068 141.345 183.686 141.551 183.369 141.576C183.212 141.599 183.021 141.547 182.796 141.421C182.589 141.268 182.39 141.08 182.196 140.857C181.999 140.611 181.824 140.362 181.672 140.11C181.464 139.637 181.348 139.013 181.323 138.237C181.318 137.436 181.376 136.591 181.495 135.702C181.614 134.813 181.774 133.964 181.974 133.155C182.197 132.343 182.441 131.676 182.707 131.155C182.995 130.631 183.274 130.349 183.543 130.308C183.722 130.282 183.893 130.348 184.054 130.507C184.238 130.663 184.437 130.92 184.65 131.278C184.763 131.421 184.817 131.551 184.811 131.666C184.828 131.778 184.759 131.926 184.603 132.11C184.441 132.409 184.266 132.848 184.077 133.426C183.911 134.001 183.751 134.62 183.598 135.285C183.468 135.946 183.357 136.581 183.264 137.191C183.172 137.801 183.121 138.301 183.11 138.692C183.096 139.061 183.134 139.239 183.224 139.225C183.538 139.178 183.889 139 184.279 138.69C184.687 138.354 185.064 137.965 185.411 137.524C185.811 136.983 186.149 136.405 186.424 135.791C186.722 135.174 187.014 134.523 187.301 133.838C187.526 133.346 187.755 132.808 187.989 132.223C188.244 131.635 188.401 131.222 188.457 130.984C188.684 130.355 188.86 129.927 188.987 129.702C189.111 129.454 189.28 129.28 189.494 129.18C189.606 129.163 189.707 129.148 189.796 129.134C189.908 129.118 189.964 129.109 189.964 129.109C190.102 129.112 190.274 129.189 190.48 129.342C190.673 129.405 190.787 129.479 190.823 129.565C190.856 129.629 190.88 129.717 190.897 129.829C190.841 130.067 190.745 130.425 190.61 130.904C190.495 131.356 190.407 131.69 190.347 131.905C190.065 132.933 189.782 133.949 189.496 134.954C189.23 135.934 189.079 136.919 189.044 137.91C189.046 138.23 189.09 138.602 189.176 139.024C189.281 139.421 189.392 139.703 189.508 139.869C189.595 139.993 189.697 140.138 189.814 140.304C189.949 140.444 190.093 140.561 190.244 140.653C190.466 140.757 190.521 140.898 190.41 141.075C190.321 141.248 190.184 141.406 189.999 141.548C189.811 141.668 189.683 141.733 189.616 141.743ZM187.096 127.853C186.414 128.046 185.801 127.932 185.257 127.509C184.712 127.086 184.245 126.411 183.854 125.484C183.783 125.311 183.737 125.157 183.717 125.023C183.716 124.863 183.74 124.721 183.791 124.599C183.822 124.503 183.902 124.422 184.03 124.357C184.154 124.27 184.265 124.242 184.361 124.274C184.692 124.339 184.938 124.451 185.099 124.61C185.279 124.744 185.41 124.931 185.492 125.17C185.553 125.276 185.593 125.385 185.609 125.497C185.649 125.605 185.666 125.649 185.663 125.626C185.829 125.968 186.011 126.193 186.211 126.301C186.41 126.408 186.677 126.357 187.013 126.147C187.37 125.933 187.714 125.698 188.042 125.443C188.393 125.184 188.693 124.887 188.94 124.553C189.15 124.269 189.352 124.01 189.546 123.775C189.763 123.536 189.966 123.288 190.157 123.03L190.186 122.992C190.265 122.911 190.374 122.872 190.512 122.874C190.65 122.876 190.733 122.898 190.762 122.94C190.943 123.073 191.045 123.219 191.068 123.375C191.091 123.532 191.117 123.701 191.143 123.88L191.12 123.952C191.185 124.08 191.111 124.355 190.899 124.776C190.709 125.194 190.455 125.564 190.137 125.887C189.859 126.18 189.557 126.454 189.228 126.71C188.9 126.965 188.558 127.211 188.204 127.447C188.06 127.56 187.9 127.641 187.724 127.69C187.568 127.714 187.358 127.768 187.096 127.853Z" fill="#E6380B"/>
<path d="M266.276 3.247C264.245 7.82923 228.38 90.9711 237.693 93.8211C244.931 96.0364 261.123 72.728 265.777 67.7521C269.561 63.7054 277.938 51.8792 276.381 64.5109C273.988 83.9292 262.635 101.371 255.449 119.171C255.357 119.4 247.788 139.112 252.448 138.402C262.451 136.88 271.738 122.186 279.339 116.231C289.175 108.524 285.314 119.916 282.357 126.49C272.674 148.024 259.832 167.603 250.41 189.346C243.945 204.266 252.877 191.449 260.15 190.963C264.101 190.698 249.287 197.106 246.108 199.162C242.173 201.705 243.855 199.359 244.047 195.219C244.37 188.24 242.632 181.546 238.86 175.712" stroke="#1C1C1C" stroke-width="5" stroke-linecap="round"/>
</svg>
