<svg width="228" height="280" viewBox="0 0 228 280" fill="none" xmlns="http://www.w3.org/2000/svg">
<path d="M29.3804 202.134C28.9434 201.97 28.6824 201.757 28.5974 201.495C28.5348 201.229 28.6215 200.735 28.8574 200.012C29.0932 199.289 29.4645 198.168 29.971 196.649C30.3585 195.56 30.6449 194.715 30.8302 194.114C31.0346 193.488 31.1633 193.045 31.2161 192.785C31.2914 192.521 31.324 192.356 31.314 192.289C31.239 192.094 31.238 191.933 31.311 191.808C31.3806 191.66 31.5096 191.526 31.6979 191.406C31.7933 191.278 31.9425 191.049 32.1456 190.721C32.3711 190.389 32.5659 190.005 32.7298 189.568C32.8613 189.067 33.0247 188.55 33.2201 188.017C33.4155 187.483 33.6822 186.813 34.0201 186.006C34.3547 185.177 34.7903 184.104 35.327 182.786C35.6582 181.935 36.0326 181.065 36.4502 180.178C36.8644 179.268 37.3139 178.364 37.7988 177.467C37.9985 177.116 38.1859 176.836 38.3609 176.627C38.5325 176.395 38.7209 176.275 38.926 176.267C39.195 176.227 39.5111 176.272 39.8741 176.401C40.2596 176.527 40.6198 176.714 40.9547 176.961C41.2897 177.209 41.5495 177.491 41.7342 177.808C41.873 177.97 41.9748 178.345 42.0394 178.931C42.104 179.517 42.1645 180.23 42.2211 181.07C42.2777 181.909 42.3314 182.806 42.3823 183.761C42.4522 184.69 42.5137 185.793 42.5666 187.068C42.6194 188.344 42.6807 189.675 42.7503 191.063C42.8424 192.447 42.9502 193.783 43.0737 195.071C43.1938 196.337 43.3578 197.435 43.5656 198.367C43.6181 198.565 43.6466 198.756 43.6509 198.938C43.6553 199.121 43.6658 199.268 43.6826 199.38C43.5681 199.535 43.3523 199.625 43.0351 199.649C42.7437 199.692 42.4422 199.669 42.1307 199.578C41.8416 199.483 41.6596 199.339 41.5846 199.144C41.5073 199.086 41.4491 199.003 41.4099 198.895C41.3899 198.76 41.3609 198.489 41.3231 198.083C41.2853 197.676 41.2123 197.033 41.1042 196.156L40.4591 190.683L40.027 190.782C39.8252 190.812 39.4475 190.891 38.8937 191.02C38.34 191.148 37.7447 191.306 37.108 191.493C36.4679 191.657 35.8743 191.826 35.3272 191.999C34.7992 192.147 34.4394 192.269 34.2476 192.367C34.0459 192.397 33.8193 192.568 33.5681 192.881C33.3392 193.19 33.1333 193.576 32.9502 194.038C32.9074 194.366 32.7895 194.727 32.5964 195.123C32.4224 195.492 32.3438 195.733 32.3606 195.845C32.2204 195.981 32.1059 196.135 32.0173 196.309C31.951 196.479 31.9179 196.565 31.9179 196.565C31.938 196.699 31.8761 197.052 31.7322 197.624C31.6074 198.169 31.4366 198.791 31.2198 199.488C30.9997 200.162 30.7678 200.758 30.5242 201.276L29.9787 202.457L29.3804 202.134ZM34.7249 190.267C34.7249 190.267 34.8336 190.228 35.0511 190.15C35.291 190.068 35.5646 189.981 35.8717 189.89C36.198 189.772 36.4956 189.693 36.7646 189.653C37.6727 189.288 38.3347 189.041 38.7506 188.91C39.1632 188.757 39.4479 188.668 39.6049 188.645C39.7842 188.618 39.9462 188.628 40.0907 188.675C40.1971 188.774 40.2856 188.83 40.3562 188.842C40.4492 188.851 40.4957 188.856 40.4957 188.856C40.5115 188.807 40.5066 188.545 40.4812 188.067C40.4557 187.59 40.4248 186.998 40.3883 186.293C40.3742 185.585 40.3456 184.856 40.3024 184.106C40.2783 183.33 40.2418 182.625 40.1929 181.991C40.1407 181.334 40.1007 180.836 40.0729 180.496C40.0318 180.067 39.9973 179.683 39.9695 179.343C39.9384 178.981 39.9228 178.8 39.9228 178.8C39.7883 178.82 39.5337 179.11 39.159 179.67C38.8066 180.227 38.4217 180.949 38.0041 181.837C37.5866 182.724 37.211 183.662 36.8774 184.652C36.7168 185.111 36.5607 185.524 36.4092 185.89C36.2576 186.257 36.1258 186.448 36.0137 186.465C35.9755 186.517 35.8712 186.738 35.7005 187.131C35.549 187.497 35.3833 187.923 35.2037 188.408C35.0206 188.871 34.8774 189.293 34.7741 189.675C34.6673 190.035 34.6509 190.232 34.7249 190.267ZM61.0234 195.073C60.6129 195.547 60.0988 195.864 59.4811 196.025C58.8858 196.183 58.2784 196.182 57.6587 196.022C57.0357 195.84 56.4934 195.509 56.032 195.027C55.5773 194.591 55.247 194.067 55.0412 193.456C54.8321 192.823 54.6954 191.984 54.6311 190.939C54.5678 190.055 54.7176 189.139 55.0802 188.191C55.4396 187.221 55.9149 186.336 56.5061 185.537C57.1197 184.735 57.754 184.148 58.4088 183.775C58.7116 183.501 58.9767 183.358 59.2043 183.347C59.4509 183.31 59.8241 183.277 60.324 183.249C60.8497 183.239 61.2458 183.283 61.5125 183.381C61.8016 183.475 62.0414 183.623 62.2318 183.823C62.6182 184.109 62.8926 184.412 63.0549 184.732C63.2138 185.029 63.3167 185.334 63.3636 185.648C63.3475 186.155 63.1016 186.81 62.6258 187.615C62.1691 188.393 61.5147 189.075 60.6624 189.661C60.1927 189.892 59.6647 190.039 59.0784 190.104C58.4922 190.168 57.9885 190.095 57.5672 189.882C57.1145 189.767 56.8393 189.842 56.7416 190.109C56.6405 190.353 56.6009 190.932 56.6227 191.845C56.6602 192.711 56.8211 193.328 57.1055 193.698C57.3866 194.046 57.7227 194.225 58.1139 194.235C58.5756 194.258 58.9332 194.274 59.1864 194.282C59.4588 194.264 59.7688 194.114 60.1165 193.833C60.4417 193.556 60.6475 193.399 60.7338 193.363C60.8168 193.305 60.8773 193.25 60.9155 193.198C60.9727 193.121 61.0967 192.954 61.2874 192.696C61.4209 192.516 61.5274 192.385 61.6071 192.304C61.6834 192.201 61.7776 192.142 61.8896 192.125C62.0017 192.108 62.111 192.149 62.2174 192.248C62.3205 192.324 62.4202 192.378 62.5165 192.409C62.7407 192.376 62.8056 192.504 62.7113 192.793C62.6393 193.079 62.4525 193.439 62.1507 193.873C61.8455 194.286 61.4698 194.686 61.0234 195.073ZM59.9256 187.949C60.1555 187.8 60.3899 187.605 60.6288 187.363C60.8643 187.098 61.0534 186.83 61.1959 186.556C61.3575 186.257 61.4249 186.018 61.3981 185.838C61.3513 185.525 61.1671 185.289 60.8455 185.13C60.5206 184.95 60.0785 184.981 59.519 185.225C59.2824 185.329 59.0273 185.539 58.7536 185.855C58.4766 186.149 58.2158 186.474 57.9712 186.831C57.749 187.185 57.5667 187.499 57.4241 187.772C57.304 188.042 57.2697 188.197 57.3212 188.235C57.4052 188.337 57.6092 188.398 57.9331 188.418C58.2536 188.416 58.6028 188.376 58.9805 188.296C59.3807 188.214 59.6957 188.098 59.9256 187.949ZM78.1685 196.811C77.9724 196.725 77.8066 196.613 77.6711 196.472C77.5614 196.351 77.5088 196.153 77.5135 195.877C77.7424 195.568 77.9512 195.124 78.1399 194.546C78.3286 193.968 78.45 193.4 78.5042 192.842C78.5584 192.284 78.4998 191.891 78.3285 191.665C78.1401 191.784 77.8413 191.932 77.4321 192.108C77.0229 192.284 76.5801 192.464 76.1036 192.65C75.6271 192.836 75.2034 192.991 74.8323 193.115C74.4612 193.239 74.2068 193.3 74.0689 193.297C74.0913 193.294 73.8996 193.392 73.4937 193.59C73.1069 193.762 72.7712 193.892 72.4864 193.981C72.2274 194.088 71.765 194.214 71.0992 194.36C70.43 194.482 69.6196 194.58 68.6679 194.654C68.3765 194.697 68.0667 194.617 67.7384 194.414C67.4326 194.208 67.1442 193.965 66.8731 193.684C66.5987 193.381 66.3664 193.13 66.176 192.929C66.1268 192.753 66.0776 192.577 66.0284 192.401C65.9983 192.199 65.9474 192.012 65.8758 191.839C65.84 191.753 65.8206 191.469 65.8176 190.988C65.837 190.504 65.8799 189.948 65.9465 189.319C66.0131 188.69 66.0863 188.106 66.1663 187.567C66.2429 187.006 66.3093 186.606 66.3655 186.369C66.479 186.054 66.5571 185.733 66.5999 185.406C66.6651 185.075 66.7545 184.752 66.8679 184.438C66.9656 184.171 67.0409 183.908 67.0937 183.648C67.1657 183.362 67.2281 183.089 67.2809 182.829C67.3863 182.767 67.49 182.695 67.5921 182.611C67.6941 182.527 67.7917 182.489 67.8847 182.498C68.5258 182.494 68.9449 182.615 69.142 182.861C69.3615 183.103 69.5097 183.482 69.5867 183.997C69.2387 184.737 68.9282 185.574 68.6552 186.508C68.3789 187.42 68.2313 188.428 68.2126 189.531C68.1373 189.794 68.0743 190.216 68.0234 190.797C67.9916 191.351 67.9863 191.776 68.0074 192.071C68.7154 192.515 69.2729 192.719 69.6797 192.681C70.109 192.64 70.5726 192.444 71.0705 192.095C71.0956 191.495 71.1817 190.921 71.3289 190.372C71.4762 189.823 71.62 189.251 71.7605 188.657C71.801 188.468 71.8315 188.211 71.8519 187.888C71.8723 187.564 71.9156 187.317 71.9818 187.146C72.0762 186.857 72.1588 186.49 72.2298 186.044C72.2973 185.575 72.2886 185.21 72.2036 184.947C72.0795 184.576 72.1211 184.318 72.3286 184.172C72.5327 184.004 72.8096 183.94 73.1592 183.98C73.5313 184.016 73.8607 184.15 74.1475 184.382C74.2616 184.686 74.3325 185.008 74.3603 185.347C74.4105 185.684 74.371 186.033 74.2419 186.396C74.2329 186.489 74.1738 186.785 74.0647 187.282C73.9747 187.754 73.8724 188.296 73.7576 188.909C73.6395 189.5 73.5243 190.033 73.4118 190.508C73.3185 190.957 73.2656 191.217 73.2533 191.288C73.3306 191.345 73.5245 191.339 73.835 191.27C74.1645 191.175 74.5261 191.064 74.9196 190.936C75.3355 190.805 75.7065 190.681 76.0328 190.564C76.1191 190.528 76.2089 190.285 76.3023 189.836C76.3956 189.386 76.4885 188.857 76.5808 188.247C76.6731 187.638 76.7481 187.065 76.8056 186.529C76.8598 185.971 76.8943 185.588 76.909 185.379C76.9237 185.171 76.9694 184.786 77.046 184.225C77.1417 183.637 77.2333 183.177 77.321 182.843C77.4401 182.412 77.6437 182.164 77.9318 182.098C78.0439 182.082 78.1464 182.078 78.2395 182.087C78.3549 182.093 78.5555 182.131 78.8412 182.203C79.1303 182.298 79.3639 182.481 79.5419 182.752C79.7166 183.001 79.7663 183.257 79.691 183.52C79.6405 183.642 79.568 183.848 79.4737 184.137C79.3793 184.426 79.2945 184.702 79.2192 184.966C79.1664 185.226 79.1354 185.402 79.1264 185.495C79.096 185.752 79.0391 186.139 78.9558 186.655C78.8691 187.149 78.7875 187.677 78.7109 188.239C78.6309 188.778 78.5813 189.289 78.5619 189.774C78.6706 189.734 78.8337 189.676 79.0512 189.597C79.2687 189.519 79.4817 189.487 79.6901 189.502C79.9177 189.491 80.0722 189.605 80.1539 189.845C80.1773 190.002 80.2406 190.119 80.3436 190.195C80.4467 190.271 80.529 190.362 80.5906 190.468C80.7873 191.172 80.8407 191.759 80.7507 192.231C80.6574 192.681 80.6324 193.051 80.676 193.343C80.7318 193.563 80.7188 193.783 80.6368 194.002C80.5773 194.217 80.5177 194.432 80.4582 194.647C80.248 195.389 79.9708 195.911 79.6265 196.215C79.2822 196.518 78.7962 196.717 78.1685 196.811ZM86.6016 192.561C85.6151 192.708 84.7529 192.459 84.0147 191.813C83.2732 191.144 82.83 190.248 82.6851 189.124C82.6095 188.31 82.6376 187.423 82.7694 186.464C82.9203 185.479 83.1675 184.525 83.5111 183.603C83.8514 182.659 84.2532 181.819 84.7166 181.086C85.1801 180.352 85.6943 179.805 86.2595 179.446C86.4669 179.3 86.6889 179.175 86.9255 179.071C87.1845 178.964 87.4485 178.89 87.7175 178.85C87.9641 178.813 88.2286 178.82 88.511 178.869C88.79 178.896 89.0259 178.941 89.2187 179.004C89.6232 179.104 89.9431 179.251 90.1783 179.445C90.4135 179.639 90.6448 179.96 90.872 180.407C91.0028 180.823 91.0816 181.121 91.1084 181.3C91.1352 181.48 91.1193 181.757 91.0607 182.132C90.9122 182.98 90.6684 183.726 90.3295 184.373C89.9906 185.019 89.4925 185.598 88.8354 186.109C88.6728 186.247 88.4732 186.369 88.2366 186.473C88.0191 186.551 87.7871 186.609 87.5405 186.646C87.0921 186.713 86.6432 186.699 86.1939 186.606C85.7636 186.487 85.4 186.278 85.1032 185.978L84.8277 185.744L84.7669 186.028C84.6331 186.667 84.5374 187.254 84.4799 187.79C84.4448 188.322 84.459 188.802 84.5226 189.227C84.5628 189.497 84.6237 189.751 84.7053 189.991C84.8094 190.227 84.9308 190.427 85.0697 190.59C85.1795 190.711 85.3402 190.79 85.552 190.827C85.7829 190.838 86.0216 190.826 86.2682 190.789C86.4252 190.765 86.5821 190.742 86.739 190.719C86.915 190.669 87.0765 190.599 87.2234 190.509C87.5844 190.317 87.8653 190.126 88.066 189.936C88.2892 189.742 88.5107 189.537 88.7306 189.321L88.855 189.234L88.8214 189.239C89.0703 189.064 89.2856 188.895 89.4673 188.73C89.6714 188.562 89.7735 188.478 89.7735 188.478C89.8632 188.465 89.9445 188.395 90.0174 188.27C90.1834 188.153 90.4126 188.153 90.705 188.27C91.0199 188.384 91.1957 188.564 91.2325 188.81C91.2268 188.926 91.1527 189.12 91.0102 189.393C90.8643 189.644 90.6943 189.888 90.5003 190.123C90.3286 190.355 90.1772 190.492 90.0461 190.534C90.027 190.56 89.9552 190.617 89.8308 190.704C89.7029 190.769 89.62 190.827 89.5818 190.879L89.6154 190.874C89.4538 191.173 89.2721 191.337 89.0704 191.367L88.8014 191.408C88.7351 191.578 88.4705 191.801 88.0074 192.076C87.5409 192.329 87.0723 192.491 86.6016 192.561ZM87.0104 184.937C87.414 184.877 87.7447 184.713 88.0027 184.445C88.2797 184.152 88.5086 183.843 88.6893 183.518C89.0473 182.846 89.2181 182.224 89.2017 181.654C89.2043 181.057 89.0768 180.664 88.8192 180.473C88.6746 180.426 88.5463 180.411 88.4342 180.428C88.3412 180.418 88.1557 180.481 87.8776 180.614C87.6825 180.689 87.4274 180.899 87.1122 181.244C86.797 181.589 86.4869 181.967 86.1817 182.379C85.899 182.788 85.6864 183.13 85.5438 183.403L85.2121 184.174C85.3814 184.08 85.5445 184.022 85.7014 183.998C85.8774 183.949 85.98 183.945 86.0091 183.987C86.0392 184.188 86.1013 184.374 86.1953 184.543C86.3084 184.687 86.4277 184.795 86.5532 184.868C86.7011 184.938 86.8535 184.961 87.0104 184.937ZM105.946 197.477C105.931 197.525 105.823 197.495 105.624 197.388C105.447 197.276 105.265 197.132 105.078 196.953C104.894 196.797 104.803 196.651 104.805 196.513C104.669 196.212 104.622 195.818 104.663 195.331C104.731 194.862 104.911 194.148 105.203 193.188C105.374 192.795 105.512 192.339 105.617 191.819C105.746 191.296 105.896 190.769 106.069 190.239C106.151 190.021 106.332 189.547 106.613 188.818C106.894 188.088 107.184 187.266 107.482 186.35C107.804 185.431 108.053 184.569 108.231 183.763C107.738 184.456 107.292 185.152 106.893 185.854C106.49 186.533 106.104 187.094 105.735 187.539C105.388 187.981 105.034 188.217 104.672 188.248C104.37 188.224 104.041 188.17 103.685 188.086C103.348 187.976 103.095 187.739 102.926 187.374C102.762 186.894 102.635 186.272 102.544 185.506C102.475 184.737 102.448 183.561 102.464 181.977C102.529 181.188 102.543 180.59 102.505 180.183C102.487 179.751 102.429 179.439 102.331 179.247C102.234 179.055 102.084 178.894 101.881 178.764C101.549 178.538 101.357 178.327 101.305 178.128C101.271 177.904 101.4 177.69 101.69 177.486C102.144 177.304 102.476 177.22 102.684 177.235C102.889 177.227 103.162 177.37 103.504 177.662C103.727 177.927 103.926 178.184 104.1 178.433C104.294 178.656 104.438 179.081 104.532 179.709C104.572 179.978 104.58 180.343 104.558 180.805C104.557 181.264 104.554 181.7 104.547 182.113C104.559 182.501 104.565 182.775 104.566 182.935C104.466 183.798 104.427 184.537 104.45 185.153C104.496 185.765 104.575 186.062 104.687 186.046C105.082 185.62 105.447 185.153 105.784 184.644C106.14 184.11 106.498 183.518 106.859 182.868C107.24 182.192 107.653 181.432 108.1 180.586C108.245 180.175 108.392 179.775 108.54 179.386C108.688 178.997 108.801 178.602 108.879 178.201C108.97 177.889 109.069 177.634 109.177 177.434C109.284 177.235 109.381 177.117 109.468 177.081C109.573 177.02 109.709 177.011 109.876 177.055C110.066 177.095 110.234 177.15 110.382 177.22C110.549 177.264 110.636 177.308 110.643 177.353C110.668 177.372 110.728 177.386 110.821 177.395C110.914 177.404 111.007 177.413 111.1 177.422C111.212 177.405 111.273 177.431 111.283 177.498C111.29 177.543 111.256 177.697 111.18 177.96C111.127 178.22 111.057 178.517 110.969 178.851C110.901 179.159 110.84 179.443 110.787 179.703C110.731 179.941 110.718 180.08 110.747 180.122C110.798 180.16 110.79 180.333 110.721 180.641C110.649 180.927 110.56 181.25 110.453 181.61C110.369 181.966 110.291 182.287 110.219 182.573C110.105 183.346 109.958 184.124 109.777 184.908C109.592 185.669 109.352 186.438 109.055 187.215C108.961 187.504 108.821 187.949 108.636 188.55C108.473 189.147 108.308 189.733 108.142 190.308C108.001 190.902 107.886 191.355 107.795 191.666C107.732 191.859 107.639 192.159 107.517 192.567C107.42 192.994 107.306 193.458 107.174 193.959C107.065 194.457 106.951 194.92 106.832 195.351C106.716 195.804 106.63 196.149 106.574 196.386C106.593 196.819 106.539 197.148 106.412 197.373C106.322 197.386 106.222 197.401 106.109 197.418C106.001 197.457 105.946 197.477 105.946 197.477ZM130.193 185.573C130.052 185.548 129.912 185.534 129.774 185.532C129.633 185.507 129.492 185.482 129.351 185.458C129.232 185.43 129.092 185.416 128.932 185.417C128.661 185.137 128.514 184.769 128.492 184.314C128.467 183.836 128.496 183.339 128.579 182.823C128.685 182.303 128.781 181.796 128.868 181.301C128.977 180.804 129.017 180.385 128.99 180.046C128.954 179.959 128.917 179.942 128.879 179.994C128.837 180.023 128.82 180.06 128.826 180.104C128.696 180.307 128.491 180.464 128.209 180.575C127.928 180.685 127.667 180.782 127.427 180.863C127.011 180.994 126.597 181.136 126.184 181.289C125.772 181.443 125.372 181.606 124.985 181.778C124.911 181.743 124.825 181.699 124.725 181.645C124.648 181.588 124.572 181.542 124.498 181.507C124.341 181.53 124.228 181.696 124.16 182.004C124.091 182.312 124.044 182.686 124.018 183.126C123.988 183.542 123.957 183.948 123.924 184.343C123.911 184.711 123.882 184.979 123.838 185.146C123.486 185.245 123.23 185.294 123.07 185.295C122.932 185.293 122.664 185.264 122.266 185.209C122.05 184.989 121.914 184.769 121.858 184.548C121.825 184.324 121.821 184.072 121.849 183.793C121.884 183.261 121.911 182.833 121.932 182.509C121.975 182.181 122.06 181.756 122.188 181.233C122.264 180.97 122.329 180.719 122.386 180.482C122.461 180.218 122.477 179.941 122.433 179.649C122.579 179.398 122.666 179.133 122.693 178.854C122.72 178.575 122.758 178.295 122.808 178.012C123.029 177.039 123.204 176.291 123.332 175.768C123.479 175.219 123.576 174.792 123.622 174.487C123.668 174.182 123.684 173.905 123.67 173.655C123.645 173.338 123.812 173.153 124.171 173.099C124.395 173.066 124.644 173.12 124.917 173.263C125.188 173.383 125.408 173.556 125.58 173.783C125.751 174.009 125.801 174.265 125.729 174.551C125.688 174.74 125.62 175.049 125.523 175.475C125.445 175.877 125.352 176.326 125.243 176.824C125.153 177.295 125.059 177.745 124.963 178.172C124.885 178.573 124.815 178.87 124.752 179.063C124.743 179.156 124.71 179.241 124.653 179.318C124.592 179.373 124.57 179.456 124.587 179.569C124.761 179.657 125.025 179.664 125.38 179.588C125.755 179.486 126.014 179.378 126.157 179.265C126.494 179.215 126.819 179.167 127.133 179.12C127.469 179.07 127.805 179.019 128.141 178.969C128.508 179.121 128.811 179.385 129.05 179.762C129.144 179.312 129.273 178.72 129.438 177.985C129.6 177.227 129.753 176.483 129.895 175.751C130.038 175.019 130.105 174.471 130.097 174.105C130.111 173.897 130.174 173.704 130.285 173.527C130.396 173.35 130.524 173.205 130.667 173.092C131.005 173.202 131.327 173.291 131.635 173.36C131.963 173.403 132.203 173.63 132.356 174.043C132.364 174.248 132.349 174.456 132.312 174.668C132.272 174.858 132.231 175.047 132.191 175.236C132.063 175.92 131.89 176.679 131.671 177.514C131.449 178.326 131.252 179.158 131.081 180.009C130.929 180.833 130.849 181.602 130.841 182.313C130.851 182.381 130.828 182.613 130.773 183.011C130.74 183.405 130.694 183.79 130.636 184.166C130.6 184.538 130.572 184.737 130.553 184.763C130.577 184.919 130.553 185.072 130.484 185.22C130.411 185.345 130.314 185.463 130.193 185.573ZM135.595 183.907C135.478 183.741 135.346 183.623 135.198 183.554C135.047 183.462 134.964 183.371 134.951 183.281C134.938 183.191 134.913 183.103 134.877 183.017C134.861 182.905 134.801 182.811 134.698 182.734C134.565 182.617 134.531 182.312 134.596 181.821C134.657 181.308 134.792 180.681 135.002 179.939C135.209 179.175 135.467 178.368 135.776 177.52C135.928 177.314 136.072 177.052 136.208 176.734C136.344 176.415 136.45 176.205 136.526 176.102C136.513 176.012 136.535 175.929 136.592 175.851C136.646 175.752 136.718 175.695 136.807 175.682L136.777 175.48C136.761 175.368 136.833 175.162 136.995 174.863C137.179 174.561 137.404 174.229 137.671 173.868C137.935 173.485 138.213 173.123 138.506 172.781C138.795 172.417 139.042 172.151 139.246 171.983C139.67 171.599 140.124 171.336 140.607 171.196C141.112 171.051 141.566 171.098 141.968 171.336C142.046 171.393 142.175 171.489 142.355 171.622C142.535 171.756 142.741 171.908 142.973 172.08C143.224 172.226 143.477 172.383 143.731 172.551L145.141 173.475L144.787 175.247C144.629 176.187 144.668 176.983 144.903 177.636C145.16 178.285 145.471 178.834 145.836 179.284C145.985 179.514 146.244 179.716 146.614 179.89C147.006 180.061 147.363 180.145 147.683 180.143C147.866 180.138 148.044 180.181 148.218 180.269C148.391 180.358 148.497 180.526 148.534 180.772C148.567 180.996 148.549 181.182 148.479 181.33C148.41 181.478 148.266 181.591 148.049 181.67C147.322 181.87 146.601 181.794 145.883 181.443C145.189 181.088 144.496 180.435 143.804 179.484C143.694 179.363 143.534 179.135 143.323 178.8C143.132 178.439 143.017 178.204 142.977 178.095C142.904 178.221 142.768 178.459 142.568 178.809C142.365 179.138 142.206 179.379 142.092 179.534C140.741 181.385 139.525 182.678 138.443 183.413C137.38 184.122 136.43 184.286 135.595 183.907ZM136.524 181.843C136.547 182 136.783 181.965 137.23 181.738C137.697 181.485 138.177 181.092 138.67 180.56C139.335 179.796 139.99 178.965 140.635 178.067C141.303 177.165 141.822 176.343 142.192 175.6L142.751 174.279C142.45 173.797 142.152 173.486 141.856 173.347C141.579 173.182 141.351 173.113 141.172 173.139C140.88 173.183 140.483 173.517 139.981 174.142C139.501 174.764 139.003 175.572 138.486 176.565C137.97 177.559 137.501 178.638 137.079 179.801C136.921 180.283 136.785 180.75 136.669 181.203C136.572 181.63 136.524 181.843 136.524 181.843ZM154.931 181.364C154.659 181.542 154.332 181.648 153.947 181.683C153.563 181.717 153.029 181.671 152.345 181.544C152.3 181.551 152.193 181.521 152.022 181.455C151.874 181.385 151.712 181.295 151.535 181.184C151.377 181.047 151.24 180.895 151.123 180.729C150.688 180.267 150.428 179.527 150.345 178.508C150.262 177.489 150.395 176.232 150.744 174.736C150.851 174.376 151.023 173.915 151.26 173.352C151.519 172.787 151.774 172.267 152.024 171.794C152.293 171.296 152.49 171.003 152.615 170.916C152.615 170.916 152.731 170.852 152.965 170.726C153.198 170.599 153.49 170.407 153.841 170.148C153.946 170.087 154.063 170.023 154.191 169.958C154.341 169.89 154.493 169.833 154.646 169.787C154.8 169.741 154.935 169.721 155.05 169.727C155.502 169.683 155.986 169.782 156.504 170.026C157.041 170.243 157.496 170.531 157.87 170.887C158.241 171.222 158.392 171.543 158.323 171.851C158.33 171.896 158.276 171.996 158.162 172.15C158.066 172.279 157.95 172.422 157.814 172.58C157.696 172.712 157.6 172.841 157.527 172.967C157.435 173.118 157.287 173.197 157.082 173.205C156.899 173.21 156.718 173.145 156.537 173.011C156.376 172.852 156.264 172.64 156.201 172.374C156.13 172.201 155.937 172.058 155.622 171.945C155.329 171.828 155.183 171.77 155.183 171.77C155.004 171.797 154.771 172.003 154.485 172.39C154.218 172.75 153.961 173.178 153.714 173.674C153.371 174.137 153.095 174.671 152.887 175.275C152.676 175.857 152.518 176.407 152.412 176.927C152.326 177.422 152.264 177.775 152.226 177.986C152.17 178.224 152.206 178.54 152.333 178.933C152.461 179.326 152.576 179.561 152.679 179.638C152.776 179.669 153.001 179.647 153.357 179.571C153.735 179.492 154.176 179.38 154.682 179.236C155.184 179.069 155.673 178.893 156.15 178.707C156.626 178.521 157.011 178.338 157.305 178.156C157.691 177.824 158.038 177.612 158.345 177.52C158.652 177.428 158.887 177.393 159.051 177.415C159.311 177.467 159.475 177.569 159.543 177.719C159.611 177.869 159.582 178.057 159.455 178.282C159.325 178.485 159.085 178.716 158.734 178.975C158.402 179.207 158.107 179.458 157.849 179.725C157.61 179.967 157.499 180.144 157.516 180.256C157.426 180.27 157.33 180.318 157.228 180.402C157.145 180.461 157.068 180.484 156.998 180.471C156.953 180.478 156.778 180.538 156.475 180.652C156.171 180.767 155.857 180.894 155.535 181.033C155.234 181.17 155.033 181.28 154.931 181.364ZM14.7808 237.04C14.4894 237.084 14.2456 237.063 14.0495 236.977C13.8759 236.889 13.6507 236.762 13.374 236.597C12.8811 236.212 12.5148 235.832 12.2753 235.455C12.0323 235.056 11.916 234.66 11.9264 234.269C11.9669 234.08 11.9642 233.908 11.9184 233.755C11.8916 233.575 11.8782 233.486 11.8782 233.486C11.7494 233.39 11.7057 233.328 11.7472 233.299C11.7854 233.248 11.8201 233.174 11.8516 233.077C11.9861 233.057 12.0125 232.927 11.9309 232.687C11.8593 232.515 11.8904 232.109 12.0242 231.47C12.158 230.831 12.3529 230.218 12.6089 229.63C12.7099 229.385 12.8682 229.064 13.0837 228.665C13.2958 228.244 13.532 227.83 13.7923 227.425C14.0717 226.993 14.3292 226.646 14.5647 226.381C15.0549 225.827 15.4962 225.406 15.8887 225.118C16.2812 224.83 16.7157 224.593 17.1922 224.408C17.6686 224.222 17.9965 224.116 18.1759 224.089C18.3776 224.059 18.6734 224.198 19.0633 224.507C19.6123 224.654 20.0224 224.868 20.2934 225.148C20.5869 225.425 20.8124 225.861 20.97 226.456C21.1377 227.119 21.1971 227.901 21.1483 228.802C21.1185 229.677 20.7506 230.821 20.0446 232.232C19.6047 233.123 19.1794 233.805 18.7689 234.279C18.355 234.731 17.8514 235.195 17.2582 235.673C16.8342 236.058 16.4434 236.357 16.0857 236.57C15.7247 236.762 15.2897 236.918 14.7808 237.04ZM17.4769 232.994C17.9246 232.308 18.2652 231.673 18.4988 231.088C18.7547 230.5 18.9665 229.769 19.1341 228.896C19.187 228.636 19.1978 228.325 19.1667 227.963C19.1322 227.579 19.0692 227.233 18.9775 226.926C18.9049 226.593 18.798 226.414 18.6568 226.389C18.3643 226.272 18.0325 226.276 17.6615 226.4C17.2871 226.502 16.9041 226.777 16.5126 227.225C15.9047 227.912 15.4082 228.731 15.023 229.682C14.6346 230.611 14.2758 231.661 13.9465 232.833C13.7307 233.691 13.7493 234.352 14.0023 234.819C14.2743 235.259 14.7142 235.366 15.3218 235.137C15.9485 234.884 16.6669 234.169 17.4769 232.994ZM24.5489 236.029C24.4682 235.949 24.3909 235.892 24.317 235.857C24.2397 235.8 24.1512 235.745 24.0515 235.691C23.9708 235.611 23.842 235.516 23.665 235.405C23.6024 235.139 23.5808 234.764 23.6002 234.28C23.642 233.792 23.6951 233.303 23.7593 232.812C23.8235 232.321 23.8838 231.957 23.94 231.72C23.94 231.72 23.9676 231.521 24.0228 231.123C24.1004 230.722 24.1887 230.239 24.2877 229.674C24.3834 229.087 24.4808 228.511 24.5798 227.946C24.6979 227.355 24.7862 226.872 24.8448 226.497C24.9224 226.096 24.9612 225.895 24.9612 225.895C24.9927 225.799 25.0017 225.706 24.9883 225.616C24.9716 225.504 24.9515 225.369 24.9281 225.212C24.8006 224.819 24.789 224.511 24.8934 224.289C25.0202 224.064 25.1117 223.833 25.1679 223.595C25.4179 223.581 25.586 223.556 25.6723 223.52C25.7811 223.481 25.9077 223.485 26.0523 223.532C26.2126 223.531 26.5119 223.463 26.9502 223.329C27.3885 223.195 27.8235 223.038 28.2551 222.859C28.7092 222.677 29.0096 222.541 29.1565 222.45C29.4704 222.403 29.7714 222.347 30.0595 222.281C30.37 222.211 30.6743 222.177 30.9724 222.179C31.3535 222.122 31.7099 222.206 32.0415 222.432C32.3731 222.657 32.6066 222.84 32.7421 222.98C32.7107 223.077 32.668 223.175 32.6142 223.274C32.5794 223.348 32.5446 223.422 32.5098 223.496C32.475 223.57 32.429 223.646 32.3718 223.723C32.2372 223.743 31.957 223.785 31.5311 223.849C31.1051 223.912 30.6489 224.003 30.1624 224.122C29.6983 224.237 29.3177 224.374 29.0206 224.533C28.7425 224.666 28.437 224.769 28.1041 224.841C27.7902 224.888 27.5072 224.988 27.2549 225.14C27.1595 225.269 27.0809 225.51 27.019 225.863C26.9571 226.216 26.9081 226.578 26.872 226.95C26.8358 227.323 26.7975 227.603 26.7571 227.793C26.7537 227.77 26.7099 227.937 26.6256 228.294C26.5637 228.647 26.4861 229.048 26.3927 229.497C26.3218 229.943 26.2616 230.307 26.2121 230.59C26.1425 230.738 26.0689 231.012 25.9912 231.413C25.9136 231.815 25.8472 232.214 25.792 232.612C25.7368 233.01 25.7002 233.302 25.6821 233.488C25.6527 233.905 25.6008 234.325 25.5265 234.749C25.4489 235.15 25.3377 235.556 25.1928 235.967C25.1031 235.981 25.0023 235.996 24.8902 236.012C24.7747 236.007 24.661 236.012 24.5489 236.029ZM34.8286 240.579C34.5864 240.799 34.3045 240.829 33.9829 240.671C33.6838 240.509 33.4368 240.237 33.2421 239.853C33.0473 239.47 32.995 239.042 33.085 238.571C33.1097 238.429 33.1435 238.195 33.1863 237.868C33.2325 237.563 33.2501 237.297 33.239 237.069C33.238 236.909 33.2651 236.63 33.3203 236.232C33.3788 235.857 33.4486 235.48 33.5296 235.101C33.6329 234.719 33.7178 234.443 33.784 234.272C33.8851 234.028 33.9362 233.757 33.9376 233.459C33.9613 233.157 33.9615 232.928 33.9381 232.771C33.9595 232.607 33.9887 232.42 34.0259 232.208C34.0854 231.993 34.1517 231.822 34.2246 231.697C34.2427 231.511 34.2815 231.31 34.3411 231.095C34.3973 230.858 34.4697 230.652 34.5584 230.478C34.5798 230.315 34.585 230.119 34.5739 229.892C34.5853 229.661 34.6341 229.527 34.7205 229.492C34.7295 229.399 34.7273 229.307 34.7139 229.218C34.723 229.125 34.7494 228.995 34.7932 228.828C34.8012 228.574 34.8486 228.201 34.9352 227.706C35.0219 227.212 35.1355 226.668 35.276 226.074C35.4255 225.387 35.4456 224.754 35.3362 224.174C35.2458 223.569 35.0225 223.224 34.6661 223.14C34.4734 223.077 34.3429 222.971 34.2746 222.82C34.203 222.648 34.1986 222.465 34.2615 222.272C34.3244 222.079 34.4406 221.936 34.6099 221.842C34.7982 221.722 35.0062 221.657 35.2337 221.646C35.4837 221.631 35.7033 221.644 35.8927 221.685C36.0788 221.703 36.1639 221.736 36.1482 221.784C36.1649 221.896 36.231 221.955 36.3464 221.961C36.3812 221.887 36.4826 221.952 36.6506 222.156C36.8377 222.335 37.0185 222.548 37.1932 222.797C37.3678 223.046 37.4635 223.227 37.4803 223.339C37.4488 223.435 37.4348 223.494 37.4381 223.517C37.4381 223.517 37.483 223.51 37.5726 223.497C37.5726 223.497 37.6876 223.422 37.9174 223.273C38.144 223.102 38.38 222.918 38.6256 222.721C38.8903 222.498 39.0607 222.335 39.137 222.232C39.137 222.232 39.1897 222.201 39.2951 222.14C39.4196 222.052 39.52 221.957 39.5963 221.854C40.0179 221.608 40.4948 221.502 41.0272 221.537C41.582 221.569 42.038 221.707 42.3954 221.952C42.9274 222.445 43.2319 222.95 43.3089 223.466C43.4083 223.978 43.3596 224.65 43.1629 225.481C43.1348 225.6 43.0623 225.806 42.9456 226.098C42.8479 226.365 42.7485 226.62 42.6475 226.864C42.5431 227.086 42.4909 227.197 42.4909 227.197C42.0957 228.081 41.5908 228.844 40.9762 229.486C40.3615 230.128 39.7256 230.704 39.0685 231.215C38.8677 231.405 38.6507 231.563 38.4175 231.69C38.2034 231.791 38.0083 231.866 37.8323 231.915C37.653 231.941 37.5263 231.937 37.4524 231.903C37.179 231.76 36.8979 231.412 36.6091 230.86C36.5406 231.168 36.472 231.476 36.4034 231.784C36.3539 232.067 36.3246 232.254 36.3156 232.347C36.3166 232.508 36.3142 232.646 36.3085 232.761C36.2995 232.854 36.2552 232.941 36.1755 233.021C36.1755 233.021 36.171 233.068 36.162 233.161C36.153 233.254 36.0946 233.4 35.9868 233.6C35.8597 234.283 35.7416 234.874 35.6325 235.371C35.5268 235.891 35.443 236.328 35.3811 236.681C35.3226 237.056 35.2798 237.383 35.2527 237.663C35.2982 238.275 35.2636 238.887 35.1488 239.5C35.0374 240.135 34.9307 240.495 34.8286 240.579ZM37.3996 230.398C37.4826 230.34 37.6548 230.188 37.9161 229.943C38.1965 229.672 38.5055 229.362 38.8431 229.014C39.1773 228.643 39.4813 228.3 39.755 227.984C40.0511 227.665 40.2452 227.429 40.3372 227.278C40.4864 227.05 40.6228 226.811 40.7462 226.564C40.8664 226.294 40.9495 226.006 40.9957 225.702C41.0361 225.512 41.0845 225.299 41.1407 225.061C41.1969 224.824 41.2436 224.599 41.2807 224.387C41.3436 224.194 41.3505 224.01 41.3013 223.834C41.2712 223.632 41.1788 223.474 41.0242 223.36C40.9312 223.351 40.6722 223.458 40.2473 223.682C39.819 223.883 39.3609 224.192 38.8731 224.609C38.3819 225.003 37.973 225.488 37.6465 226.064C37.266 226.74 37.0123 227.419 36.8851 228.103C36.7804 228.783 36.7727 229.346 36.8621 229.791C36.9738 230.232 37.153 230.435 37.3996 230.398ZM49.8646 231.012C49.4072 231.172 49.1095 231.251 48.9717 231.249C48.8529 231.221 48.6535 231.113 48.3734 230.926C47.9879 230.8 47.6518 230.621 47.3651 230.389C47.1007 230.153 46.8908 229.898 46.7352 229.623C46.5986 229.323 46.5265 229.07 46.5188 228.865C46.4689 228.07 46.534 227.201 46.714 226.257C46.894 225.314 47.1463 224.394 47.4708 223.497C47.7954 222.601 48.1719 221.823 48.6005 221.163C49.0482 220.477 49.5053 220.008 49.9717 219.755C50.3933 219.509 50.8092 219.378 51.2194 219.363C51.6297 219.347 51.9529 219.517 52.1891 219.871C52.6224 220.471 52.6059 220.897 52.1395 221.15C52.0722 221.16 51.9988 221.206 51.9191 221.286C51.8361 221.345 51.8013 221.419 51.8147 221.508C51.9111 221.54 52.1594 221.514 52.5596 221.431C52.9564 221.326 53.3499 221.199 53.74 221.049C54.1492 220.873 54.4127 220.719 54.5305 220.587C54.655 220.5 54.7508 220.451 54.8181 220.441C54.8854 220.431 55.0568 220.428 55.3325 220.433C55.7304 220.488 55.941 220.594 55.9645 220.751C55.9778 220.841 56.0249 220.926 56.1055 221.005C56.1828 221.062 56.2663 221.084 56.3559 221.071C56.5162 221.07 56.5089 221.174 56.3339 221.384C56.1813 221.59 55.9042 221.883 55.5027 222.264C55.1169 222.597 54.8747 222.816 54.776 222.923C54.6964 223.003 54.7086 223.162 54.8126 223.398C55.0556 223.798 55.1404 224.289 55.0671 224.873C54.9939 225.457 54.799 226.07 54.4825 226.713C54.1659 227.357 53.7547 227.979 53.2488 228.582C52.762 229.159 52.2203 229.675 51.6237 230.131C51.0462 230.561 50.4598 230.855 49.8646 231.012ZM49.072 229.618C49.1617 229.605 49.3119 229.536 49.5227 229.413C49.7302 229.268 49.8961 229.151 50.0206 229.064C50.0969 228.961 50.1939 228.843 50.3117 228.711C50.4485 228.553 50.5601 228.456 50.6465 228.421C50.7361 228.407 50.8432 228.357 50.9677 228.269C51.0888 228.16 51.2543 227.963 51.464 227.68C51.6705 227.374 51.937 226.933 52.2635 226.357C52.6383 225.797 52.9188 225.297 53.1052 224.856C53.2882 224.394 53.2969 223.991 53.1313 223.649C53.0955 223.563 53.0198 223.517 52.9044 223.511C52.8114 223.502 52.6797 223.465 52.5094 223.398C52.2852 223.432 52.0639 223.408 51.8454 223.326C51.646 223.218 51.4079 223.082 51.1312 222.917L50.4927 222.324L50.0064 222.981C49.7013 223.394 49.4005 223.989 49.104 224.766C48.8267 225.518 48.6087 226.284 48.4501 227.064C48.2882 227.821 48.2166 228.417 48.2353 228.849C48.2631 229.189 48.3526 229.405 48.5039 229.497C48.6551 229.589 48.8445 229.629 49.072 229.618ZM71.599 228.18C71.525 228.146 71.3693 228.1 71.1317 228.044C70.9132 227.962 70.7799 227.913 70.7317 227.897C70.5547 227.786 70.4399 227.632 70.3874 227.433C70.3348 227.235 70.2901 227.012 70.2533 226.766C70.2389 226.516 70.178 226.261 70.0706 226.002C70.091 225.678 70.1047 225.31 70.1117 224.896C70.1188 224.482 70.1823 224.141 70.3024 223.871C70.3352 223.476 70.4028 223.008 70.5052 222.465C70.6266 221.897 70.7273 221.344 70.8073 220.804C70.9063 220.24 70.9498 219.763 70.9378 219.376C70.6125 219.653 70.3355 219.947 70.1066 220.256C69.8778 220.565 69.6937 220.868 69.5546 221.163C69.485 221.311 69.4008 221.438 69.3021 221.545C69.2001 221.629 69.1013 221.735 69.006 221.864C68.7805 222.196 68.5678 222.537 68.3681 222.887C68.1683 223.238 67.9703 223.6 67.7739 223.973C67.454 224.594 67.0714 225.178 66.626 225.726C66.1807 226.273 65.7578 226.818 65.3573 227.359C65.208 227.587 65.0264 227.752 64.8122 227.853C64.6171 227.928 64.412 227.935 64.1969 227.876C63.9111 227.804 63.6669 227.703 63.4641 227.573C63.2837 227.439 63.0821 227.24 62.8593 226.976C62.7699 226.531 62.7602 226.005 62.8301 225.399C62.9225 224.789 63.0356 224.165 63.1694 223.526C63.3256 222.884 63.4549 222.292 63.5573 221.749C63.6564 221.184 63.6824 220.745 63.6356 220.431C63.6098 220.412 63.5745 220.406 63.5297 220.413C63.5073 220.416 63.477 220.443 63.4388 220.495C62.5987 221.468 61.8997 222.466 61.342 223.489C60.8066 224.509 60.2756 225.711 59.749 227.096C59.6199 227.459 59.5041 227.912 59.4017 228.454C59.3184 228.971 59.1382 229.376 58.8612 229.669C58.8388 229.673 58.8164 229.676 58.7939 229.679C58.7906 229.657 58.7777 229.647 58.7553 229.651C58.7262 229.609 58.6926 229.614 58.6544 229.666C58.6163 229.717 58.554 229.761 58.4677 229.797C58.3556 229.814 58.2352 229.774 58.1063 229.679C57.926 229.545 57.7344 229.414 57.5316 229.283C57.3513 229.15 57.2108 228.976 57.11 228.762C57.1281 228.576 57.1607 228.411 57.2079 228.266C57.2517 228.099 57.3483 227.901 57.4975 227.673C57.5313 227.439 57.5908 227.223 57.6761 227.027C57.7839 226.828 57.8659 226.609 57.9221 226.372C58.0592 225.756 58.3175 225.029 58.6969 224.194C59.0764 223.358 59.5359 222.521 60.0756 221.685C60.6153 220.848 61.1908 220.097 61.8021 219.433C62.4134 218.769 63.0067 218.291 63.5818 217.999C63.6043 217.995 63.6155 217.993 63.6155 217.993C63.6379 217.99 63.6603 217.987 63.6827 217.983C63.9169 218.017 64.1304 218.066 64.3231 218.128C64.5125 218.169 64.7148 218.219 64.9299 218.279C65.0364 218.377 65.159 218.508 65.2979 218.671C65.4334 218.811 65.5369 218.967 65.6085 219.14C65.7384 219.395 65.7841 219.778 65.7456 220.288C65.7071 220.798 65.6462 221.311 65.5629 221.828C65.4796 222.345 65.4037 222.757 65.3351 223.065C65.3261 223.158 65.276 223.36 65.185 223.672C65.094 223.983 65.049 224.219 65.05 224.38C65.0534 224.402 65.0567 224.425 65.0601 224.447C65.0634 224.469 65.078 224.49 65.1037 224.509C65.4122 224.119 65.7079 223.72 65.9906 223.311C66.2957 222.899 66.5673 222.492 66.8051 222.089C67.3796 221.179 67.9637 220.255 68.5572 219.318C69.1699 218.356 69.8956 217.537 70.7344 216.862C70.9419 216.716 71.203 216.7 71.5179 216.814C71.8552 216.924 72.1157 217.057 72.2994 217.213C72.5761 217.378 72.7508 217.627 72.8234 217.96C72.9351 218.401 72.9711 219.026 72.9313 219.834C72.8882 220.62 72.8002 221.412 72.6674 222.211C72.557 223.007 72.4344 223.644 72.2995 224.123C72.2714 224.241 72.2512 224.336 72.2388 224.407C72.2264 224.477 72.2191 224.581 72.2167 224.719C72.2177 224.88 72.1963 225.043 72.1525 225.21C72.1311 225.374 72.108 225.526 72.0832 225.667C72.0595 225.969 72.0918 226.262 72.1801 226.547C72.2909 226.828 72.3792 227.113 72.4452 227.401C72.4485 227.423 72.4199 227.462 72.3593 227.517C72.2382 227.627 72.1171 227.736 71.996 227.846C71.8939 227.93 71.784 228.038 71.6662 228.17C71.6438 228.174 71.6326 228.175 71.6326 228.175C71.6326 228.175 71.6214 228.177 71.599 228.18ZM84.1545 214.996C84.4416 214.77 84.7583 214.665 85.1046 214.683C85.4476 214.677 85.7271 214.784 85.9433 215.004C86.1785 215.198 86.2556 215.485 86.1747 215.863C86.1994 215.722 86.1568 215.82 86.0467 216.158C85.9557 216.469 85.8332 216.877 85.6793 217.381C85.5478 217.882 85.4242 218.359 85.3085 218.812C85.2118 219.239 85.146 219.489 85.1112 219.563L85.1263 219.664C85.485 219.61 85.7147 219.691 85.8154 219.905C85.9352 220.093 86.004 220.324 86.0217 220.596C85.7594 220.681 85.5805 220.788 85.4852 220.917C85.3865 221.023 85.2491 221.101 85.0731 221.15C85.0059 221.16 84.9324 221.205 84.8528 221.286C84.7732 221.367 84.7288 221.454 84.7198 221.547C84.7074 221.617 84.6803 221.896 84.6385 222.384C84.6158 222.845 84.5773 223.355 84.5231 223.914C84.488 224.446 84.4457 224.853 84.3961 225.136C84.3781 225.322 84.3102 225.481 84.1924 225.613C84.0713 225.723 83.99 225.792 83.9485 225.821C83.4733 225.709 83.1539 225.642 82.9903 225.621C82.8458 225.573 82.6979 225.504 82.5466 225.412C82.5041 225.281 82.4807 225.124 82.4764 224.941C82.4687 224.736 82.4896 224.492 82.5391 224.21C82.601 223.857 82.6438 223.529 82.6675 223.228C82.7104 222.901 82.7348 222.45 82.7408 221.876C82.6444 221.845 82.4539 221.873 82.1691 221.962C81.9035 222.024 81.617 222.101 81.3099 222.193C81.0027 222.285 80.7404 222.37 80.5229 222.448C80.3278 222.523 80.2398 222.548 80.2589 222.522C80.1535 222.583 79.9455 222.649 79.635 222.718C79.3436 222.762 79.0393 222.796 78.7221 222.82C78.4239 222.819 78.2043 222.806 78.0631 222.781L77.8764 222.912C77.8874 223.139 77.8367 223.491 77.7243 223.966C77.6086 224.419 77.5791 224.836 77.636 225.217C77.6571 225.511 77.6558 225.81 77.632 226.111C77.6083 226.413 77.6086 226.722 77.633 227.039C77.6842 227.536 77.5949 227.858 77.365 228.007C77.1576 228.153 76.7984 228.126 76.2875 227.927C76.1653 227.877 76.0415 227.815 75.916 227.742C75.813 227.666 75.697 227.58 75.5682 227.485L75.7197 224.815C75.7626 224.488 75.7975 224.185 75.8246 223.906C75.8484 223.604 75.885 223.312 75.9345 223.03C76.0402 222.51 76.1331 221.98 76.213 221.441C76.3154 220.899 76.4452 220.387 76.6025 219.905C76.6025 219.905 76.6194 219.788 76.6532 219.554C76.706 219.294 76.7667 219.01 76.8353 218.701C76.9006 218.371 76.9534 218.111 76.9939 217.921C77.0344 217.732 77.0406 217.697 77.0125 217.816C77.0597 217.671 77.1221 217.398 77.1997 216.997C77.2739 216.573 77.3404 216.174 77.3989 215.798C77.4765 215.397 77.5137 215.185 77.5103 215.163C77.5351 215.022 77.5889 214.922 77.6719 214.864C77.7515 214.783 77.8586 214.733 77.9931 214.713C78.3709 214.633 78.6981 214.676 78.9749 214.841C79.2482 214.984 79.4162 215.188 79.4788 215.454C79.4764 215.591 79.4836 215.716 79.5004 215.828C79.5171 215.941 79.5081 216.034 79.4733 216.108L78.3622 220.639L78.4023 220.908C78.6466 221.009 78.975 220.983 79.3876 220.83C79.8192 220.651 80.1471 220.545 80.3713 220.511C80.48 220.472 80.7345 220.411 81.1347 220.329C81.5573 220.243 81.9591 220.171 82.3402 220.114C82.7438 220.054 82.9584 220.033 82.9842 220.052C83.1304 219.343 83.2609 218.682 83.3756 218.069C83.487 217.433 83.6752 216.775 83.9402 216.094C83.9559 216.046 83.979 215.893 84.0095 215.637C84.0623 215.377 84.1107 215.163 84.1545 214.996ZM95.6269 225.041C94.8948 225.356 94.3718 225.537 94.058 225.584C93.7441 225.631 93.3844 225.524 92.9789 225.264C92.85 225.169 92.766 225.067 92.7269 224.958C92.6844 224.827 92.6166 224.757 92.5236 224.747C92.4778 224.594 92.4706 224.469 92.502 224.373C92.5525 224.25 92.6832 224.128 92.894 224.005C93.2604 224.156 93.6947 224.149 94.1969 223.982C94.6992 223.815 95.1751 223.55 95.6248 223.184C96.0936 222.794 96.4419 222.364 96.6698 221.894C97.0378 221.289 97.31 220.733 97.4863 220.225C97.6593 219.695 97.7286 219.238 97.6941 218.854C97.6606 218.629 97.6036 218.477 97.5229 218.398C97.4614 218.292 97.3242 218.141 97.1114 217.944C96.7279 218.138 96.3814 218.35 96.0719 218.58C95.7848 218.806 95.5555 219.035 95.3838 219.267C94.795 219.928 94.3367 220.466 94.0092 220.882C93.704 221.294 93.4437 221.7 93.2282 222.098C93.0352 222.494 92.7933 223.023 92.5025 223.685C92.3566 223.936 92.2136 224.129 92.0734 224.265C91.9556 224.397 91.8183 224.475 91.6613 224.498C91.7955 224.936 91.6788 225.229 91.311 225.375C90.8011 225.337 90.4207 225.245 90.1697 225.099C89.9154 224.931 89.7913 224.559 89.7973 223.986C89.8401 223.658 89.8745 223.275 89.9006 222.836C89.9234 222.374 89.969 221.989 90.0376 221.681C90.3615 220.166 90.6415 218.818 90.8777 217.637C91.1363 216.452 91.3874 215.601 91.631 215.083L92.0847 213.056C92.4691 213.022 92.7723 213.057 92.9941 213.161C93.2126 213.243 93.4899 213.488 93.8258 213.896C93.8425 214.008 93.779 214.35 93.6351 214.922C93.5103 215.467 93.3524 216.098 93.1614 216.814C92.9927 217.527 92.8286 218.193 92.669 218.813C92.5285 219.407 92.4302 219.823 92.3739 220.06C92.3211 220.32 92.3816 220.265 92.5556 219.896C92.752 219.522 93.1144 219.033 93.6427 218.427C93.8907 218.092 94.2092 217.769 94.5983 217.459C94.9841 217.127 95.3127 216.871 95.584 216.693C95.8778 216.512 96.1239 216.395 96.3223 216.343C96.5207 216.29 96.6631 216.246 96.7494 216.21C97.3099 216.126 97.78 216.205 98.1598 216.446C98.5362 216.665 98.8185 216.944 99.0065 217.283C99.217 217.618 99.339 217.898 99.3724 218.122C99.4932 218.47 99.5899 218.811 99.6626 219.144C99.7542 219.451 99.782 219.791 99.7459 220.163C99.7054 220.352 99.6189 220.617 99.4864 220.958C99.3539 221.299 99.1895 221.655 98.9931 222.029C98.8158 222.376 98.5852 222.674 98.3015 222.922C98.1298 223.154 97.8926 223.407 97.5898 223.682C97.287 223.956 96.9601 224.223 96.6091 224.481C96.2772 224.714 95.9498 224.901 95.6269 225.041ZM102.702 224.534C102.291 224.55 101.937 224.477 101.638 224.315C101.358 224.128 101.13 223.829 100.954 223.42C100.897 223.039 100.89 222.685 100.933 222.358C100.995 222.005 101.036 221.666 101.056 221.342C101.092 220.81 101.171 220.271 101.296 219.725C101.421 219.179 101.523 218.637 101.603 218.098C101.691 217.764 101.758 217.445 101.804 217.14C101.85 216.835 101.896 216.53 101.943 216.225C102.001 215.85 102.061 215.486 102.123 215.133C102.185 214.78 102.247 214.427 102.309 214.074C102.355 213.769 102.377 213.456 102.375 213.136C102.396 212.812 102.405 212.49 102.403 212.169C102.609 211.863 102.862 211.711 103.16 211.712C103.48 211.71 103.9 211.911 104.418 212.315C104.571 212.567 104.664 212.806 104.697 213.03C104.727 213.232 104.703 213.453 104.624 213.694C104.565 213.909 104.487 214.23 104.39 214.657C104.316 215.081 104.23 215.506 104.133 215.933C104.056 216.334 103.998 216.64 103.961 216.852C103.953 217.106 103.89 217.528 103.772 218.118C103.676 218.705 103.573 219.317 103.461 219.952C103.347 220.565 103.271 221.058 103.235 221.43C103.151 221.786 103.098 222.126 103.078 222.45C103.058 222.774 103.049 223.176 103.052 223.657C103.127 223.852 103.118 224.025 103.026 224.177C102.953 224.302 102.845 224.421 102.702 224.534ZM115.567 222.442C115.423 222.555 115.205 222.553 114.913 222.437C114.643 222.316 114.361 222.118 114.067 221.841C113.87 221.595 113.715 221.321 113.601 221.017C113.509 220.71 113.421 220.276 113.338 219.715C113.293 219.264 113.227 218.976 113.14 218.851C113.075 218.723 112.955 218.764 112.78 218.974C112.602 219.161 112.303 219.537 111.883 220.104C111.406 220.748 110.934 221.266 110.465 221.657C110.018 222.044 109.637 222.25 109.319 222.275C109.163 222.298 108.971 222.246 108.746 222.12C108.54 221.967 108.34 221.779 108.147 221.556C107.949 221.31 107.775 221.061 107.623 220.809C107.414 220.336 107.298 219.712 107.274 218.936C107.269 218.135 107.326 217.29 107.446 216.401C107.565 215.512 107.725 214.663 107.925 213.854C108.147 213.042 108.392 212.375 108.658 211.854C108.946 211.33 109.225 211.048 109.494 211.007C109.673 210.981 109.844 211.047 110.005 211.206C110.189 211.362 110.387 211.619 110.601 211.977C110.714 212.12 110.768 212.25 110.762 212.365C110.779 212.477 110.709 212.625 110.553 212.809C110.392 213.108 110.217 213.546 110.028 214.125C109.862 214.7 109.702 215.319 109.549 215.984C109.419 216.645 109.307 217.28 109.215 217.89C109.123 218.5 109.071 219 109.061 219.391C109.047 219.76 109.085 219.938 109.175 219.924C109.489 219.877 109.84 219.699 110.229 219.389C110.638 219.053 111.015 218.664 111.362 218.223C111.762 217.682 112.1 217.104 112.375 216.49C112.672 215.873 112.965 215.222 113.252 214.537C113.477 214.045 113.706 213.507 113.939 212.922C114.195 212.334 114.351 211.921 114.408 211.683C114.634 211.054 114.811 210.626 114.938 210.401C115.061 210.153 115.23 209.979 115.444 209.878C115.557 209.862 115.657 209.847 115.747 209.833C115.859 209.817 115.915 209.808 115.915 209.808C116.053 209.811 116.225 209.888 116.431 210.041C116.624 210.103 116.738 210.178 116.774 210.264C116.806 210.328 116.831 210.416 116.848 210.528C116.792 210.766 116.696 211.124 116.561 211.602C116.445 212.055 116.358 212.389 116.298 212.604C116.016 213.632 115.732 214.648 115.447 215.653C115.181 216.633 115.03 217.618 114.994 218.609C114.996 218.929 115.04 219.301 115.126 219.723C115.232 220.12 115.342 220.402 115.459 220.567C115.546 220.692 115.648 220.837 115.764 221.003C115.9 221.143 116.043 221.259 116.195 221.351C116.416 221.456 116.472 221.597 116.361 221.774C116.272 221.947 116.135 222.105 115.95 222.247C115.762 222.367 115.634 222.432 115.567 222.442ZM113.046 208.552C112.365 208.745 111.752 208.631 111.207 208.208C110.663 207.785 110.195 207.11 109.805 206.183C109.733 206.01 109.688 205.856 109.667 205.722C109.666 205.562 109.691 205.42 109.742 205.298C109.773 205.202 109.853 205.121 109.981 205.056C110.105 204.969 110.215 204.941 110.312 204.972C110.642 205.038 110.888 205.15 111.05 205.309C111.23 205.443 111.361 205.629 111.443 205.869C111.504 205.975 111.543 206.084 111.56 206.196C111.599 206.304 111.617 206.348 111.614 206.325C111.779 206.667 111.962 206.892 112.161 207C112.361 207.107 112.628 207.056 112.963 206.846C113.321 206.632 113.664 206.397 113.993 206.142C114.344 205.883 114.643 205.586 114.891 205.251C115.101 204.968 115.303 204.709 115.497 204.473C115.713 204.235 115.917 203.987 116.108 203.729L116.136 203.69C116.216 203.61 116.325 203.571 116.463 203.573C116.6 203.575 116.684 203.597 116.713 203.639C116.893 203.772 116.995 203.917 117.019 204.074C117.042 204.231 117.067 204.399 117.094 204.579L117.07 204.651C117.135 204.779 117.062 205.053 116.85 205.475C116.66 205.893 116.406 206.263 116.087 206.585C115.81 206.879 115.507 207.153 115.179 207.409C114.85 207.664 114.509 207.91 114.154 208.146C114.011 208.259 113.851 208.34 113.675 208.389C113.518 208.413 113.309 208.467 113.046 208.552ZM132.617 219.863C132.281 219.913 131.851 219.954 131.329 219.986C130.829 220.015 130.356 219.765 129.911 219.235C129.629 218.888 129.396 218.476 129.21 217.999C129.047 217.519 128.995 217.172 129.055 216.957C129.111 215.184 129.18 213.959 129.262 213.282C129.345 212.605 129.39 212.22 129.399 212.127C129.431 212.03 129.489 211.804 129.573 211.448C129.676 211.066 129.733 210.828 129.742 210.735C129.8 210.36 129.774 209.951 129.662 209.509C129.613 209.333 129.6 209.175 129.625 209.034C129.669 208.867 129.75 208.717 129.868 208.585C130.205 208.237 130.451 207.81 130.605 207.306C130.649 207.139 130.732 206.852 130.854 206.444C130.996 206.01 131.139 205.588 131.284 205.176C131.448 204.739 131.574 204.434 131.663 204.26C131.955 203.758 132.209 203.239 132.427 202.702C132.664 202.14 132.978 201.635 133.37 201.187C133.588 200.65 133.89 200.146 134.279 199.676C134.663 199.183 135.053 198.724 135.448 198.298C135.843 197.873 136.155 197.505 136.384 197.196C136.479 197.067 136.766 196.921 137.246 196.758C137.745 196.569 138.145 196.406 138.445 196.269C138.57 196.182 138.836 196.2 139.244 196.322C139.648 196.422 139.944 196.561 140.131 196.74C140.496 197.189 140.725 197.568 140.816 197.875C140.93 198.179 140.941 198.555 140.848 199.005C140.773 199.428 140.598 200.096 140.322 201.008C140.007 201.972 139.495 202.919 138.786 203.85C138.096 204.755 137.369 205.563 136.604 206.273C136.235 206.718 135.839 207.132 135.415 207.516C135.013 207.897 134.595 208.246 134.161 208.563C133.893 208.763 133.612 208.954 133.319 209.135C133.047 209.313 132.763 209.482 132.466 209.641C132.316 209.709 132.183 209.82 132.069 209.975C131.951 210.107 131.864 210.292 131.808 210.53C131.72 210.864 131.682 211.144 131.693 211.372C131.723 211.574 131.681 211.752 131.567 211.906C131.509 211.984 131.449 212.268 131.384 212.759C131.339 213.224 131.285 213.782 131.222 214.433C131.178 215.058 131.151 215.647 131.142 216.198C131.129 216.727 131.147 217.08 131.196 217.256C131.235 217.364 131.276 217.484 131.319 217.616C131.38 217.721 131.495 217.796 131.662 217.839C131.988 217.722 132.24 217.57 132.418 217.383C132.593 217.173 132.783 216.904 132.986 216.576C133.204 216.2 133.397 215.804 133.565 215.39C133.754 214.972 133.898 214.549 133.994 214.122C134.047 213.862 134.076 213.594 134.081 213.319C134.082 213.021 134.122 212.751 134.201 212.51C134.124 211.995 134.056 211.615 133.996 211.372C133.956 211.103 133.902 210.893 133.834 210.743C133.784 210.567 133.698 210.374 133.575 210.163C133.738 210.024 133.825 209.919 133.838 209.849C133.872 209.775 133.972 209.748 134.135 209.77C134.437 209.793 134.723 209.865 134.993 209.986C135.285 210.102 135.573 210.266 135.856 210.475C135.959 210.552 136.029 210.633 136.065 210.719C136.1 210.806 136.104 210.908 136.076 211.027C136.094 211.299 136.1 211.573 136.096 211.849C136.11 212.099 136.136 212.347 136.173 212.594C136.059 212.909 136.005 213.238 136.011 213.581C136.013 213.901 135.981 214.227 135.916 214.557C135.825 214.869 135.734 215.18 135.643 215.492C135.552 215.803 135.435 216.096 135.292 216.369C135.097 216.903 134.848 217.387 134.547 217.821C134.267 218.253 133.96 218.654 133.626 219.024L132.617 219.863ZM132.311 207.223C132.587 207.228 132.779 207.211 132.888 207.171C133.016 207.106 133.134 206.974 133.241 206.775C134.191 205.923 135.053 205.095 135.827 204.292C136.598 203.466 137.228 202.696 137.717 201.982C138.225 201.241 138.532 200.611 138.638 200.091C138.713 199.828 138.801 199.574 138.902 199.33C139.026 199.082 139.088 198.809 139.089 198.511L138.814 197.589C138.23 197.975 137.766 198.319 137.422 198.622C137.1 198.923 136.691 199.408 136.195 200.077C136.004 200.335 135.725 200.766 135.357 201.371C135.008 201.951 134.624 202.604 134.205 203.331C133.787 204.058 133.4 204.769 133.046 205.463C132.713 206.155 132.469 206.741 132.311 207.223ZM143.704 217.864C142.971 218.179 142.448 218.361 142.135 218.407C141.821 218.454 141.461 218.347 141.056 218.087C140.927 217.992 140.843 217.89 140.804 217.781C140.761 217.65 140.693 217.58 140.6 217.571C140.554 217.417 140.547 217.292 140.579 217.196C140.629 217.074 140.76 216.951 140.971 216.828C141.337 216.979 141.771 216.972 142.274 216.805C142.776 216.639 143.252 216.373 143.702 216.008C144.17 215.617 144.519 215.187 144.746 214.717C145.114 214.112 145.387 213.556 145.563 213.048C145.736 212.518 145.805 212.061 145.771 211.677C145.737 211.453 145.68 211.301 145.6 211.221C145.538 211.116 145.401 210.964 145.188 210.767C144.805 210.962 144.458 211.174 144.149 211.403C143.862 211.629 143.632 211.859 143.461 212.09C142.872 212.751 142.413 213.289 142.086 213.705C141.781 214.117 141.52 214.523 141.305 214.922C141.112 215.317 140.87 215.846 140.579 216.508C140.433 216.759 140.29 216.952 140.15 217.088C140.032 217.22 139.895 217.298 139.738 217.321C139.872 217.76 139.755 218.052 139.388 218.199C138.878 218.16 138.497 218.068 138.246 217.922C137.992 217.754 137.868 217.383 137.874 216.809C137.917 216.482 137.951 216.098 137.977 215.659C138 215.197 138.046 214.812 138.114 214.504C138.438 212.989 138.718 211.641 138.954 210.46C139.213 209.275 139.464 208.424 139.708 207.907L140.161 205.879C140.546 205.845 140.849 205.88 141.071 205.984C141.289 206.066 141.567 206.311 141.902 206.72C141.919 206.832 141.856 207.173 141.712 207.745C141.587 208.291 141.429 208.922 141.238 209.638C141.069 210.35 140.905 211.017 140.746 211.636C140.605 212.23 140.507 212.646 140.451 212.883C140.398 213.143 140.458 213.089 140.632 212.719C140.829 212.346 141.191 211.856 141.719 211.25C141.967 210.915 142.286 210.593 142.675 210.283C143.061 209.95 143.389 209.695 143.661 209.517C143.954 209.335 144.201 209.218 144.399 209.166C144.597 209.113 144.74 209.069 144.826 209.033C145.387 208.95 145.857 209.028 146.236 209.27C146.613 209.488 146.895 209.767 147.083 210.106C147.294 210.441 147.416 210.721 147.449 210.945C147.57 211.294 147.667 211.634 147.739 211.967C147.831 212.274 147.859 212.614 147.823 212.986C147.782 213.176 147.696 213.441 147.563 213.781C147.431 214.122 147.266 214.479 147.07 214.852C146.892 215.199 146.662 215.497 146.378 215.746C146.207 215.978 145.969 216.231 145.666 216.505C145.364 216.779 145.037 217.046 144.686 217.305C144.354 217.538 144.026 217.724 143.704 217.864ZM150.778 217.358C150.368 217.373 150.013 217.3 149.714 217.138C149.434 216.951 149.206 216.653 149.031 216.244C148.974 215.862 148.967 215.508 149.01 215.181C149.072 214.828 149.113 214.49 149.133 214.166C149.168 213.633 149.248 213.094 149.373 212.548C149.498 212.003 149.6 211.46 149.68 210.921C149.768 210.587 149.835 210.268 149.881 209.963C149.927 209.658 149.973 209.354 150.019 209.049C150.078 208.673 150.138 208.309 150.2 207.956C150.262 207.603 150.324 207.25 150.386 206.897C150.432 206.592 150.454 206.28 150.452 205.959C150.472 205.635 150.481 205.313 150.479 204.992C150.686 204.686 150.938 204.534 151.236 204.536C151.557 204.534 151.976 204.734 152.495 205.138C152.647 205.391 152.74 205.629 152.774 205.853C152.804 206.055 152.78 206.276 152.701 206.517C152.641 206.732 152.563 207.053 152.467 207.48C152.392 207.904 152.307 208.329 152.21 208.756C152.132 209.157 152.075 209.464 152.038 209.676C152.03 209.929 151.967 210.351 151.849 210.941C151.753 211.529 151.65 212.14 151.538 212.775C151.423 213.388 151.348 213.881 151.312 214.253C151.228 214.609 151.175 214.949 151.155 215.273C151.134 215.597 151.126 216 151.129 216.48C151.204 216.675 151.195 216.849 151.103 217C151.03 217.125 150.922 217.245 150.778 217.358ZM157.878 216.023C157.708 215.957 157.526 215.892 157.333 215.829C157.163 215.763 156.993 215.697 156.822 215.63C156.675 215.561 156.538 215.49 156.412 215.417C155.878 215.061 155.496 214.648 155.265 214.178C155.054 213.683 154.935 213.196 154.91 212.719C154.884 212.241 154.891 211.828 154.931 211.478C154.967 211.106 154.975 210.853 154.955 210.718C154.906 210.542 154.914 210.369 154.98 210.199C155.043 210.006 155.106 209.813 155.169 209.621C155.455 208.776 155.725 208.048 155.978 207.437C156.249 206.801 156.664 206.051 157.223 205.189C157.341 205.057 157.449 204.937 157.548 204.831C157.666 204.699 157.789 204.6 157.916 204.535L158.775 204.992C158.878 205.068 158.951 205.172 158.993 205.303C159.033 205.411 159.034 205.572 158.997 205.784C158.975 205.947 158.942 206.112 158.899 206.279C158.874 206.421 158.825 206.554 158.752 206.679C158.425 207.095 158.182 207.544 158.025 208.026C157.864 208.485 157.694 208.957 157.514 209.442C157.545 209.644 157.491 209.824 157.354 209.982C157.214 210.117 157.15 210.299 157.161 210.527C157.184 210.683 157.185 210.844 157.164 211.007C157.142 211.171 157.123 211.346 157.104 211.532C157.001 211.914 156.986 212.271 157.058 212.604C157.131 212.937 157.194 213.283 157.248 213.642C157.44 213.705 157.606 213.737 157.743 213.74C157.878 213.72 158.041 213.581 158.231 213.323C158.623 212.875 158.886 212.492 159.022 212.174C159.181 211.852 159.294 211.537 159.363 211.229C159.431 210.921 159.538 210.561 159.683 210.15C159.85 209.735 159.969 209.225 160.039 208.619C160.108 208.012 160.139 207.446 160.129 206.921C160.116 206.373 160.062 206.014 159.968 205.845C159.929 205.736 159.92 205.6 159.942 205.436C159.963 205.273 159.872 205.126 159.67 204.996C159.746 204.892 159.766 204.718 159.729 204.471C159.692 204.224 159.631 203.97 159.546 203.708C159.461 203.445 159.365 203.265 159.259 203.166C159.08 202.276 158.935 201.53 158.822 200.928C158.728 200.3 158.659 199.761 158.614 199.309C158.589 198.831 158.58 198.386 158.587 197.972C158.599 197.902 158.7 197.658 158.89 197.24C159.099 196.796 159.298 196.445 159.489 196.188C159.82 195.794 160.297 195.46 160.921 195.183C161.563 194.881 162.123 194.717 162.6 194.692C162.581 194.718 162.718 194.709 163.009 194.665C163.323 194.618 163.669 194.555 164.046 194.476C164.424 194.397 164.701 194.332 164.877 194.283C165.05 194.212 165.222 194.14 165.395 194.068C165.568 193.997 165.849 193.806 166.238 193.496C166.4 193.357 166.541 193.302 166.66 193.33L167.683 193.968C167.754 194.599 167.668 195.093 167.423 195.45C167.175 195.785 166.643 196.059 165.827 196.273C165.693 196.293 165.547 196.315 165.39 196.338C165.23 196.339 165.075 196.374 164.924 196.442C164.796 196.507 164.673 196.525 164.554 196.497C164.458 196.466 164.32 196.463 164.141 196.49C163.894 196.527 163.641 196.599 163.382 196.706C163.12 196.791 162.838 196.822 162.537 196.798C161.763 197.143 161.181 197.539 160.789 197.987C160.398 198.435 160.267 199.097 160.398 199.971C160.611 200.787 160.834 201.51 161.065 202.14C161.319 202.767 161.505 203.473 161.622 204.257C161.697 204.452 161.778 204.612 161.865 204.736C161.953 204.861 161.941 205.012 161.83 205.189C162.019 205.688 162.15 206.184 162.224 206.677C162.294 207.148 162.28 207.516 162.183 207.783C162.161 207.947 162.171 208.243 162.212 208.672C162.272 209.076 162.224 209.519 162.067 210C161.708 211.131 161.322 212.151 160.908 213.061C160.49 213.948 159.909 214.734 159.163 215.419C159.019 215.532 158.839 215.627 158.621 215.706C158.426 215.781 158.178 215.886 157.878 216.023ZM168.206 214.137C167.914 214.181 167.671 214.16 167.475 214.075C167.301 213.986 167.076 213.859 166.799 213.694C166.306 213.309 165.94 212.929 165.7 212.552C165.457 212.153 165.341 211.758 165.351 211.366C165.392 211.177 165.389 211.006 165.343 210.852C165.317 210.673 165.303 210.583 165.303 210.583C165.174 210.488 165.131 210.425 165.172 210.396C165.21 210.345 165.245 210.271 165.277 210.174C165.411 210.154 165.438 210.024 165.356 209.784C165.284 209.612 165.315 209.206 165.449 208.567C165.583 207.929 165.778 207.315 166.034 206.727C166.135 206.483 166.293 206.161 166.509 205.762C166.721 205.341 166.957 204.928 167.217 204.522C167.497 204.091 167.754 203.743 167.99 203.478C168.48 202.924 168.921 202.503 169.314 202.215C169.706 201.927 170.141 201.691 170.617 201.505C171.094 201.319 171.422 201.213 171.601 201.186C171.803 201.156 172.098 201.295 172.488 201.604C173.037 201.751 173.447 201.965 173.718 202.245C174.012 202.522 174.237 202.958 174.395 203.554C174.563 204.216 174.622 204.998 174.573 205.899C174.543 206.774 174.176 207.918 173.47 209.33C173.03 210.22 172.604 210.903 172.194 211.376C171.78 211.828 171.276 212.293 170.683 212.771C170.259 213.155 169.868 213.454 169.511 213.668C169.15 213.859 168.715 214.016 168.206 214.137ZM170.902 210.091C171.35 209.405 171.69 208.77 171.924 208.185C172.18 207.597 172.391 206.866 172.559 205.993C172.612 205.733 172.623 205.422 172.592 205.06C172.557 204.676 172.494 204.33 172.402 204.023C172.33 203.69 172.223 203.511 172.082 203.486C171.789 203.37 171.458 203.373 171.086 203.497C170.712 203.599 170.329 203.874 169.938 204.322C169.33 205.009 168.833 205.828 168.448 206.779C168.06 207.708 167.701 208.758 167.372 209.93C167.156 210.788 167.174 211.45 167.427 211.916C167.699 212.357 168.139 212.463 168.747 212.235C169.373 211.981 170.092 211.266 170.902 210.091ZM178.829 219.083C178.586 219.303 178.305 219.333 177.983 219.175C177.684 219.013 177.437 218.741 177.242 218.358C177.047 217.974 176.995 217.546 177.085 217.075C177.11 216.933 177.144 216.699 177.186 216.372C177.233 216.067 177.25 215.801 177.239 215.573C177.238 215.413 177.265 215.134 177.32 214.736C177.379 214.361 177.449 213.984 177.53 213.605C177.633 213.223 177.718 212.947 177.784 212.776C177.885 212.532 177.936 212.261 177.938 211.963C177.961 211.661 177.962 211.432 177.938 211.275C177.96 211.112 177.989 210.924 178.026 210.712C178.086 210.497 178.152 210.327 178.225 210.201C178.243 210.015 178.282 209.814 178.341 209.599C178.397 209.362 178.47 209.156 178.558 208.982C178.58 208.819 178.585 208.623 178.574 208.396C178.585 208.165 178.634 208.031 178.721 207.996C178.73 207.903 178.727 207.811 178.714 207.722C178.723 207.629 178.75 207.499 178.793 207.332C178.801 207.078 178.849 206.705 178.935 206.21C179.022 205.716 179.136 205.172 179.276 204.578C179.426 203.891 179.446 203.258 179.336 202.679C179.246 202.073 179.023 201.728 178.666 201.644C178.473 201.581 178.343 201.475 178.275 201.324C178.203 201.152 178.199 200.969 178.262 200.776C178.325 200.584 178.441 200.44 178.61 200.346C178.798 200.226 179.006 200.161 179.234 200.15C179.484 200.136 179.703 200.149 179.893 200.189C180.079 200.207 180.164 200.24 180.148 200.288C180.165 200.401 180.231 200.459 180.347 200.465C180.381 200.391 180.483 200.456 180.651 200.66C180.838 200.839 181.019 201.052 181.193 201.301C181.368 201.55 181.464 201.731 181.48 201.843C181.449 201.939 181.435 201.999 181.438 202.021C181.438 202.021 181.483 202.014 181.573 202.001C181.573 202.001 181.688 201.926 181.918 201.778C182.144 201.606 182.38 201.422 182.626 201.225C182.89 201.002 183.061 200.839 183.137 200.736C183.137 200.736 183.19 200.705 183.295 200.644C183.42 200.556 183.52 200.461 183.596 200.358C184.018 200.112 184.495 200.006 185.027 200.041C185.582 200.073 186.038 200.211 186.396 200.456C186.928 200.949 187.232 201.454 187.309 201.97C187.408 202.482 187.36 203.154 187.163 203.985C187.135 204.104 187.062 204.31 186.946 204.602C186.848 204.869 186.749 205.124 186.648 205.369C186.543 205.59 186.491 205.701 186.491 205.701C186.096 206.585 185.591 207.348 184.976 207.99C184.362 208.632 183.726 209.208 183.069 209.719C182.868 209.909 182.651 210.067 182.418 210.194C182.204 210.295 182.008 210.37 181.832 210.419C181.653 210.446 181.526 210.442 181.452 210.407C181.179 210.264 180.898 209.917 180.609 209.364C180.541 209.672 180.472 209.98 180.404 210.288C180.354 210.571 180.325 210.758 180.316 210.851C180.317 211.012 180.314 211.15 180.309 211.265C180.3 211.358 180.255 211.445 180.176 211.526C180.176 211.526 180.171 211.572 180.162 211.665C180.153 211.758 180.095 211.904 179.987 212.104C179.86 212.787 179.742 213.378 179.633 213.875C179.527 214.395 179.443 214.832 179.381 215.185C179.323 215.56 179.28 215.888 179.253 216.167C179.298 216.779 179.264 217.391 179.149 218.004C179.038 218.64 178.931 218.999 178.829 219.083ZM181.4 208.902C181.483 208.844 181.655 208.692 181.916 208.447C182.197 208.176 182.506 207.866 182.843 207.518C183.177 207.147 183.481 206.804 183.755 206.488C184.051 206.169 184.245 205.933 184.337 205.782C184.487 205.554 184.623 205.316 184.746 205.068C184.866 204.798 184.95 204.51 184.996 204.206C185.036 204.016 185.085 203.803 185.141 203.565C185.197 203.328 185.244 203.103 185.281 202.891C185.344 202.698 185.351 202.514 185.301 202.338C185.271 202.136 185.179 201.978 185.024 201.864C184.931 201.855 184.672 201.962 184.247 202.186C183.819 202.387 183.361 202.696 182.873 203.113C182.382 203.507 181.973 203.992 181.647 204.568C181.266 205.244 181.012 205.923 180.885 206.607C180.781 207.287 180.773 207.85 180.862 208.295C180.974 208.736 181.153 208.939 181.4 208.902ZM55.3679 265.255C54.9925 265.197 54.6535 265.075 54.3511 264.891C54.0452 264.685 53.7473 264.454 53.4571 264.2C53.325 264.082 53.0943 263.841 52.765 263.478C52.4357 263.115 52.0774 262.71 51.6899 262.263C51.3248 261.814 50.976 261.396 50.6434 261.01C50.3075 260.602 50.0555 260.296 49.8875 260.092C49.8256 260.445 49.7442 260.743 49.6431 260.988C49.5611 261.206 49.5536 261.539 49.6205 261.988C49.4432 262.335 49.3286 262.719 49.2768 263.139C49.244 263.534 49.2 263.93 49.1448 264.328C49.1144 264.584 49.0357 264.825 48.9089 265.05C48.8045 265.272 48.652 265.478 48.4512 265.669C48.1788 265.687 47.9301 265.632 47.7049 265.505C47.5021 265.375 47.3217 265.242 47.1638 265.105C46.9891 264.856 46.8946 264.606 46.8802 264.356C46.8658 264.106 46.8867 263.863 46.9429 263.625C46.9577 263.417 47.0224 263.006 47.1371 262.393C47.2743 261.777 47.416 261.114 47.5622 260.404C47.7051 259.673 47.8372 259.023 47.9587 258.454C48.0768 257.864 48.137 257.5 48.1393 257.362C48.2069 256.893 48.3703 256.376 48.6297 255.81C48.908 255.219 49.0676 254.599 49.1084 253.951C49.1298 253.788 49.2202 253.625 49.3794 253.464C49.5354 253.28 49.7254 253.172 49.9496 253.138C50.1929 253.079 50.413 253.172 50.6101 253.418C50.6583 253.434 50.7306 253.457 50.8269 253.489C50.92 253.498 50.9939 253.532 51.0488 253.593C51.2582 253.768 51.3909 253.966 51.4468 254.187C51.5251 254.404 51.5154 254.646 51.4177 254.913C51.2032 255.472 51.0202 255.935 50.8687 256.301C50.7362 256.642 50.6087 257.016 50.4862 257.424C50.3638 257.832 50.2407 258.389 50.1169 259.095C50.4846 258.948 50.7548 258.839 50.9274 258.768C51.0967 258.674 51.2498 258.548 51.3867 258.39C51.5426 258.206 51.7428 257.935 51.9874 257.578C52.0828 257.449 52.2752 257.203 52.5646 256.839C52.8731 256.449 53.1894 256.035 53.5137 255.597C53.8603 255.156 54.1576 254.768 54.4055 254.433C54.6759 254.094 54.8189 253.901 54.8346 253.853C54.939 253.631 55.0468 253.432 55.1578 253.255C55.288 253.052 55.4697 252.887 55.7029 252.761C56.0459 252.755 56.2913 252.787 56.4392 252.857C56.5837 252.904 56.87 253.056 57.298 253.313C57.4234 253.386 57.5001 253.592 57.5278 253.932C57.5523 254.249 57.4658 254.514 57.2684 254.727C56.9117 255.101 56.4675 255.58 55.9359 256.164C55.4042 256.747 54.831 257.36 54.2164 258.002C53.6242 258.64 53.0269 259.245 52.4246 259.816C52.8155 260.285 53.1693 260.736 53.4862 261.17C53.7997 261.582 54.0584 261.933 54.2622 262.223C54.3907 262.777 54.6493 263.128 55.0381 263.276C55.446 263.399 55.919 263.42 56.457 263.339C56.6497 263.402 56.7786 263.498 56.8435 263.625C56.9275 263.727 56.9812 263.857 57.0046 264.014C57.0471 264.145 57.0896 264.276 57.1321 264.407C56.8483 264.656 56.6509 264.869 56.5399 265.046C56.4478 265.197 56.325 265.296 56.1715 265.341C56.037 265.361 55.7691 265.333 55.3679 265.255ZM59.9565 263.951C59.8401 263.785 59.7079 263.668 59.56 263.598C59.4087 263.506 59.3264 263.415 59.313 263.325C59.2997 263.236 59.2751 263.148 59.2393 263.061C59.2225 262.949 59.1626 262.855 59.0596 262.779C58.9274 262.661 58.8934 262.357 58.9577 261.866C59.0185 261.353 59.154 260.725 59.3642 259.983C59.5709 259.219 59.8287 258.413 60.1375 257.565C60.2901 257.359 60.4343 257.096 60.5702 256.778C60.706 256.46 60.8121 256.249 60.8884 256.146C60.875 256.057 60.8969 255.973 60.9541 255.896C61.008 255.796 61.0797 255.74 61.1694 255.726L61.1393 255.524C61.1226 255.412 61.195 255.207 61.3566 254.908C61.5406 254.605 61.7661 254.273 62.0331 253.913C62.2968 253.53 62.575 253.167 62.8678 252.826C63.1572 252.462 63.404 252.196 63.6081 252.028C64.032 251.643 64.4856 251.381 64.9687 251.24C65.4743 251.096 65.9282 251.143 66.3304 251.381C66.4077 251.438 66.5365 251.533 66.7169 251.667C66.8972 251.8 67.1033 251.953 67.3352 252.124C67.5862 252.27 67.8388 252.427 68.0931 252.596L69.503 253.52L69.1487 255.291C68.9911 256.232 69.0297 257.028 69.2646 257.68C69.522 258.329 69.8332 258.879 70.1982 259.329C70.3471 259.558 70.6065 259.76 70.9762 259.934C71.3683 260.105 71.7247 260.189 72.0452 260.187C72.2279 260.183 72.4061 260.225 72.5798 260.314C72.7534 260.402 72.8587 260.57 72.8955 260.817C72.929 261.041 72.9109 261.227 72.8413 261.375C72.7717 261.523 72.6282 261.636 72.4107 261.714C71.6843 261.914 70.9625 261.839 70.2455 261.487C69.5508 261.133 68.8575 260.48 68.1655 259.529C68.0558 259.408 67.8957 259.18 67.6852 258.844C67.4938 258.483 67.3785 258.248 67.3394 258.14C67.2664 258.265 67.1301 258.503 66.9303 258.854C66.7272 259.182 66.5685 259.424 66.454 259.578C65.1033 261.43 63.8869 262.723 62.8048 263.457C61.7418 264.166 60.7923 264.331 59.9565 263.951ZM60.886 261.888C60.9094 262.044 61.1448 262.009 61.5921 261.782C62.0586 261.529 62.5386 261.137 63.0321 260.605C63.6973 259.841 64.3524 259.01 64.9975 258.111C65.665 257.209 66.1839 256.387 66.5543 255.644L67.1134 254.323C66.8123 253.841 66.5138 253.53 66.218 253.391C65.9413 253.226 65.7132 253.157 65.5339 253.184C65.2425 253.227 64.8455 253.562 64.3429 254.187C63.8628 254.808 63.3646 255.616 62.8483 256.61C62.332 257.604 61.8628 258.682 61.4405 259.845C61.2833 260.327 61.1468 260.794 61.031 261.247C60.9343 261.674 60.886 261.888 60.886 261.888ZM75.3368 261.621C75.2562 261.541 75.1722 261.439 75.0848 261.315C75.0199 261.187 74.9808 261.078 74.9674 260.989C74.9607 260.944 74.9411 260.889 74.9087 260.826C74.8986 260.758 74.8488 260.731 74.7591 260.745C74.6818 260.688 74.6881 260.423 74.7781 259.951C74.8872 259.454 75.0311 258.882 75.2097 258.237C75.4108 257.588 75.6152 256.962 75.823 256.358C76.0499 255.728 76.2391 255.23 76.3906 254.863C76.4927 254.779 76.5466 254.68 76.5522 254.564C76.577 254.423 76.567 254.356 76.5221 254.362C76.5221 254.362 76.5631 254.253 76.6451 254.035C76.7461 253.79 76.8253 253.63 76.8825 253.552C77.015 253.212 77.1026 252.878 77.1455 252.551C77.1849 252.201 77.1655 251.917 77.0872 251.7C76.9808 251.601 76.8749 251.583 76.7695 251.644C76.6641 251.706 76.6114 251.737 76.6114 251.737C76.5251 251.772 76.3973 251.837 76.228 251.931C76.0777 252 75.942 252.089 75.8209 252.198C75.3588 252.634 75.0365 252.854 74.8538 252.858C74.6677 252.84 74.4225 252.579 74.118 252.074C73.9915 251.841 73.9311 251.667 73.9368 251.551C73.9424 251.436 74.0137 251.299 74.1506 251.141C74.3065 250.958 74.4596 250.832 74.6098 250.763C74.7567 250.673 74.8699 250.587 74.9496 250.506C75.1728 250.313 75.3578 250.17 75.5047 250.08C75.674 249.986 75.8018 249.921 75.8881 249.885C76.4442 249.619 76.9324 249.511 77.3527 249.563C77.7729 249.615 78.1191 249.861 78.3911 250.302C78.7619 250.636 78.9841 251.05 79.0577 251.543C79.128 252.014 79.053 252.587 78.8329 253.261L78.5719 253.816C78.4933 254.057 78.4876 254.172 78.5548 254.162C78.6445 254.149 78.7337 254.055 78.8223 253.882C78.8762 253.782 78.9906 253.627 79.1656 253.418C79.3406 253.208 79.4617 253.099 79.529 253.089C79.529 253.089 79.5497 253.074 79.5912 253.045C79.6551 253.012 79.6754 252.918 79.652 252.761C79.7092 252.684 79.7664 252.606 79.8236 252.529C79.9032 252.448 79.9431 252.408 79.9431 252.408C80.0327 252.395 80.1858 252.269 80.4023 252.03C80.6378 251.766 80.9132 251.461 81.2284 251.116C81.4482 250.9 81.659 250.777 81.8608 250.747C82.353 250.513 82.7928 250.619 83.1803 251.065C83.5902 251.508 83.8537 252.122 83.9708 252.907L83.5357 254.828L84.5254 253.168C84.6332 252.968 84.7443 252.791 84.8587 252.637C84.9955 252.479 85.1133 252.347 85.212 252.24C85.2334 252.077 85.2873 251.977 85.3736 251.941C85.46 251.905 85.5031 251.887 85.5031 251.887C85.5031 251.887 85.5255 251.884 85.5704 251.877C85.6119 251.848 85.6276 251.8 85.6176 251.733C85.7163 251.626 85.8278 251.53 85.9523 251.442C86.0734 251.332 86.1497 251.229 86.1812 251.133C86.5389 250.919 86.883 250.845 87.2136 250.91C87.5408 250.953 87.8517 251.193 88.1461 251.63C88.3432 251.876 88.468 252.098 88.5206 252.296C88.5731 252.495 88.6295 252.796 88.6897 253.199C88.6951 253.542 88.6904 253.818 88.6757 254.026C88.6801 254.209 88.6861 254.403 88.6938 254.608C88.7015 254.813 88.7097 255.099 88.7184 255.464C88.6555 255.657 88.6279 255.856 88.6356 256.061C88.6657 256.262 88.6942 256.453 88.7209 256.632C88.7644 256.924 88.8058 257.124 88.8449 257.233C88.8807 257.319 88.9771 257.35 89.134 257.327C89.4378 257.213 89.8404 256.992 90.3416 256.665C90.8619 256.313 91.2381 255.993 91.4703 255.706C91.7598 255.342 92.0278 255.142 92.2744 255.105C92.54 255.042 92.7266 255.141 92.834 255.4C92.8922 255.483 92.8439 255.696 92.689 256.04C92.5565 256.381 92.3887 256.715 92.1856 257.043C92.0049 257.368 91.8585 257.539 91.7464 257.556C91.6792 257.566 91.6107 257.645 91.5412 257.793C91.4682 257.918 91.3807 258.023 91.2787 258.107C91.1452 258.287 91.01 258.456 90.8731 258.614C90.7587 258.769 90.6118 258.86 90.4325 258.886C90.3428 258.9 90.2357 258.95 90.1113 259.037C90.0059 259.099 89.8747 259.141 89.7178 259.165C89.5036 259.266 89.1511 259.284 88.6603 259.22C88.1918 259.152 87.8535 258.882 87.6454 258.409C87.5189 258.175 87.3819 257.795 87.2343 257.267C87.0834 256.716 87.0109 256.154 87.017 255.58C87.0464 255.163 87.0472 254.785 87.0194 254.446C86.9917 254.106 87.0014 253.864 87.0485 253.719C87.0385 253.652 87.0151 253.495 86.9783 253.249C86.9381 252.98 86.8844 252.85 86.8171 252.86C86.7275 252.873 86.5396 253.073 86.2535 253.46C85.9865 253.821 85.6656 254.281 85.2909 254.841C84.9386 255.398 84.5896 255.977 84.244 256.579C83.8983 257.18 83.6228 257.714 83.4174 258.18C83.2524 258.457 83.1182 258.786 83.0149 259.169C82.9115 259.551 82.8295 259.769 82.7689 259.824C82.6388 260.027 82.4516 260.078 82.2073 259.977C81.9855 259.872 81.7631 259.688 81.5403 259.423C81.4529 259.299 81.3914 259.193 81.3556 259.107C81.3164 258.998 81.2947 258.852 81.2903 258.67C81.305 258.461 81.34 258.158 81.3952 257.76C81.4728 257.359 81.5718 256.794 81.6923 256.066C81.8251 255.267 81.936 254.551 82.025 253.919C82.133 253.261 82.1871 252.932 82.1871 252.932C82.1737 252.843 82.0189 252.958 81.7228 253.277C81.4234 253.574 81.0779 253.946 80.6864 254.394C80.5215 254.671 80.2404 255.091 79.8433 255.654C79.4461 256.218 79.0141 256.855 78.5474 257.567C78.0806 258.278 77.6413 259.02 77.2294 259.792C76.7165 260.808 76.3406 261.437 76.1017 261.679C75.8852 261.917 75.6303 261.898 75.3368 261.621ZM98.4145 259.551C97.4281 259.698 96.5658 259.449 95.8276 258.803C95.0861 258.134 94.6429 257.238 94.498 256.114C94.4224 255.3 94.4505 254.413 94.5823 253.454C94.7332 252.469 94.9804 251.515 95.324 250.593C95.6643 249.649 96.0661 248.809 96.5296 248.076C96.993 247.342 97.5072 246.795 98.0724 246.436C98.2798 246.29 98.5018 246.166 98.7384 246.061C98.9974 245.954 99.2614 245.88 99.5304 245.84C99.777 245.803 100.041 245.81 100.324 245.859C100.603 245.886 100.839 245.931 101.032 245.994C101.436 246.094 101.756 246.241 101.991 246.435C102.226 246.629 102.458 246.95 102.685 247.397C102.816 247.813 102.895 248.111 102.921 248.29C102.948 248.47 102.932 248.747 102.874 249.123C102.725 249.97 102.481 250.717 102.142 251.363C101.803 252.009 101.305 252.588 100.648 253.099C100.486 253.238 100.286 253.359 100.05 253.463C99.832 253.541 99.6 253.599 99.3534 253.636C98.905 253.703 98.4562 253.689 98.0068 253.596C97.5765 253.477 97.2129 253.268 96.9161 252.968L96.6406 252.734L96.5799 253.018C96.446 253.657 96.3504 254.244 96.2928 254.78C96.2577 255.312 96.2719 255.792 96.3355 256.218C96.3757 256.487 96.4366 256.741 96.5182 256.981C96.6223 257.218 96.7437 257.417 96.8826 257.58C96.9924 257.701 97.1531 257.78 97.3649 257.817C97.5958 257.828 97.8346 257.816 98.0812 257.779C98.2381 257.756 98.395 257.732 98.5519 257.709C98.7279 257.659 98.8894 257.59 99.0363 257.499C99.3973 257.307 99.6782 257.117 99.879 256.926C100.102 256.732 100.324 256.527 100.543 256.311L100.668 256.224L100.634 256.229C100.883 256.054 101.099 255.885 101.28 255.72C101.484 255.552 101.586 255.468 101.586 255.468C101.676 255.455 101.757 255.385 101.83 255.26C101.996 255.143 102.225 255.144 102.518 255.26C102.833 255.374 103.009 255.554 103.045 255.8C103.04 255.916 102.966 256.11 102.823 256.384C102.677 256.634 102.507 256.878 102.313 257.113C102.142 257.345 101.99 257.482 101.859 257.524C101.84 257.55 101.768 257.607 101.644 257.694C101.516 257.759 101.433 257.817 101.395 257.869L101.428 257.864C101.267 258.163 101.085 258.327 100.883 258.358L100.614 258.398C100.548 258.568 100.283 258.791 99.8203 259.066C99.3539 259.319 98.8852 259.481 98.4145 259.551ZM98.8233 251.927C99.2269 251.867 99.5576 251.703 99.8156 251.435C100.093 251.142 100.321 250.833 100.502 250.508C100.86 249.836 101.031 249.214 101.015 248.644C101.017 248.047 100.89 247.654 100.632 247.463C100.488 247.416 100.359 247.401 100.247 247.418C100.154 247.409 99.9686 247.471 99.6905 247.604C99.4955 247.679 99.2403 247.889 98.9251 248.234C98.61 248.579 98.2998 248.957 97.9946 249.37C97.7119 249.778 97.4993 250.12 97.3567 250.393L97.025 251.164C97.1943 251.07 97.3574 251.012 97.5144 250.988C97.6904 250.939 97.7929 250.935 97.822 250.977C97.8521 251.178 97.9142 251.364 98.0082 251.533C98.1213 251.677 98.2406 251.785 98.3661 251.858C98.514 251.928 98.6664 251.951 98.8233 251.927ZM107.885 256.625C107.712 256.696 107.536 256.746 107.357 256.772C107.197 256.773 107.022 256.754 106.832 256.713C106.547 256.641 106.336 256.535 106.2 256.395C106.087 256.251 106.016 256.079 105.986 255.877C105.951 255.493 105.981 255.076 106.074 254.626C106.164 254.155 106.158 253.731 106.056 253.357C106.073 253.011 106.119 252.626 106.193 252.202C106.287 251.753 106.38 251.303 106.473 250.854C106.563 250.382 106.634 249.936 106.686 249.516C106.735 249.073 106.747 248.693 106.722 248.376C106.715 248.171 106.654 247.997 106.541 247.853C106.447 247.684 106.377 247.522 106.331 247.369C106.308 247.212 106.382 247.017 106.554 246.786C106.687 246.605 106.811 246.438 106.925 246.283C107.04 246.129 107.153 245.963 107.264 245.786C107.414 245.718 107.556 245.673 107.691 245.653C107.825 245.633 107.974 245.634 108.138 245.655C108.183 245.649 108.217 245.644 108.239 245.64C108.28 245.611 108.312 245.595 108.335 245.592C108.644 245.362 109.093 245.146 109.682 244.944C110.267 244.719 110.862 244.561 111.468 244.471C112.095 244.377 112.591 244.395 112.954 244.524C113.269 244.637 113.497 244.787 113.639 244.972C113.778 245.134 113.828 245.39 113.788 245.74C113.728 245.795 113.658 245.863 113.578 245.943C113.521 246.021 113.462 246.087 113.402 246.141C113.257 246.094 113.11 246.105 112.959 246.173C112.828 246.216 112.682 246.237 112.522 246.238C112.266 246.208 111.904 246.239 111.436 246.332C110.991 246.421 110.562 246.542 110.15 246.696C109.734 246.827 109.427 246.998 109.23 247.211C109.221 247.304 109.179 247.562 109.105 247.986C109.05 248.384 108.979 248.83 108.892 249.324C108.805 249.818 108.723 250.266 108.646 250.667C108.59 251.065 108.555 251.288 108.539 251.336C108.308 252.242 108.164 253.123 108.109 253.979C108.05 254.813 107.975 255.695 107.885 256.625ZM118.274 256.277C117.986 256.343 117.747 256.356 117.558 256.315C117.365 256.252 117.122 256.163 116.83 256.046C116.28 255.738 115.853 255.412 115.549 255.068C115.265 254.698 115.106 254.321 115.071 253.936C115.086 253.728 115.059 253.549 114.991 253.398C114.945 253.245 114.922 253.168 114.922 253.168C114.771 253.076 114.716 253.015 114.757 252.986C114.796 252.935 114.819 252.863 114.828 252.769C115.001 252.698 115.005 252.571 114.84 252.39C114.746 252.22 114.72 251.812 114.76 251.164C114.82 250.49 114.932 249.855 115.095 249.258C115.17 248.994 115.278 248.646 115.42 248.212C115.584 247.775 115.77 247.335 115.979 246.891C116.184 246.425 116.381 246.052 116.568 245.772C116.978 245.138 117.353 244.658 117.694 244.332C118.054 243.98 118.467 243.678 118.934 243.425C119.355 243.179 119.665 243.029 119.864 242.977C120.062 242.924 120.362 243.017 120.764 243.255C121.326 243.331 121.763 243.495 122.075 243.747C122.407 243.972 122.695 244.365 122.939 244.924C123.215 245.547 123.387 246.312 123.453 247.219C123.539 248.1 123.327 249.289 122.817 250.786C122.521 251.724 122.194 252.449 121.835 252.961C121.499 253.47 121.076 254.014 120.566 254.594C120.194 255.017 119.844 255.355 119.515 255.611C119.186 255.866 118.773 256.088 118.274 256.277ZM120.367 251.874C120.715 251.134 120.97 250.466 121.133 249.869C121.315 249.246 121.419 248.485 121.446 247.588C121.454 247.334 121.42 247.03 121.344 246.675C121.264 246.297 121.157 245.958 121.02 245.657C120.906 245.354 120.78 245.2 120.642 245.198C120.334 245.13 120.009 245.178 119.667 245.344C119.322 245.487 118.969 245.815 118.61 246.326C118.296 246.832 118.024 247.388 117.794 247.995C117.586 248.599 117.409 249.256 117.263 249.965C117.117 250.675 116.988 251.427 116.878 252.223C116.781 253.108 116.889 253.757 117.203 254.168C117.539 254.576 117.993 254.623 118.564 254.309C119.133 253.972 119.734 253.16 120.367 251.874ZM126.576 262.945C126.486 262.958 126.374 262.975 126.239 262.995C126.108 263.037 125.971 262.966 125.829 262.781C125.723 262.682 125.642 262.523 125.586 262.302C125.552 262.078 125.548 261.666 125.573 261.066C125.628 260.668 125.661 260.274 125.672 259.883C125.685 259.514 125.679 259.24 125.652 259.06C125.639 258.971 125.634 258.788 125.639 258.512C125.669 258.256 125.676 258.071 125.659 257.959C125.745 257.763 125.798 257.503 125.818 257.179C125.838 256.855 125.83 256.57 125.793 256.324C125.753 256.055 125.851 255.788 126.086 255.523C126.06 255.344 126.06 255.115 126.087 254.836C126.136 254.553 126.155 254.367 126.141 254.278C126.162 253.954 126.225 253.383 126.332 252.565C126.458 251.721 126.614 250.769 126.8 249.71C127.008 248.648 127.208 247.61 127.401 246.596C127.593 245.581 127.774 244.718 127.942 244.005C128.118 243.337 128.217 242.773 128.239 242.311C128.281 241.823 128.285 241.467 128.252 241.243C128.238 241.154 128.251 241.083 128.289 241.031C128.324 240.958 128.406 240.819 128.536 240.616C128.727 240.359 128.908 240.263 129.078 240.329C129.271 240.392 129.504 240.495 129.777 240.637C130 240.902 130.16 241.13 130.257 241.322C130.377 241.51 130.429 241.858 130.413 242.364C130.463 242.701 130.451 243.001 130.375 243.264C130.3 243.527 130.228 243.733 130.158 243.881C130.085 244.006 130.069 244.054 130.111 244.025C130.967 243.462 131.74 243.117 132.432 242.991C133.142 242.839 133.755 242.874 134.269 243.095C134.803 243.291 135.229 243.616 135.55 244.073C135.87 244.529 136.078 245.083 136.176 245.733C136.216 246.002 136.208 246.335 136.153 246.733C136.094 247.108 135.999 247.466 135.866 247.807C135.753 248.122 135.639 248.357 135.525 248.511C135.435 248.525 135.357 248.616 135.291 248.787C135.221 248.935 135.155 249.105 135.092 249.298C134.946 249.549 134.693 249.85 134.333 250.202C133.992 250.528 133.645 250.809 133.29 251.045C132.933 251.259 132.659 251.345 132.47 251.305C132.47 251.305 132.438 251.321 132.374 251.354C132.329 251.36 132.315 251.42 132.332 251.532C132.338 251.577 132.174 251.704 131.839 251.915C131.5 252.103 131.105 252.299 130.655 252.504C130.201 252.686 129.794 252.804 129.436 252.858C128.965 252.928 128.615 252.889 128.387 252.739C128.348 252.791 128.302 252.867 128.249 252.966C128.217 253.063 128.206 253.144 128.217 253.212C128.237 253.346 128.219 253.612 128.164 254.01C128.128 254.382 128.067 254.746 127.983 255.103C127.899 255.459 127.801 255.646 127.689 255.662C127.689 255.662 127.671 255.699 127.636 255.773C127.602 255.847 127.637 255.934 127.744 256.032C127.744 256.032 127.751 256.157 127.765 256.407C127.806 256.676 127.783 256.909 127.698 257.105C127.724 257.284 127.731 257.558 127.717 257.927C127.704 258.296 127.665 258.577 127.602 258.769C127.642 259.038 127.636 259.303 127.583 259.563C127.556 259.842 127.498 259.988 127.408 260.001C127.322 260.037 127.286 260.18 127.3 260.43C127.318 260.702 127.335 260.895 127.352 261.007C127.413 261.571 127.366 262.024 127.211 262.368C127.056 262.712 126.845 262.904 126.576 262.945ZM128.968 251.106C129.147 251.079 129.505 250.945 130.042 250.705C130.579 250.464 131.123 250.188 131.672 249.877C132.241 249.54 132.652 249.226 132.907 248.936C133.413 248.334 133.774 247.684 133.991 246.987C134.227 246.264 134.109 245.629 133.637 245.08C133.411 244.793 133.068 244.718 132.607 244.856C132.143 244.971 131.654 245.227 131.14 245.625C130.627 246.022 130.159 246.493 129.736 247.038C129.51 247.369 129.317 247.765 129.156 248.224C128.996 248.684 128.869 249.138 128.776 249.587C128.705 250.033 128.68 250.404 128.701 250.699C128.722 250.993 128.811 251.129 128.968 251.106ZM147.17 252.101C146.912 251.91 146.643 251.641 146.362 251.294C146.077 250.924 145.829 250.491 145.618 249.995C145.546 249.823 145.487 249.579 145.44 249.266C145.416 248.948 145.382 248.724 145.34 248.593C145.296 248.76 145.209 248.945 145.079 249.148C144.968 249.325 144.853 249.479 144.736 249.611C144.659 249.714 144.484 249.924 144.211 250.24C143.934 250.533 143.65 250.782 143.359 250.986C142.69 251.567 142.112 251.917 141.625 252.035C141.161 252.15 140.676 251.971 140.17 251.496C139.768 251.258 139.461 250.972 139.251 250.636C139.063 250.298 138.989 249.805 139.03 249.157C138.958 248.365 138.956 247.586 139.025 246.82C139.09 246.031 139.31 244.967 139.683 243.628C140.016 242.638 140.275 241.912 140.458 241.449C140.637 240.964 140.754 240.672 140.808 240.572C141.127 240.41 141.409 240.379 141.654 240.48C141.895 240.559 142.061 240.752 142.153 241.059C142.321 241.263 142.355 241.648 142.256 242.212C142.179 242.774 141.998 243.477 141.711 244.322C141.511 245.131 141.334 245.937 141.179 246.739C141.046 247.538 140.997 248.21 141.032 248.755C141.068 249.299 141.251 249.604 141.582 249.67C141.8 249.752 142.143 249.666 142.609 249.413C143.098 249.157 143.603 248.623 144.123 247.812C144.666 246.998 145.132 245.817 145.519 244.269C145.632 243.794 145.708 243.382 145.747 243.032C145.783 242.66 145.781 242.259 145.74 241.83C145.655 241.567 145.631 241.33 145.668 241.119C145.724 240.881 145.875 240.664 146.121 240.467C146.194 240.341 146.302 240.222 146.445 240.109C146.586 239.973 146.686 239.958 146.748 240.064L147.281 239.95C147.367 239.914 147.432 239.962 147.474 240.093C147.536 240.198 147.629 240.287 147.755 240.36C148.032 240.525 148.164 240.952 148.152 241.642C148.141 242.331 147.967 243.319 147.632 244.607C147.344 245.59 147.156 246.328 147.069 246.822C147.005 247.313 146.995 247.784 147.04 248.236C147.1 248.64 147.235 249.009 147.446 249.344C147.656 249.68 147.951 249.968 148.331 250.209C148.601 250.329 148.763 250.488 148.815 250.687C148.89 250.882 148.936 251.116 148.954 251.388C148.939 251.596 148.83 251.785 148.626 251.953C148.441 252.095 148.214 252.186 147.945 252.226C147.676 252.266 147.417 252.225 147.17 252.101ZM159.616 250.243C159.472 250.356 159.254 250.355 158.962 250.238C158.692 250.118 158.41 249.919 158.117 249.642C157.92 249.396 157.764 249.122 157.65 248.818C157.558 248.511 157.471 248.077 157.387 247.517C157.342 247.065 157.276 246.777 157.189 246.652C157.124 246.524 157.004 246.565 156.829 246.775C156.651 246.962 156.352 247.339 155.932 247.906C155.456 248.55 154.983 249.067 154.514 249.458C154.068 249.845 153.686 250.051 153.369 250.076C153.212 250.099 153.021 250.048 152.796 249.921C152.589 249.768 152.39 249.58 152.196 249.357C151.999 249.112 151.824 248.863 151.672 248.61C151.464 248.137 151.348 247.513 151.323 246.737C151.318 245.936 151.376 245.091 151.495 244.202C151.614 243.313 151.774 242.464 151.974 241.655C152.197 240.843 152.441 240.176 152.707 239.655C152.995 239.131 153.274 238.849 153.543 238.809C153.722 238.782 153.893 238.848 154.054 239.007C154.238 239.163 154.437 239.42 154.65 239.778C154.763 239.921 154.817 240.051 154.811 240.166C154.828 240.278 154.759 240.426 154.603 240.61C154.441 240.909 154.266 241.348 154.077 241.926C153.911 242.501 153.751 243.12 153.598 243.785C153.468 244.446 153.357 245.082 153.264 245.691C153.172 246.301 153.121 246.801 153.11 247.192C153.096 247.561 153.134 247.739 153.224 247.725C153.538 247.679 153.889 247.5 154.279 247.19C154.687 246.854 155.064 246.465 155.411 246.024C155.811 245.483 156.149 244.905 156.424 244.291C156.722 243.674 157.014 243.023 157.301 242.338C157.526 241.847 157.755 241.308 157.989 240.723C158.244 240.135 158.401 239.722 158.457 239.485C158.684 238.855 158.86 238.427 158.987 238.202C159.111 237.955 159.28 237.78 159.494 237.68C159.606 237.663 159.707 237.648 159.796 237.634C159.908 237.618 159.964 237.609 159.964 237.609C160.102 237.612 160.274 237.689 160.48 237.842C160.673 237.905 160.787 237.979 160.823 238.066C160.856 238.13 160.88 238.218 160.897 238.33C160.841 238.567 160.745 238.925 160.61 239.404C160.495 239.856 160.407 240.19 160.347 240.405C160.065 241.433 159.782 242.449 159.496 243.455C159.23 244.434 159.079 245.419 159.044 246.41C159.046 246.73 159.09 247.102 159.176 247.525C159.281 247.921 159.392 248.203 159.508 248.369C159.595 248.493 159.697 248.638 159.814 248.804C159.949 248.945 160.093 249.061 160.244 249.153C160.466 249.257 160.521 249.398 160.41 249.575C160.321 249.748 160.184 249.906 159.999 250.049C159.811 250.168 159.683 250.233 159.616 250.243ZM157.096 236.353C156.414 236.547 155.801 236.432 155.257 236.009C154.712 235.586 154.245 234.911 153.854 233.984C153.783 233.811 153.737 233.658 153.717 233.523C153.716 233.363 153.74 233.222 153.791 233.099C153.822 233.003 153.902 232.922 154.03 232.858C154.154 232.77 154.265 232.742 154.361 232.774C154.692 232.839 154.938 232.951 155.099 233.11C155.279 233.244 155.41 233.431 155.492 233.671C155.553 233.776 155.593 233.885 155.609 233.997C155.649 234.106 155.666 234.149 155.663 234.126C155.829 234.468 156.011 234.693 156.211 234.801C156.41 234.909 156.677 234.857 157.013 234.647C157.37 234.433 157.714 234.198 158.042 233.943C158.393 233.684 158.693 233.388 158.94 233.053C159.15 232.769 159.352 232.51 159.546 232.275C159.763 232.036 159.966 231.788 160.157 231.53L160.186 231.492C160.265 231.411 160.374 231.372 160.512 231.374C160.65 231.377 160.733 231.398 160.762 231.44C160.943 231.573 161.045 231.719 161.068 231.876C161.091 232.033 161.117 232.201 161.143 232.38L161.12 232.452C161.185 232.58 161.111 232.855 160.899 233.276C160.709 233.694 160.455 234.064 160.137 234.387C159.859 234.68 159.557 234.954 159.228 235.21C158.9 235.465 158.558 235.711 158.204 235.947C158.06 236.06 157.9 236.141 157.724 236.191C157.568 236.214 157.358 236.268 157.096 236.353Z" fill="#E6380B"/>
<path d="M99 157.512C103.193 154.766 178.451 104.417 172.178 96.9676C167.302 91.1774 141.05 101.96 134.441 103.613C129.066 104.956 115.61 110.34 123.776 100.577C136.328 85.5693 155.332 77.0858 171.03 66.0391C171.232 65.8966 188.29 53.4525 183.992 51.5184C174.764 47.366 158.988 54.664 149.372 55.5382C136.928 56.6694 146.355 49.1996 152.407 45.2834C172.23 32.4571 193.644 22.9875 213.361 9.84286C226.891 0.823673 212.432 6.73759 206.06 3.19774C202.598 1.27464 218.518 3.93608 222.304 3.93608C226.989 3.93608 224.303 4.99313 221.893 8.36617C217.833 14.0509 215.659 20.6164 215.659 27.5631" stroke="#1C1C1C" stroke-width="5" stroke-linecap="round"/>
</svg>
