<svg width="140" height="28" viewBox="0 0 140 28" fill="none" xmlns="http://www.w3.org/2000/svg">
<path d="M0 6.60232L13.7411 4.10767L0 11.0543V6.60232Z" fill="#2E4254"/>
<path d="M15.8042 26.6172L22.8305 13.0693L20.3002 26.6172H15.8042Z" fill="#2E4254"/>
<path d="M22.8306 4.16519V4.10762H22.7722L22.9085 4.05005L22.8306 4.16519Z" fill="#2E4254"/>
<path d="M140 2.7644H91.8672V27.9988H140V2.7644Z" fill="#E6380B"/>
<path d="M36.4548 22.4914V8.25269H42.1576C43.2476 8.25269 44.1818 8.46377 44.9603 8.86675C45.7389 9.26974 46.3228 9.84543 46.7315 10.5746C47.1402 11.3038 47.3349 12.129 47.3349 13.0885C47.3349 14.048 47.1208 14.8731 46.712 15.5831C46.3033 16.3123 45.6999 16.8688 44.9214 17.2718C44.1429 17.6748 43.1892 17.8859 42.0797 17.8859H39.5106V22.5106H36.4548V22.4914ZM39.4911 15.468H41.5737C42.4496 15.468 43.0918 15.2377 43.5395 14.7964C43.9677 14.355 44.1818 13.7793 44.1818 13.0693C44.1818 12.3593 43.9677 11.7836 43.5395 11.3614C43.1113 10.92 42.4496 10.709 41.5737 10.709H39.5106V15.468H39.4911Z" fill="#2E4254"/>
<path d="M50.1375 22.4914H46.8677L51.8503 8.25269H55.7819L60.7645 22.4914H57.4947L56.4242 19.2484H51.208L50.1375 22.4914ZM51.9865 16.9072H55.6457L53.8745 11.5149H53.7577L51.9865 16.9072Z" fill="#2E4254"/>
<path d="M65.5331 8.25258V17.2142H65.6694L71.8976 8.25258H74.5836V22.4913H71.5278V13.5297H71.4305L65.1438 22.4913H62.4968V8.25258H65.5331ZM69.601 5.39332C69.3869 5.64279 69.0365 5.77711 68.5305 5.77711C68.0244 5.77711 67.6546 5.64279 67.4405 5.39332C67.2264 5.14385 67.1291 4.85601 67.1291 4.52979H65.0465C65.0465 5.37413 65.3579 6.04577 65.9808 6.56389C66.6036 7.08201 67.46 7.33148 68.5305 7.33148C69.601 7.33148 70.4379 7.08201 71.0802 6.56389C71.703 6.04577 72.0144 5.37413 72.0339 4.52979H69.9318C69.9318 4.85601 69.8151 5.14385 69.601 5.39332Z" fill="#2E4254"/>
<path d="M76.5493 10.7282V8.25269H88.422V10.7282H84.0038V22.4914H80.9675V10.7282H76.5493Z" fill="#2E4254"/>
<path d="M96.772 22.4914V8.25269H106.348V10.7282H99.8083V13.5107H102.163C103.312 13.5107 104.285 13.6834 105.122 14.048C105.959 14.4126 106.601 14.9307 107.049 15.5831C107.496 16.2356 107.73 17.0224 107.73 17.9243C107.73 18.8262 107.496 19.613 107.049 20.2846C106.601 20.9754 105.959 21.4936 105.122 21.8965C104.285 22.2803 103.312 22.4722 102.163 22.4722H96.772V22.4914ZM99.8277 20.0735H102.183C103 20.0735 103.623 19.8624 104.071 19.4403C104.499 19.0181 104.732 18.5 104.732 17.9243C104.732 17.3678 104.518 16.888 104.071 16.4851C103.643 16.1013 103 15.8902 102.183 15.8902H99.8277V20.0735Z" fill="white"/>
<path d="M112.751 8.25269V17.2143H112.888L119.116 8.25269H121.802V22.4914H118.727V13.5298H118.629L112.343 22.4914H109.696V8.25269H112.751Z" fill="white"/>
<path d="M129.548 22.6832C128.497 22.6832 127.544 22.5105 126.726 22.1459C125.909 21.7813 125.266 21.3016 124.799 20.6491C124.332 20.0159 124.079 19.2866 124.06 18.4423H127.135C127.154 18.9604 127.407 19.3826 127.855 19.7088C128.303 20.035 128.867 20.1886 129.548 20.1886C130.249 20.1886 130.813 20.0159 131.261 19.6513C131.709 19.2866 131.923 18.8453 131.923 18.2696C131.923 17.6939 131.689 17.2334 131.222 16.8688C130.755 16.5041 130.093 16.3314 129.276 16.3314H127.933V14.1246H129.276C129.976 14.1246 130.541 13.9519 130.969 13.6065C131.397 13.2611 131.631 12.8005 131.611 12.244C131.611 11.7067 131.436 11.2654 131.047 10.9391C130.677 10.6129 130.171 10.4402 129.548 10.4402C128.925 10.4402 128.38 10.5937 127.952 10.92C127.524 11.2462 127.271 11.6684 127.252 12.2249H124.332C124.352 11.3997 124.585 10.6897 125.052 10.0564C125.519 9.42316 126.142 8.94342 126.921 8.57881C127.699 8.21421 128.595 8.0415 129.568 8.0415C130.56 8.0415 131.436 8.21421 132.176 8.57881C132.915 8.94342 133.499 9.42316 133.927 10.018C134.336 10.6321 134.55 11.3037 134.55 12.0521C134.55 12.8581 134.297 13.5106 133.791 14.0479C133.285 14.5852 132.623 14.9114 131.825 15.0649V15.1801C132.896 15.3144 133.694 15.679 134.258 16.2739C134.823 16.8688 135.095 17.598 135.095 18.4999C135.095 19.3058 134.862 20.035 134.395 20.6683C133.908 21.3016 133.266 21.8005 132.429 22.1651C131.592 22.5105 130.638 22.6832 129.548 22.6832Z" fill="white"/>
<path d="M0 13.6451L12.4371 14.3743L13.1767 26.6173L26.9957 0.0012207L0 13.6451Z" fill="#E6380B"/>
</svg>
